<svg version="1.1" viewBox="0.0 0.0 600.0 361.0" fill="none" stroke="none" stroke-linecap="square" stroke-miterlimit="10" width="600" height="361" xmlns:xlink="http://www.w3.org/1999/xlink" xmlns="http://www.w3.org/2000/svg"><path fill="#ffffff" d="M0 0L600.0 0L600.0 361.0L0 361.0L0 0Z" fill-rule="nonzero"/><path stroke="#333333" stroke-width="1.0" stroke-linecap="butt" d="M89.5 18.5L89.5 321.5" fill-rule="nonzero"/><path stroke="#cccccc" stroke-width="1.0" stroke-linecap="butt" d="M212.5 18.5L212.5 321.5" fill-rule="nonzero"/><path stroke="#cccccc" stroke-width="1.0" stroke-linecap="butt" d="M335.5 18.5L335.5 321.5" fill-rule="nonzero"/><path stroke="#cccccc" stroke-width="1.0" stroke-linecap="butt" d="M458.5 18.5L458.5 321.5" fill-rule="nonzero"/><path stroke="#cccccc" stroke-width="1.0" stroke-linecap="butt" d="M581.5 18.5L581.5 321.5" fill-rule="nonzero"/><clipPath id="id_0"><path d="M89.05 18.05L581.95 18.05L581.95 321.95L89.05 321.95L89.05 18.05Z" clip-rule="nonzero"/></clipPath><path stroke="#000000" stroke-width="0.0" stroke-linecap="butt" stroke-opacity="0.0" clip-path="url(#id_0)" d="M89.0 60.0L89.0 33.0L531.0 33.0C532.10455 33.0 533.0 33.89543 533.0 35.0L533.0 58.0C533.0 59.10457 532.10455 60.0 531.0 60.0Z" fill-rule="nonzero"/><path fill="#3d85c6" clip-path="url(#id_0)" d="M89.0 60.0L89.0 33.0L531.0 33.0C532.10455 33.0 533.0 33.89543 533.0 35.0L533.0 58.0C533.0 59.10457 532.10455 60.0 531.0 60.0Z" fill-rule="nonzero"/><path stroke="#000000" stroke-width="0.0" stroke-linecap="butt" stroke-opacity="0.0" clip-path="url(#id_0)" d="M89.0 101.0L89.0 74.0L531.0 74.0C532.10455 74.0 533.0 74.89543 533.0 76.0L533.0 99.0C533.0 100.10457 532.10455 101.0 531.0 101.0Z" fill-rule="nonzero"/><path fill="#ffc106" clip-path="url(#id_0)" d="M89.0 101.0L89.0 74.0L531.0 74.0C532.10455 74.0 533.0 74.89543 533.0 76.0L533.0 99.0C533.0 100.10457 532.10455 101.0 531.0 101.0Z" fill-rule="nonzero"/><path stroke="#000000" stroke-width="0.0" stroke-linecap="butt" stroke-opacity="0.0" clip-path="url(#id_0)" d="M89.0 143.0L89.0 116.0L531.0 116.0C532.10455 116.0 533.0 116.89543 533.0 118.0L533.0 141.0C533.0 142.10457 532.10455 143.0 531.0 143.0Z" fill-rule="nonzero"/><path fill="#ff0000" clip-path="url(#id_0)" d="M89.0 143.0L89.0 116.0L531.0 116.0C532.10455 116.0 533.0 116.89543 533.0 118.0L533.0 141.0C533.0 142.10457 532.10455 143.0 531.0 143.0Z" fill-rule="nonzero"/><path stroke="#000000" stroke-width="0.0" stroke-linecap="butt" stroke-opacity="0.0" clip-path="url(#id_0)" d="M89.0 184.0L89.0 157.0L531.0 157.0C532.10455 157.0 533.0 157.89543 533.0 159.0L533.0 182.0C533.0 183.10457 532.10455 184.0 531.0 184.0Z" fill-rule="nonzero"/><path fill="#0000ff" clip-path="url(#id_0)" d="M89.0 184.0L89.0 157.0L531.0 157.0C532.10455 157.0 533.0 157.89543 533.0 159.0L533.0 182.0C533.0 183.10457 532.10455 184.0 531.0 184.0Z" fill-rule="nonzero"/><path stroke="#000000" stroke-width="0.0" stroke-linecap="butt" stroke-opacity="0.0" clip-path="url(#id_0)" d="M89.0 225.0L89.0 198.0L432.0 198.0C433.10458 198.0 434.0 198.89543 434.0 200.0L434.0 223.0C434.0 224.10457 433.10458 225.0 432.0 225.0Z" fill-rule="nonzero"/><path fill="#00ffff" clip-path="url(#id_0)" d="M89.0 225.0L89.0 198.0L432.0 198.0C433.10458 198.0 434.0 198.89543 434.0 200.0L434.0 223.0C434.0 224.10457 433.10458 225.0 432.0 225.0Z" fill-rule="nonzero"/><path stroke="#000000" stroke-width="0.0" stroke-linecap="butt" stroke-opacity="0.0" clip-path="url(#id_0)" d="M89.0 267.0L89.0 240.0L383.0 240.0C384.10458 240.0 385.0 240.89543 385.0 242.0L385.0 265.0C385.0 266.10458 384.10458 267.0 383.0 267.0Z" fill-rule="nonzero"/><path fill="#9900ff" clip-path="url(#id_0)" d="M89.0 267.0L89.0 240.0L383.0 240.0C384.10458 240.0 385.0 240.89543 385.0 242.0L385.0 265.0C385.0 266.10458 384.10458 267.0 383.0 267.0Z" fill-rule="nonzero"/><path stroke="#000000" stroke-width="0.0" stroke-linecap="butt" stroke-opacity="0.0" clip-path="url(#id_0)" d="M89.0 308.0L89.0 281.0L333.0 281.0C334.10458 281.0 335.0 281.89542 335.0 283.0L335.0 306.0C335.0 307.10458 334.10458 308.0 333.0 308.0Z" fill-rule="nonzero"/><path fill="#6fa8dc" clip-path="url(#id_0)" d="M89.0 308.0L89.0 281.0L333.0 281.0C334.10458 281.0 335.0 281.89542 335.0 283.0L335.0 306.0C335.0 307.10458 334.10458 308.0 333.0 308.0Z" fill-rule="nonzero"/><path stroke="#ffffff" stroke-width="3.0" stroke-linejoin="round" stroke-linecap="round" d="M549.51935 46.75Q549.1912 47.15625 548.70685 47.40625Q548.2381 47.640625 547.6756 47.640625Q546.9412 47.640625 546.39435 47.28125Q545.8475 46.921875 545.5506 46.265625Q545.2537 45.59375 545.2537 44.796875Q545.2537 43.953125 545.5662 43.265625Q545.89435 42.578125 546.4881 42.21875Q547.0975 41.84375 547.89435 41.84375Q549.16 41.84375 549.8787 42.796875Q550.6131 43.75 550.6131 45.375L550.6131 45.6875Q550.6131 48.1875 549.6287 49.328125Q548.64435 50.46875 546.66 50.5L546.4412 50.5L546.4412 49.59375L546.6756 49.59375Q548.01935 49.5625 548.7381 48.890625Q549.45685 48.21875 549.51935 46.75ZM547.8475 46.75Q548.39435 46.75 548.8475 46.421875Q549.3162 46.078125 549.535 45.59375L549.535 45.15625Q549.535 44.09375 549.0662 43.421875Q548.5975 42.75 547.89435 42.75Q547.1756 42.75 546.7381 43.296875Q546.3162 43.84375 546.3162 44.75Q546.3162 45.625 546.7225 46.1875Q547.14435 46.75 547.8475 46.75ZM557.7225 46.859375Q557.7225 48.765625 557.0662 49.703125Q556.4256 50.625 555.035 50.625Q553.6756 50.625 553.01935 49.71875Q552.3631 48.8125 552.33185 47.0L552.33185 45.5625Q552.33185 43.671875 552.9725 42.765625Q553.6287 41.84375 555.01935 41.84375Q556.39435 41.84375 557.0506 42.734375Q557.70685 43.609375 557.7225 45.453125L557.7225 46.859375ZM556.6287 45.375Q556.6287 44.0 556.2381 43.375Q555.8631 42.734375 555.01935 42.734375Q554.1912 42.734375 553.8006 43.375Q553.4256 44.0 553.4256 45.296875L553.4256 47.03125Q553.4256 48.40625 553.8162 49.078125Q554.2225 49.734375 555.035 49.734375Q555.83185 49.734375 556.2225 49.109375Q556.6131 48.484375 556.6287 47.15625L556.6287 45.375ZM559.26935 43.609375Q559.26935 42.84375 559.7537 42.34375Q560.2537 41.84375 561.01935 41.84375Q561.8006 41.84375 562.285 42.34375Q562.76935 42.84375 562.76935 43.640625L562.76935 44.0625Q562.76935 44.828125 562.26935 45.328125Q561.785 45.8125 561.035 45.8125Q560.26935 45.8125 559.76935 45.328125Q559.26935 44.828125 559.26935 44.015625L559.26935 43.609375ZM560.08185 44.0625Q560.08185 44.515625 560.33185 44.8125Q560.5975 45.109375 561.035 45.109375Q561.45685 45.109375 561.70685 44.828125Q561.95685 44.53125 561.95685 44.03125L561.95685 43.609375Q561.95685 43.15625 561.70685 42.859375Q561.45685 42.546875 561.01935 42.546875Q560.58185 42.546875 560.33185 42.859375Q560.08185 43.15625 560.08185 43.625L560.08185 44.0625ZM563.4256 48.40625Q563.4256 47.640625 563.91 47.15625Q564.41 46.65625 565.1756 46.65625Q565.9412 46.65625 566.4256 47.15625Q566.9256 47.640625 566.9256 48.453125L566.9256 48.859375Q566.9256 49.625 566.4412 50.125Q565.95685 50.625 565.1912 50.625Q564.4256 50.625 563.9256 50.140625Q563.4256 49.640625 563.4256 48.828125L563.4256 48.40625ZM564.2381 48.859375Q564.2381 49.328125 564.4881 49.625Q564.7537 49.921875 565.1912 49.921875Q565.6131 49.921875 565.8631 49.640625Q566.1131 49.34375 566.1131 48.84375L566.1131 48.40625Q566.1131 47.9375 565.8475 47.65625Q565.5975 47.359375 565.1756 47.359375Q564.7537 47.359375 564.4881 47.65625Q564.2381 47.9375 564.2381 48.4375L564.2381 48.859375ZM561.285 49.859375L560.66 49.46875L564.83185 42.796875L565.4412 43.1875L561.285 49.859375Z" fill-rule="nonzero"/><path fill="#3d85c6" d="M549.51935 46.75Q549.1912 47.15625 548.70685 47.40625Q548.2381 47.640625 547.6756 47.640625Q546.9412 47.640625 546.39435 47.28125Q545.8475 46.921875 545.5506 46.265625Q545.2537 45.59375 545.2537 44.796875Q545.2537 43.953125 545.5662 43.265625Q545.89435 42.578125 546.4881 42.21875Q547.0975 41.84375 547.89435 41.84375Q549.16 41.84375 549.8787 42.796875Q550.6131 43.75 550.6131 45.375L550.6131 45.6875Q550.6131 48.1875 549.6287 49.328125Q548.64435 50.46875 546.66 50.5L546.4412 50.5L546.4412 49.59375L546.6756 49.59375Q548.01935 49.5625 548.7381 48.890625Q549.45685 48.21875 549.51935 46.75ZM547.8475 46.75Q548.39435 46.75 548.8475 46.421875Q549.3162 46.078125 549.535 45.59375L549.535 45.15625Q549.535 44.09375 549.0662 43.421875Q548.5975 42.75 547.89435 42.75Q547.1756 42.75 546.7381 43.296875Q546.3162 43.84375 546.3162 44.75Q546.3162 45.625 546.7225 46.1875Q547.14435 46.75 547.8475 46.75ZM557.7225 46.859375Q557.7225 48.765625 557.0662 49.703125Q556.4256 50.625 555.035 50.625Q553.6756 50.625 553.01935 49.71875Q552.3631 48.8125 552.33185 47.0L552.33185 45.5625Q552.33185 43.671875 552.9725 42.765625Q553.6287 41.84375 555.01935 41.84375Q556.39435 41.84375 557.0506 42.734375Q557.70685 43.609375 557.7225 45.453125L557.7225 46.859375ZM556.6287 45.375Q556.6287 44.0 556.2381 43.375Q555.8631 42.734375 555.01935 42.734375Q554.1912 42.734375 553.8006 43.375Q553.4256 44.0 553.4256 45.296875L553.4256 47.03125Q553.4256 48.40625 553.8162 49.078125Q554.2225 49.734375 555.035 49.734375Q555.83185 49.734375 556.2225 49.109375Q556.6131 48.484375 556.6287 47.15625L556.6287 45.375ZM559.26935 43.609375Q559.26935 42.84375 559.7537 42.34375Q560.2537 41.84375 561.01935 41.84375Q561.8006 41.84375 562.285 42.34375Q562.76935 42.84375 562.76935 43.640625L562.76935 44.0625Q562.76935 44.828125 562.26935 45.328125Q561.785 45.8125 561.035 45.8125Q560.26935 45.8125 559.76935 45.328125Q559.26935 44.828125 559.26935 44.015625L559.26935 43.609375ZM560.08185 44.0625Q560.08185 44.515625 560.33185 44.8125Q560.5975 45.109375 561.035 45.109375Q561.45685 45.109375 561.70685 44.828125Q561.95685 44.53125 561.95685 44.03125L561.95685 43.609375Q561.95685 43.15625 561.70685 42.859375Q561.45685 42.546875 561.01935 42.546875Q560.58185 42.546875 560.33185 42.859375Q560.08185 43.15625 560.08185 43.625L560.08185 44.0625ZM563.4256 48.40625Q563.4256 47.640625 563.91 47.15625Q564.41 46.65625 565.1756 46.65625Q565.9412 46.65625 566.4256 47.15625Q566.9256 47.640625 566.9256 48.453125L566.9256 48.859375Q566.9256 49.625 566.4412 50.125Q565.95685 50.625 565.1912 50.625Q564.4256 50.625 563.9256 50.140625Q563.4256 49.640625 563.4256 48.828125L563.4256 48.40625ZM564.2381 48.859375Q564.2381 49.328125 564.4881 49.625Q564.7537 49.921875 565.1912 49.921875Q565.6131 49.921875 565.8631 49.640625Q566.1131 49.34375 566.1131 48.84375L566.1131 48.40625Q566.1131 47.9375 565.8475 47.65625Q565.5975 47.359375 565.1756 47.359375Q564.7537 47.359375 564.4881 47.65625Q564.2381 47.9375 564.2381 48.4375L564.2381 48.859375ZM561.285 49.859375L560.66 49.46875L564.83185 42.796875L565.4412 43.1875L561.285 49.859375Z" fill-rule="nonzero"/><path fill="#ffc106" d="M549.51935 87.75Q549.1912 88.15625 548.70685 88.40625Q548.2381 88.640625 547.6756 88.640625Q546.9412 88.640625 546.39435 88.28125Q545.8475 87.921875 545.5506 87.265625Q545.2537 86.59375 545.2537 85.796875Q545.2537 84.953125 545.5662 84.265625Q545.89435 83.578125 546.4881 83.21875Q547.0975 82.84375 547.89435 82.84375Q549.16 82.84375 549.8787 83.796875Q550.6131 84.75 550.6131 86.375L550.6131 86.6875Q550.6131 89.1875 549.6287 90.328125Q548.64435 91.46875 546.66 91.5L546.4412 91.5L546.4412 90.59375L546.6756 90.59375Q548.01935 90.5625 548.7381 89.890625Q549.45685 89.21875 549.51935 87.75ZM547.8475 87.75Q548.39435 87.75 548.8475 87.421875Q549.3162 87.078125 549.535 86.59375L549.535 86.15625Q549.535 85.09375 549.0662 84.421875Q548.5975 83.75 547.89435 83.75Q547.1756 83.75 546.7381 84.296875Q546.3162 84.84375 546.3162 85.75Q546.3162 86.625 546.7225 87.1875Q547.14435 87.75 547.8475 87.75ZM557.7225 87.859375Q557.7225 89.765625 557.0662 90.703125Q556.4256 91.625 555.035 91.625Q553.6756 91.625 553.01935 90.71875Q552.3631 89.8125 552.33185 88.0L552.33185 86.5625Q552.33185 84.671875 552.9725 83.765625Q553.6287 82.84375 555.01935 82.84375Q556.39435 82.84375 557.0506 83.734375Q557.70685 84.609375 557.7225 86.453125L557.7225 87.859375ZM556.6287 86.375Q556.6287 85.0 556.2381 84.375Q555.8631 83.734375 555.01935 83.734375Q554.1912 83.734375 553.8006 84.375Q553.4256 85.0 553.4256 86.296875L553.4256 88.03125Q553.4256 89.40625 553.8162 90.078125Q554.2225 90.734375 555.035 90.734375Q555.83185 90.734375 556.2225 90.109375Q556.6131 89.484375 556.6287 88.15625L556.6287 86.375ZM559.26935 84.609375Q559.26935 83.84375 559.7537 83.34375Q560.2537 82.84375 561.01935 82.84375Q561.8006 82.84375 562.285 83.34375Q562.76935 83.84375 562.76935 84.640625L562.76935 85.0625Q562.76935 85.828125 562.26935 86.328125Q561.785 86.8125 561.035 86.8125Q560.26935 86.8125 559.76935 86.328125Q559.26935 85.828125 559.26935 85.015625L559.26935 84.609375ZM560.08185 85.0625Q560.08185 85.515625 560.33185 85.8125Q560.5975 86.109375 561.035 86.109375Q561.45685 86.109375 561.70685 85.828125Q561.95685 85.53125 561.95685 85.03125L561.95685 84.609375Q561.95685 84.15625 561.70685 83.859375Q561.45685 83.546875 561.01935 83.546875Q560.58185 83.546875 560.33185 83.859375Q560.08185 84.15625 560.08185 84.625L560.08185 85.0625ZM563.4256 89.40625Q563.4256 88.640625 563.91 88.15625Q564.41 87.65625 565.1756 87.65625Q565.9412 87.65625 566.4256 88.15625Q566.9256 88.640625 566.9256 89.453125L566.9256 89.859375Q566.9256 90.625 566.4412 91.125Q565.95685 91.625 565.1912 91.625Q564.4256 91.625 563.9256 91.140625Q563.4256 90.640625 563.4256 89.828125L563.4256 89.40625ZM564.2381 89.859375Q564.2381 90.328125 564.4881 90.625Q564.7537 90.921875 565.1912 90.921875Q565.6131 90.921875 565.8631 90.640625Q566.1131 90.34375 566.1131 89.84375L566.1131 89.40625Q566.1131 88.9375 565.8475 88.65625Q565.5975 88.359375 565.1756 88.359375Q564.7537 88.359375 564.4881 88.65625Q564.2381 88.9375 564.2381 89.4375L564.2381 89.859375ZM561.285 90.859375L560.66 90.46875L564.83185 83.796875L565.4412 84.1875L561.285 90.859375Z" fill-rule="nonzero"/><path stroke="#ffffff" stroke-width="3.0" stroke-linejoin="round" stroke-linecap="round" d="M549.51935 129.75Q549.1912 130.15625 548.70685 130.40625Q548.2381 130.64062 547.6756 130.64062Q546.9412 130.64062 546.39435 130.28125Q545.8475 129.92188 545.5506 129.26562Q545.2537 128.59375 545.2537 127.796875Q545.2537 126.953125 545.5662 126.265625Q545.89435 125.578125 546.4881 125.21875Q547.0975 124.84375 547.89435 124.84375Q549.16 124.84375 549.8787 125.796875Q550.6131 126.75 550.6131 128.375L550.6131 128.6875Q550.6131 131.1875 549.6287 132.32812Q548.64435 133.46875 546.66 133.5L546.4412 133.5L546.4412 132.59375L546.6756 132.59375Q548.01935 132.5625 548.7381 131.89062Q549.45685 131.21875 549.51935 129.75ZM547.8475 129.75Q548.39435 129.75 548.8475 129.42188Q549.3162 129.07812 549.535 128.59375L549.535 128.15625Q549.535 127.09375 549.0662 126.421875Q548.5975 125.75 547.89435 125.75Q547.1756 125.75 546.7381 126.296875Q546.3162 126.84375 546.3162 127.75Q546.3162 128.625 546.7225 129.1875Q547.14435 129.75 547.8475 129.75ZM557.7225 129.85938Q557.7225 131.76562 557.0662 132.70312Q556.4256 133.625 555.035 133.625Q553.6756 133.625 553.01935 132.71875Q552.3631 131.8125 552.33185 130.0L552.33185 128.5625Q552.33185 126.671875 552.9725 125.765625Q553.6287 124.84375 555.01935 124.84375Q556.39435 124.84375 557.0506 125.734375Q557.70685 126.609375 557.7225 128.45312L557.7225 129.85938ZM556.6287 128.375Q556.6287 127.0 556.2381 126.375Q555.8631 125.734375 555.01935 125.734375Q554.1912 125.734375 553.8006 126.375Q553.4256 127.0 553.4256 128.29688L553.4256 130.03125Q553.4256 131.40625 553.8162 132.07812Q554.2225 132.73438 555.035 132.73438Q555.83185 132.73438 556.2225 132.10938Q556.6131 131.48438 556.6287 130.15625L556.6287 128.375ZM559.26935 126.609375Q559.26935 125.84375 559.7537 125.34375Q560.2537 124.84375 561.01935 124.84375Q561.8006 124.84375 562.285 125.34375Q562.76935 125.84375 562.76935 126.640625L562.76935 127.0625Q562.76935 127.828125 562.26935 128.32812Q561.785 128.8125 561.035 128.8125Q560.26935 128.8125 559.76935 128.32812Q559.26935 127.828125 559.26935 127.015625L559.26935 126.609375ZM560.08185 127.0625Q560.08185 127.515625 560.33185 127.8125Q560.5975 128.10938 561.035 128.10938Q561.45685 128.10938 561.70685 127.828125Q561.95685 127.53125 561.95685 127.03125L561.95685 126.609375Q561.95685 126.15625 561.70685 125.859375Q561.45685 125.546875 561.01935 125.546875Q560.58185 125.546875 560.33185 125.859375Q560.08185 126.15625 560.08185 126.625L560.08185 127.0625ZM563.4256 131.40625Q563.4256 130.64062 563.91 130.15625Q564.41 129.65625 565.1756 129.65625Q565.9412 129.65625 566.4256 130.15625Q566.9256 130.64062 566.9256 131.45312L566.9256 131.85938Q566.9256 132.625 566.4412 133.125Q565.95685 133.625 565.1912 133.625Q564.4256 133.625 563.9256 133.14062Q563.4256 132.64062 563.4256 131.82812L563.4256 131.40625ZM564.2381 131.85938Q564.2381 132.32812 564.4881 132.625Q564.7537 132.92188 565.1912 132.92188Q565.6131 132.92188 565.8631 132.64062Q566.1131 132.34375 566.1131 131.84375L566.1131 131.40625Q566.1131 130.9375 565.8475 130.65625Q565.5975 130.35938 565.1756 130.35938Q564.7537 130.35938 564.4881 130.65625Q564.2381 130.9375 564.2381 131.4375L564.2381 131.85938ZM561.285 132.85938L560.66 132.46875L564.83185 125.796875L565.4412 126.1875L561.285 132.85938Z" fill-rule="nonzero"/><path fill="#ff0000" d="M549.51935 129.75Q549.1912 130.15625 548.70685 130.40625Q548.2381 130.64062 547.6756 130.64062Q546.9412 130.64062 546.39435 130.28125Q545.8475 129.92188 545.5506 129.26562Q545.2537 128.59375 545.2537 127.796875Q545.2537 126.953125 545.5662 126.265625Q545.89435 125.578125 546.4881 125.21875Q547.0975 124.84375 547.89435 124.84375Q549.16 124.84375 549.8787 125.796875Q550.6131 126.75 550.6131 128.375L550.6131 128.6875Q550.6131 131.1875 549.6287 132.32812Q548.64435 133.46875 546.66 133.5L546.4412 133.5L546.4412 132.59375L546.6756 132.59375Q548.01935 132.5625 548.7381 131.89062Q549.45685 131.21875 549.51935 129.75ZM547.8475 129.75Q548.39435 129.75 548.8475 129.42188Q549.3162 129.07812 549.535 128.59375L549.535 128.15625Q549.535 127.09375 549.0662 126.421875Q548.5975 125.75 547.89435 125.75Q547.1756 125.75 546.7381 126.296875Q546.3162 126.84375 546.3162 127.75Q546.3162 128.625 546.7225 129.1875Q547.14435 129.75 547.8475 129.75ZM557.7225 129.85938Q557.7225 131.76562 557.0662 132.70312Q556.4256 133.625 555.035 133.625Q553.6756 133.625 553.01935 132.71875Q552.3631 131.8125 552.33185 130.0L552.33185 128.5625Q552.33185 126.671875 552.9725 125.765625Q553.6287 124.84375 555.01935 124.84375Q556.39435 124.84375 557.0506 125.734375Q557.70685 126.609375 557.7225 128.45312L557.7225 129.85938ZM556.6287 128.375Q556.6287 127.0 556.2381 126.375Q555.8631 125.734375 555.01935 125.734375Q554.1912 125.734375 553.8006 126.375Q553.4256 127.0 553.4256 128.29688L553.4256 130.03125Q553.4256 131.40625 553.8162 132.07812Q554.2225 132.73438 555.035 132.73438Q555.83185 132.73438 556.2225 132.10938Q556.6131 131.48438 556.6287 130.15625L556.6287 128.375ZM559.26935 126.609375Q559.26935 125.84375 559.7537 125.34375Q560.2537 124.84375 561.01935 124.84375Q561.8006 124.84375 562.285 125.34375Q562.76935 125.84375 562.76935 126.640625L562.76935 127.0625Q562.76935 127.828125 562.26935 128.32812Q561.785 128.8125 561.035 128.8125Q560.26935 128.8125 559.76935 128.32812Q559.26935 127.828125 559.26935 127.015625L559.26935 126.609375ZM560.08185 127.0625Q560.08185 127.515625 560.33185 127.8125Q560.5975 128.10938 561.035 128.10938Q561.45685 128.10938 561.70685 127.828125Q561.95685 127.53125 561.95685 127.03125L561.95685 126.609375Q561.95685 126.15625 561.70685 125.859375Q561.45685 125.546875 561.01935 125.546875Q560.58185 125.546875 560.33185 125.859375Q560.08185 126.15625 560.08185 126.625L560.08185 127.0625ZM563.4256 131.40625Q563.4256 130.64062 563.91 130.15625Q564.41 129.65625 565.1756 129.65625Q565.9412 129.65625 566.4256 130.15625Q566.9256 130.64062 566.9256 131.45312L566.9256 131.85938Q566.9256 132.625 566.4412 133.125Q565.95685 133.625 565.1912 133.625Q564.4256 133.625 563.9256 133.14062Q563.4256 132.64062 563.4256 131.82812L563.4256 131.40625ZM564.2381 131.85938Q564.2381 132.32812 564.4881 132.625Q564.7537 132.92188 565.1912 132.92188Q565.6131 132.92188 565.8631 132.64062Q566.1131 132.34375 566.1131 131.84375L566.1131 131.40625Q566.1131 130.9375 565.8475 130.65625Q565.5975 130.35938 565.1756 130.35938Q564.7537 130.35938 564.4881 130.65625Q564.2381 130.9375 564.2381 131.4375L564.2381 131.85938ZM561.285 132.85938L560.66 132.46875L564.83185 125.796875L565.4412 126.1875L561.285 132.85938Z" fill-rule="nonzero"/><path stroke="#ffffff" stroke-width="3.0" stroke-linejoin="round" stroke-linecap="round" d="M549.51935 170.75Q549.1912 171.15625 548.70685 171.40625Q548.2381 171.64062 547.6756 171.64062Q546.9412 171.64062 546.39435 171.28125Q545.8475 170.92188 545.5506 170.26562Q545.2537 169.59375 545.2537 168.79688Q545.2537 167.95312 545.5662 167.26562Q545.89435 166.57812 546.4881 166.21875Q547.0975 165.84375 547.89435 165.84375Q549.16 165.84375 549.8787 166.79688Q550.6131 167.75 550.6131 169.375L550.6131 169.6875Q550.6131 172.1875 549.6287 173.32812Q548.64435 174.46875 546.66 174.5L546.4412 174.5L546.4412 173.59375L546.6756 173.59375Q548.01935 173.5625 548.7381 172.89062Q549.45685 172.21875 549.51935 170.75ZM547.8475 170.75Q548.39435 170.75 548.8475 170.42188Q549.3162 170.07812 549.535 169.59375L549.535 169.15625Q549.535 168.09375 549.0662 167.42188Q548.5975 166.75 547.89435 166.75Q547.1756 166.75 546.7381 167.29688Q546.3162 167.84375 546.3162 168.75Q546.3162 169.625 546.7225 170.1875Q547.14435 170.75 547.8475 170.75ZM557.7225 170.85938Q557.7225 172.76562 557.0662 173.70312Q556.4256 174.625 555.035 174.625Q553.6756 174.625 553.01935 173.71875Q552.3631 172.8125 552.33185 171.0L552.33185 169.5625Q552.33185 167.67188 552.9725 166.76562Q553.6287 165.84375 555.01935 165.84375Q556.39435 165.84375 557.0506 166.73438Q557.70685 167.60938 557.7225 169.45312L557.7225 170.85938ZM556.6287 169.375Q556.6287 168.0 556.2381 167.375Q555.8631 166.73438 555.01935 166.73438Q554.1912 166.73438 553.8006 167.375Q553.4256 168.0 553.4256 169.29688L553.4256 171.03125Q553.4256 172.40625 553.8162 173.07812Q554.2225 173.73438 555.035 173.73438Q555.83185 173.73438 556.2225 173.10938Q556.6131 172.48438 556.6287 171.15625L556.6287 169.375ZM559.26935 167.60938Q559.26935 166.84375 559.7537 166.34375Q560.2537 165.84375 561.01935 165.84375Q561.8006 165.84375 562.285 166.34375Q562.76935 166.84375 562.76935 167.64062L562.76935 168.0625Q562.76935 168.82812 562.26935 169.32812Q561.785 169.8125 561.035 169.8125Q560.26935 169.8125 559.76935 169.32812Q559.26935 168.82812 559.26935 168.01562L559.26935 167.60938ZM560.08185 168.0625Q560.08185 168.51562 560.33185 168.8125Q560.5975 169.10938 561.035 169.10938Q561.45685 169.10938 561.70685 168.82812Q561.95685 168.53125 561.95685 168.03125L561.95685 167.60938Q561.95685 167.15625 561.70685 166.85938Q561.45685 166.54688 561.01935 166.54688Q560.58185 166.54688 560.33185 166.85938Q560.08185 167.15625 560.08185 167.625L560.08185 168.0625ZM563.4256 172.40625Q563.4256 171.64062 563.91 171.15625Q564.41 170.65625 565.1756 170.65625Q565.9412 170.65625 566.4256 171.15625Q566.9256 171.64062 566.9256 172.45312L566.9256 172.85938Q566.9256 173.625 566.4412 174.125Q565.95685 174.625 565.1912 174.625Q564.4256 174.625 563.9256 174.14062Q563.4256 173.64062 563.4256 172.82812L563.4256 172.40625ZM564.2381 172.85938Q564.2381 173.32812 564.4881 173.625Q564.7537 173.92188 565.1912 173.92188Q565.6131 173.92188 565.8631 173.64062Q566.1131 173.34375 566.1131 172.84375L566.1131 172.40625Q566.1131 171.9375 565.8475 171.65625Q565.5975 171.35938 565.1756 171.35938Q564.7537 171.35938 564.4881 171.65625Q564.2381 171.9375 564.2381 172.4375L564.2381 172.85938ZM561.285 173.85938L560.66 173.46875L564.83185 166.79688L565.4412 167.1875L561.285 173.85938Z" fill-rule="nonzero"/><path fill="#0000ff" d="M549.51935 170.75Q549.1912 171.15625 548.70685 171.40625Q548.2381 171.64062 547.6756 171.64062Q546.9412 171.64062 546.39435 171.28125Q545.8475 170.92188 545.5506 170.26562Q545.2537 169.59375 545.2537 168.79688Q545.2537 167.95312 545.5662 167.26562Q545.89435 166.57812 546.4881 166.21875Q547.0975 165.84375 547.89435 165.84375Q549.16 165.84375 549.8787 166.79688Q550.6131 167.75 550.6131 169.375L550.6131 169.6875Q550.6131 172.1875 549.6287 173.32812Q548.64435 174.46875 546.66 174.5L546.4412 174.5L546.4412 173.59375L546.6756 173.59375Q548.01935 173.5625 548.7381 172.89062Q549.45685 172.21875 549.51935 170.75ZM547.8475 170.75Q548.39435 170.75 548.8475 170.42188Q549.3162 170.07812 549.535 169.59375L549.535 169.15625Q549.535 168.09375 549.0662 167.42188Q548.5975 166.75 547.89435 166.75Q547.1756 166.75 546.7381 167.29688Q546.3162 167.84375 546.3162 168.75Q546.3162 169.625 546.7225 170.1875Q547.14435 170.75 547.8475 170.75ZM557.7225 170.85938Q557.7225 172.76562 557.0662 173.70312Q556.4256 174.625 555.035 174.625Q553.6756 174.625 553.01935 173.71875Q552.3631 172.8125 552.33185 171.0L552.33185 169.5625Q552.33185 167.67188 552.9725 166.76562Q553.6287 165.84375 555.01935 165.84375Q556.39435 165.84375 557.0506 166.73438Q557.70685 167.60938 557.7225 169.45312L557.7225 170.85938ZM556.6287 169.375Q556.6287 168.0 556.2381 167.375Q555.8631 166.73438 555.01935 166.73438Q554.1912 166.73438 553.8006 167.375Q553.4256 168.0 553.4256 169.29688L553.4256 171.03125Q553.4256 172.40625 553.8162 173.07812Q554.2225 173.73438 555.035 173.73438Q555.83185 173.73438 556.2225 173.10938Q556.6131 172.48438 556.6287 171.15625L556.6287 169.375ZM559.26935 167.60938Q559.26935 166.84375 559.7537 166.34375Q560.2537 165.84375 561.01935 165.84375Q561.8006 165.84375 562.285 166.34375Q562.76935 166.84375 562.76935 167.64062L562.76935 168.0625Q562.76935 168.82812 562.26935 169.32812Q561.785 169.8125 561.035 169.8125Q560.26935 169.8125 559.76935 169.32812Q559.26935 168.82812 559.26935 168.01562L559.26935 167.60938ZM560.08185 168.0625Q560.08185 168.51562 560.33185 168.8125Q560.5975 169.10938 561.035 169.10938Q561.45685 169.10938 561.70685 168.82812Q561.95685 168.53125 561.95685 168.03125L561.95685 167.60938Q561.95685 167.15625 561.70685 166.85938Q561.45685 166.54688 561.01935 166.54688Q560.58185 166.54688 560.33185 166.85938Q560.08185 167.15625 560.08185 167.625L560.08185 168.0625ZM563.4256 172.40625Q563.4256 171.64062 563.91 171.15625Q564.41 170.65625 565.1756 170.65625Q565.9412 170.65625 566.4256 171.15625Q566.9256 171.64062 566.9256 172.45312L566.9256 172.85938Q566.9256 173.625 566.4412 174.125Q565.95685 174.625 565.1912 174.625Q564.4256 174.625 563.9256 174.14062Q563.4256 173.64062 563.4256 172.82812L563.4256 172.40625ZM564.2381 172.85938Q564.2381 173.32812 564.4881 173.625Q564.7537 173.92188 565.1912 173.92188Q565.6131 173.92188 565.8631 173.64062Q566.1131 173.34375 566.1131 172.84375L566.1131 172.40625Q566.1131 171.9375 565.8475 171.65625Q565.5975 171.35938 565.1756 171.35938Q564.7537 171.35938 564.4881 171.65625Q564.2381 171.9375 564.2381 172.4375L564.2381 172.85938ZM561.285 173.85938L560.66 173.46875L564.83185 166.79688L565.4412 167.1875L561.285 173.85938Z" fill-rule="nonzero"/><path stroke="#ffffff" stroke-width="3.0" stroke-linejoin="round" stroke-linecap="round" d="M452.29874 207.57812L448.7675 215.5L447.62686 215.5L451.1425 207.85938L446.5331 207.85938L446.5331 206.96875L452.29874 206.96875L452.29874 207.57812ZM459.1425 211.85938Q459.1425 213.76562 458.48624 214.70312Q457.8456 215.625 456.455 215.625Q455.0956 215.625 454.43936 214.71875Q453.7831 213.8125 453.75186 212.0L453.75186 210.5625Q453.75186 208.67188 454.3925 207.76562Q455.04874 206.84375 456.43936 206.84375Q457.81436 206.84375 458.4706 207.73438Q459.12686 208.60938 459.1425 210.45312L459.1425 211.85938ZM458.04874 210.375Q458.04874 209.0 457.6581 208.375Q457.2831 207.73438 456.43936 207.73438Q455.61124 207.73438 455.2206 208.375Q454.8456 209.0 454.8456 210.29688L454.8456 212.03125Q454.8456 213.40625 455.23624 214.07812Q455.6425 214.73438 456.455 214.73438Q457.25186 214.73438 457.6425 214.10938Q458.0331 213.48438 458.04874 212.15625L458.04874 210.375ZM460.68936 208.60938Q460.68936 207.84375 461.17374 207.34375Q461.67374 206.84375 462.43936 206.84375Q463.2206 206.84375 463.705 207.34375Q464.18936 207.84375 464.18936 208.64062L464.18936 209.0625Q464.18936 209.82812 463.68936 210.32812Q463.205 210.8125 462.455 210.8125Q461.68936 210.8125 461.18936 210.32812Q460.68936 209.82812 460.68936 209.01562L460.68936 208.60938ZM461.50186 209.0625Q461.50186 209.51562 461.75186 209.8125Q462.0175 210.10938 462.455 210.10938Q462.87686 210.10938 463.12686 209.82812Q463.37686 209.53125 463.37686 209.03125L463.37686 208.60938Q463.37686 208.15625 463.12686 207.85938Q462.87686 207.54688 462.43936 207.54688Q462.00186 207.54688 461.75186 207.85938Q461.50186 208.15625 461.50186 208.625L461.50186 209.0625ZM464.8456 213.40625Q464.8456 212.64062 465.33 212.15625Q465.83 211.65625 466.5956 211.65625Q467.36124 211.65625 467.8456 212.15625Q468.3456 212.64062 468.3456 213.45312L468.3456 213.85938Q468.3456 214.625 467.86124 215.125Q467.37686 215.625 466.61124 215.625Q465.8456 215.625 465.3456 215.14062Q464.8456 214.64062 464.8456 213.82812L464.8456 213.40625ZM465.6581 213.85938Q465.6581 214.32812 465.9081 214.625Q466.17374 214.92188 466.61124 214.92188Q467.0331 214.92188 467.2831 214.64062Q467.5331 214.34375 467.5331 213.84375L467.5331 213.40625Q467.5331 212.9375 467.2675 212.65625Q467.0175 212.35938 466.5956 212.35938Q466.17374 212.35938 465.9081 212.65625Q465.6581 212.9375 465.6581 213.4375L465.6581 213.85938ZM462.705 214.85938L462.08 214.46875L466.25186 207.79688L466.86124 208.1875L462.705 214.85938Z" fill-rule="nonzero"/><path fill="#00ffff" d="M452.29874 207.57812L448.7675 215.5L447.62686 215.5L451.1425 207.85938L446.5331 207.85938L446.5331 206.96875L452.29874 206.96875L452.29874 207.57812ZM459.1425 211.85938Q459.1425 213.76562 458.48624 214.70312Q457.8456 215.625 456.455 215.625Q455.0956 215.625 454.43936 214.71875Q453.7831 213.8125 453.75186 212.0L453.75186 210.5625Q453.75186 208.67188 454.3925 207.76562Q455.04874 206.84375 456.43936 206.84375Q457.81436 206.84375 458.4706 207.73438Q459.12686 208.60938 459.1425 210.45312L459.1425 211.85938ZM458.04874 210.375Q458.04874 209.0 457.6581 208.375Q457.2831 207.73438 456.43936 207.73438Q455.61124 207.73438 455.2206 208.375Q454.8456 209.0 454.8456 210.29688L454.8456 212.03125Q454.8456 213.40625 455.23624 214.07812Q455.6425 214.73438 456.455 214.73438Q457.25186 214.73438 457.6425 214.10938Q458.0331 213.48438 458.04874 212.15625L458.04874 210.375ZM460.68936 208.60938Q460.68936 207.84375 461.17374 207.34375Q461.67374 206.84375 462.43936 206.84375Q463.2206 206.84375 463.705 207.34375Q464.18936 207.84375 464.18936 208.64062L464.18936 209.0625Q464.18936 209.82812 463.68936 210.32812Q463.205 210.8125 462.455 210.8125Q461.68936 210.8125 461.18936 210.32812Q460.68936 209.82812 460.68936 209.01562L460.68936 208.60938ZM461.50186 209.0625Q461.50186 209.51562 461.75186 209.8125Q462.0175 210.10938 462.455 210.10938Q462.87686 210.10938 463.12686 209.82812Q463.37686 209.53125 463.37686 209.03125L463.37686 208.60938Q463.37686 208.15625 463.12686 207.85938Q462.87686 207.54688 462.43936 207.54688Q462.00186 207.54688 461.75186 207.85938Q461.50186 208.15625 461.50186 208.625L461.50186 209.0625ZM464.8456 213.40625Q464.8456 212.64062 465.33 212.15625Q465.83 211.65625 466.5956 211.65625Q467.36124 211.65625 467.8456 212.15625Q468.3456 212.64062 468.3456 213.45312L468.3456 213.85938Q468.3456 214.625 467.86124 215.125Q467.37686 215.625 466.61124 215.625Q465.8456 215.625 465.3456 215.14062Q464.8456 214.64062 464.8456 213.82812L464.8456 213.40625ZM465.6581 213.85938Q465.6581 214.32812 465.9081 214.625Q466.17374 214.92188 466.61124 214.92188Q467.0331 214.92188 467.2831 214.64062Q467.5331 214.34375 467.5331 213.84375L467.5331 213.40625Q467.5331 212.9375 467.2675 212.65625Q467.0175 212.35938 466.5956 212.35938Q466.17374 212.35938 465.9081 212.65625Q465.6581 212.9375 465.6581 213.4375L465.6581 213.85938ZM462.705 214.85938L462.08 214.46875L466.25186 207.79688L466.86124 208.1875L462.705 214.85938Z" fill-rule="nonzero"/><path stroke="#ffffff" stroke-width="3.0" stroke-linejoin="round" stroke-linecap="round" d="M401.75876 248.96875L401.75876 249.875L401.55563 249.875Q400.29 249.90625 399.54 250.64062Q398.79 251.35938 398.665 252.67188Q399.3525 251.90625 400.50876 251.90625Q401.61813 251.90625 402.29 252.6875Q402.96188 253.46875 402.96188 254.71875Q402.96188 256.03125 402.24313 256.82812Q401.52438 257.625 400.30563 257.625Q399.08688 257.625 398.32126 256.6875Q397.57126 255.73438 397.57126 254.25L397.57126 253.84375Q397.57126 251.48438 398.57126 250.23438Q399.57126 248.98438 401.55563 248.96875L401.75876 248.96875ZM400.33688 252.8125Q399.77438 252.8125 399.30563 253.14062Q398.83688 253.46875 398.64938 253.98438L398.64938 254.375Q398.64938 255.4375 399.11813 256.07812Q399.6025 256.71875 400.30563 256.71875Q401.04 256.71875 401.46188 256.1875Q401.88376 255.64062 401.88376 254.76562Q401.88376 253.89062 401.46188 253.35938Q401.04 252.8125 400.33688 252.8125ZM409.8525 253.85938Q409.8525 255.76562 409.19626 256.70312Q408.55563 257.625 407.165 257.625Q405.80563 257.625 405.14938 256.71875Q404.49313 255.8125 404.46188 254.0L404.46188 252.5625Q404.46188 250.67188 405.1025 249.76562Q405.75876 248.84375 407.14938 248.84375Q408.52438 248.84375 409.18063 249.73438Q409.83688 250.60938 409.8525 252.45312L409.8525 253.85938ZM408.75876 252.375Q408.75876 251.0 408.36813 250.375Q407.99313 249.73438 407.14938 249.73438Q406.32126 249.73438 405.93063 250.375Q405.55563 251.0 405.55563 252.29688L405.55563 254.03125Q405.55563 255.40625 405.94626 256.07812Q406.3525 256.73438 407.165 256.73438Q407.96188 256.73438 408.3525 256.10938Q408.74313 255.48438 408.75876 254.15625L408.75876 252.375ZM411.39938 250.60938Q411.39938 249.84375 411.88376 249.34375Q412.38376 248.84375 413.14938 248.84375Q413.93063 248.84375 414.415 249.34375Q414.89938 249.84375 414.89938 250.64062L414.89938 251.0625Q414.89938 251.82812 414.39938 252.32812Q413.915 252.8125 413.165 252.8125Q412.39938 252.8125 411.89938 252.32812Q411.39938 251.82812 411.39938 251.01562L411.39938 250.60938ZM412.21188 251.0625Q412.21188 251.51562 412.46188 251.8125Q412.7275 252.10938 413.165 252.10938Q413.58688 252.10938 413.83688 251.82812Q414.08688 251.53125 414.08688 251.03125L414.08688 250.60938Q414.08688 250.15625 413.83688 249.85938Q413.58688 249.54688 413.14938 249.54688Q412.71188 249.54688 412.46188 249.85938Q412.21188 250.15625 412.21188 250.625L412.21188 251.0625ZM415.55563 255.40625Q415.55563 254.64062 416.04 254.15625Q416.54 253.65625 417.30563 253.65625Q418.07126 253.65625 418.55563 254.15625Q419.05563 254.64062 419.05563 255.45312L419.05563 255.85938Q419.05563 256.625 418.57126 257.125Q418.08688 257.625 417.32126 257.625Q416.55563 257.625 416.05563 257.14062Q415.55563 256.64062 415.55563 255.82812L415.55563 255.40625ZM416.36813 255.85938Q416.36813 256.32812 416.61813 256.625Q416.88376 256.92188 417.32126 256.92188Q417.74313 256.92188 417.99313 256.64062Q418.24313 256.34375 418.24313 255.84375L418.24313 255.40625Q418.24313 254.9375 417.9775 254.65625Q417.7275 254.35938 417.30563 254.35938Q416.88376 254.35938 416.61813 254.65625Q416.36813 254.9375 416.36813 255.4375L416.36813 255.85938ZM413.415 256.85938L412.79 256.46875L416.96188 249.79688L417.57126 250.1875L413.415 256.85938Z" fill-rule="nonzero"/><path fill="#9900ff" d="M401.75876 248.96875L401.75876 249.875L401.55563 249.875Q400.29 249.90625 399.54 250.64062Q398.79 251.35938 398.665 252.67188Q399.3525 251.90625 400.50876 251.90625Q401.61813 251.90625 402.29 252.6875Q402.96188 253.46875 402.96188 254.71875Q402.96188 256.03125 402.24313 256.82812Q401.52438 257.625 400.30563 257.625Q399.08688 257.625 398.32126 256.6875Q397.57126 255.73438 397.57126 254.25L397.57126 253.84375Q397.57126 251.48438 398.57126 250.23438Q399.57126 248.98438 401.55563 248.96875L401.75876 248.96875ZM400.33688 252.8125Q399.77438 252.8125 399.30563 253.14062Q398.83688 253.46875 398.64938 253.98438L398.64938 254.375Q398.64938 255.4375 399.11813 256.07812Q399.6025 256.71875 400.30563 256.71875Q401.04 256.71875 401.46188 256.1875Q401.88376 255.64062 401.88376 254.76562Q401.88376 253.89062 401.46188 253.35938Q401.04 252.8125 400.33688 252.8125ZM409.8525 253.85938Q409.8525 255.76562 409.19626 256.70312Q408.55563 257.625 407.165 257.625Q405.80563 257.625 405.14938 256.71875Q404.49313 255.8125 404.46188 254.0L404.46188 252.5625Q404.46188 250.67188 405.1025 249.76562Q405.75876 248.84375 407.14938 248.84375Q408.52438 248.84375 409.18063 249.73438Q409.83688 250.60938 409.8525 252.45312L409.8525 253.85938ZM408.75876 252.375Q408.75876 251.0 408.36813 250.375Q407.99313 249.73438 407.14938 249.73438Q406.32126 249.73438 405.93063 250.375Q405.55563 251.0 405.55563 252.29688L405.55563 254.03125Q405.55563 255.40625 405.94626 256.07812Q406.3525 256.73438 407.165 256.73438Q407.96188 256.73438 408.3525 256.10938Q408.74313 255.48438 408.75876 254.15625L408.75876 252.375ZM411.39938 250.60938Q411.39938 249.84375 411.88376 249.34375Q412.38376 248.84375 413.14938 248.84375Q413.93063 248.84375 414.415 249.34375Q414.89938 249.84375 414.89938 250.64062L414.89938 251.0625Q414.89938 251.82812 414.39938 252.32812Q413.915 252.8125 413.165 252.8125Q412.39938 252.8125 411.89938 252.32812Q411.39938 251.82812 411.39938 251.01562L411.39938 250.60938ZM412.21188 251.0625Q412.21188 251.51562 412.46188 251.8125Q412.7275 252.10938 413.165 252.10938Q413.58688 252.10938 413.83688 251.82812Q414.08688 251.53125 414.08688 251.03125L414.08688 250.60938Q414.08688 250.15625 413.83688 249.85938Q413.58688 249.54688 413.14938 249.54688Q412.71188 249.54688 412.46188 249.85938Q412.21188 250.15625 412.21188 250.625L412.21188 251.0625ZM415.55563 255.40625Q415.55563 254.64062 416.04 254.15625Q416.54 253.65625 417.30563 253.65625Q418.07126 253.65625 418.55563 254.15625Q419.05563 254.64062 419.05563 255.45312L419.05563 255.85938Q419.05563 256.625 418.57126 257.125Q418.08688 257.625 417.32126 257.625Q416.55563 257.625 416.05563 257.14062Q415.55563 256.64062 415.55563 255.82812L415.55563 255.40625ZM416.36813 255.85938Q416.36813 256.32812 416.61813 256.625Q416.88376 256.92188 417.32126 256.92188Q417.74313 256.92188 417.99313 256.64062Q418.24313 256.34375 418.24313 255.84375L418.24313 255.40625Q418.24313 254.9375 417.9775 254.65625Q417.7275 254.35938 417.30563 254.35938Q416.88376 254.35938 416.61813 254.65625Q416.36813 254.9375 416.36813 255.4375L416.36813 255.85938ZM413.415 256.85938L412.79 256.46875L416.96188 249.79688L417.57126 250.1875L413.415 256.85938Z" fill-rule="nonzero"/><path stroke="#ffffff" stroke-width="3.0" stroke-linejoin="round" stroke-linecap="round" d="M348.70312 294.21875L349.14062 289.96875L353.51562 289.96875L353.51562 290.96875L350.0625 290.96875L349.79688 293.29688Q350.4375 292.92188 351.23438 292.92188Q352.39062 292.92188 353.07812 293.70312Q353.76562 294.46875 353.76562 295.78125Q353.76562 297.09375 353.04688 297.85938Q352.34375 298.625 351.0625 298.625Q349.9375 298.625 349.21875 298.0Q348.5 297.35938 348.40625 296.25L349.42188 296.25Q349.53125 296.98438 349.95312 297.35938Q350.375 297.73438 351.0625 297.73438Q351.8125 297.73438 352.25 297.21875Q352.6875 296.70312 352.6875 295.79688Q352.6875 294.9375 352.21875 294.42188Q351.75 293.90625 350.96875 293.90625Q350.26562 293.90625 349.85938 294.20312L349.57812 294.4375L348.70312 294.21875ZM360.5625 294.85938Q360.5625 296.76562 359.90625 297.70312Q359.26562 298.625 357.875 298.625Q356.51562 298.625 355.85938 297.71875Q355.20312 296.8125 355.17188 295.0L355.17188 293.5625Q355.17188 291.67188 355.8125 290.76562Q356.46875 289.84375 357.85938 289.84375Q359.23438 289.84375 359.89062 290.73438Q360.54688 291.60938 360.5625 293.45312L360.5625 294.85938ZM359.46875 293.375Q359.46875 292.0 359.07812 291.375Q358.70312 290.73438 357.85938 290.73438Q357.03125 290.73438 356.64062 291.375Q356.26562 292.0 356.26562 293.29688L356.26562 295.03125Q356.26562 296.40625 356.65625 297.07812Q357.0625 297.73438 357.875 297.73438Q358.67188 297.73438 359.0625 297.10938Q359.45312 296.48438 359.46875 295.15625L359.46875 293.375ZM362.10938 291.60938Q362.10938 290.84375 362.59375 290.34375Q363.09375 289.84375 363.85938 289.84375Q364.64062 289.84375 365.125 290.34375Q365.60938 290.84375 365.60938 291.64062L365.60938 292.0625Q365.60938 292.82812 365.10938 293.32812Q364.625 293.8125 363.875 293.8125Q363.10938 293.8125 362.60938 293.32812Q362.10938 292.82812 362.10938 292.01562L362.10938 291.60938ZM362.92188 292.0625Q362.92188 292.51562 363.17188 292.8125Q363.4375 293.10938 363.875 293.10938Q364.29688 293.10938 364.54688 292.82812Q364.79688 292.53125 364.79688 292.03125L364.79688 291.60938Q364.79688 291.15625 364.54688 290.85938Q364.29688 290.54688 363.85938 290.54688Q363.42188 290.54688 363.17188 290.85938Q362.92188 291.15625 362.92188 291.625L362.92188 292.0625ZM366.26562 296.40625Q366.26562 295.64062 366.75 295.15625Q367.25 294.65625 368.01562 294.65625Q368.78125 294.65625 369.26562 295.15625Q369.76562 295.64062 369.76562 296.45312L369.76562 296.85938Q369.76562 297.625 369.28125 298.125Q368.79688 298.625 368.03125 298.625Q367.26562 298.625 366.76562 298.14062Q366.26562 297.64062 366.26562 296.82812L366.26562 296.40625ZM367.07812 296.85938Q367.07812 297.32812 367.32812 297.625Q367.59375 297.92188 368.03125 297.92188Q368.45312 297.92188 368.70312 297.64062Q368.95312 297.34375 368.95312 296.84375L368.95312 296.40625Q368.95312 295.9375 368.6875 295.65625Q368.4375 295.35938 368.01562 295.35938Q367.59375 295.35938 367.32812 295.65625Q367.07812 295.9375 367.07812 296.4375L367.07812 296.85938ZM364.125 297.85938L363.5 297.46875L367.67188 290.79688L368.28125 291.1875L364.125 297.85938Z" fill-rule="nonzero"/><path fill="#6fa8dc" d="M348.70312 294.21875L349.14062 289.96875L353.51562 289.96875L353.51562 290.96875L350.0625 290.96875L349.79688 293.29688Q350.4375 292.92188 351.23438 292.92188Q352.39062 292.92188 353.07812 293.70312Q353.76562 294.46875 353.76562 295.78125Q353.76562 297.09375 353.04688 297.85938Q352.34375 298.625 351.0625 298.625Q349.9375 298.625 349.21875 298.0Q348.5 297.35938 348.40625 296.25L349.42188 296.25Q349.53125 296.98438 349.95312 297.35938Q350.375 297.73438 351.0625 297.73438Q351.8125 297.73438 352.25 297.21875Q352.6875 296.70312 352.6875 295.79688Q352.6875 294.9375 352.21875 294.42188Q351.75 293.90625 350.96875 293.90625Q350.26562 293.90625 349.85938 294.20312L349.57812 294.4375L348.70312 294.21875ZM360.5625 294.85938Q360.5625 296.76562 359.90625 297.70312Q359.26562 298.625 357.875 298.625Q356.51562 298.625 355.85938 297.71875Q355.20312 296.8125 355.17188 295.0L355.17188 293.5625Q355.17188 291.67188 355.8125 290.76562Q356.46875 289.84375 357.85938 289.84375Q359.23438 289.84375 359.89062 290.73438Q360.54688 291.60938 360.5625 293.45312L360.5625 294.85938ZM359.46875 293.375Q359.46875 292.0 359.07812 291.375Q358.70312 290.73438 357.85938 290.73438Q357.03125 290.73438 356.64062 291.375Q356.26562 292.0 356.26562 293.29688L356.26562 295.03125Q356.26562 296.40625 356.65625 297.07812Q357.0625 297.73438 357.875 297.73438Q358.67188 297.73438 359.0625 297.10938Q359.45312 296.48438 359.46875 295.15625L359.46875 293.375ZM362.10938 291.60938Q362.10938 290.84375 362.59375 290.34375Q363.09375 289.84375 363.85938 289.84375Q364.64062 289.84375 365.125 290.34375Q365.60938 290.84375 365.60938 291.64062L365.60938 292.0625Q365.60938 292.82812 365.10938 293.32812Q364.625 293.8125 363.875 293.8125Q363.10938 293.8125 362.60938 293.32812Q362.10938 292.82812 362.10938 292.01562L362.10938 291.60938ZM362.92188 292.0625Q362.92188 292.51562 363.17188 292.8125Q363.4375 293.10938 363.875 293.10938Q364.29688 293.10938 364.54688 292.82812Q364.79688 292.53125 364.79688 292.03125L364.79688 291.60938Q364.79688 291.15625 364.54688 290.85938Q364.29688 290.54688 363.85938 290.54688Q363.42188 290.54688 363.17188 290.85938Q362.92188 291.15625 362.92188 291.625L362.92188 292.0625ZM366.26562 296.40625Q366.26562 295.64062 366.75 295.15625Q367.25 294.65625 368.01562 294.65625Q368.78125 294.65625 369.26562 295.15625Q369.76562 295.64062 369.76562 296.45312L369.76562 296.85938Q369.76562 297.625 369.28125 298.125Q368.79688 298.625 368.03125 298.625Q367.26562 298.625 366.76562 298.14062Q366.26562 297.64062 366.26562 296.82812L366.26562 296.40625ZM367.07812 296.85938Q367.07812 297.32812 367.32812 297.625Q367.59375 297.92188 368.03125 297.92188Q368.45312 297.92188 368.70312 297.64062Q368.95312 297.34375 368.95312 296.84375L368.95312 296.40625Q368.95312 295.9375 368.6875 295.65625Q368.4375 295.35938 368.01562 295.35938Q367.59375 295.35938 367.32812 295.65625Q367.07812 295.9375 367.07812 296.4375L367.07812 296.85938ZM364.125 297.85938L363.5 297.46875L367.67188 290.79688L368.28125 291.1875L364.125 297.85938Z" fill-rule="nonzero"/><path fill="#757575" d="M45.175 47.006058L43.159374 47.006058L43.159374 50.459183L42.034374 50.459183L42.034374 41.927933L44.8625 41.927933Q46.3 41.927933 47.065624 42.584183Q47.846874 43.240433 47.846874 44.490433Q47.846874 45.287308 47.409374 45.881058Q46.9875 46.474808 46.221874 46.771683L48.221874 50.381058L48.221874 50.459183L47.01875 50.459183L45.175 47.006058ZM43.159374 46.084183L44.89375 46.084183Q45.7375 46.084183 46.221874 45.662308Q46.721874 45.224808 46.721874 44.490433Q46.721874 43.709183 46.253124 43.287308Q45.784374 42.865433 44.89375 42.849808L43.159374 42.849808L43.159374 46.084183ZM51.503124 50.584183Q50.20625 50.584183 49.39375 49.740433Q48.596874 48.881058 48.596874 47.459183L48.596874 47.271683Q48.596874 46.318558 48.95625 45.584183Q49.315624 44.834183 49.95625 44.427933Q50.6125 44.006058 51.3625 44.006058Q52.596874 44.006058 53.284374 44.818558Q53.971874 45.631058 53.971874 47.146683L53.971874 47.599808L49.675 47.599808Q49.70625 48.537308 50.221874 49.115433Q50.753124 49.693558 51.565624 49.693558Q52.128124 49.693558 52.51875 49.459183Q52.925 49.224808 53.2375 48.834183L53.89375 49.349808Q53.096874 50.584183 51.503124 50.584183ZM51.3625 44.896683Q50.70625 44.896683 50.253124 45.381058Q49.815624 45.849808 49.721874 46.709183L52.89375 46.709183L52.89375 46.631058Q52.846874 45.802933 52.440624 45.349808Q52.05 44.896683 51.3625 44.896683ZM58.784374 50.459183Q58.690624 50.271683 58.628124 49.787308Q57.878124 50.584183 56.83125 50.584183Q55.89375 50.584183 55.284374 50.052933Q54.690624 49.521683 54.690624 48.693558Q54.690624 47.709183 55.440624 47.162308Q56.190624 46.615433 57.565624 46.615433L58.6125 46.615433L58.6125 46.115433Q58.6125 45.552933 58.26875 45.224808Q57.940624 44.881058 57.26875 44.881058Q56.690624 44.881058 56.3 45.177933Q55.909374 45.459183 55.909374 45.881058L54.815624 45.881058Q54.815624 45.396683 55.14375 44.959183Q55.4875 44.521683 56.065624 44.271683Q56.64375 44.006058 57.33125 44.006058Q58.440624 44.006058 59.05 44.552933Q59.675 45.099808 59.70625 46.052933L59.70625 48.974808Q59.70625 49.849808 59.925 50.365433L59.925 50.459183L58.784374 50.459183ZM56.9875 49.631058Q57.503124 49.631058 57.95625 49.365433Q58.409374 49.099808 58.6125 48.677933L58.6125 47.381058L57.76875 47.381058Q55.76875 47.381058 55.76875 48.552933Q55.76875 49.052933 56.1125 49.349808Q56.45625 49.631058 56.9875 49.631058ZM64.40938 49.693558Q64.9875 49.693558 65.425 49.349808Q65.8625 48.990433 65.90938 48.459183L66.94063 48.459183Q66.90938 49.006058 66.55 49.506058Q66.20625 49.990433 65.62813 50.287308Q65.06563 50.584183 64.40938 50.584183Q63.1125 50.584183 62.346874 49.724808Q61.596874 48.849808 61.596874 47.349808L61.596874 47.162308Q61.596874 46.240433 61.925 45.521683Q62.26875 44.802933 62.89375 44.412308Q63.534374 44.006058 64.40938 44.006058Q65.47188 44.006058 66.175 44.646683Q66.89375 45.271683 66.94063 46.302933L65.90938 46.302933Q65.8625 45.677933 65.44063 45.287308Q65.01875 44.896683 64.40938 44.896683Q63.58125 44.896683 63.128124 45.490433Q62.675 46.084183 62.675 47.209183L62.675 47.412308Q62.675 48.506058 63.128124 49.099808Q63.58125 49.693558 64.40938 49.693558ZM69.34688 42.584183L69.34688 44.115433L70.51875 44.115433L70.51875 44.959183L69.34688 44.959183L69.34688 48.881058Q69.34688 49.271683 69.50313 49.459183Q69.65938 49.646683 70.03438 49.646683Q70.22188 49.646683 70.55 49.584183L70.55 50.459183Q70.12813 50.584183 69.72188 50.584183Q69.00313 50.584183 68.62813 50.146683Q68.25313 49.693558 68.25313 48.881058L68.25313 44.959183L67.09688 44.959183L67.09688 44.115433L68.25313 44.115433L68.25313 42.584183L69.34688 42.584183ZM71.89375 49.896683Q71.89375 49.615433 72.05 49.427933Q72.22188 49.240433 72.55 49.240433Q72.89375 49.240433 73.06563 49.427933Q73.2375 49.615433 73.2375 49.896683Q73.2375 50.162308 73.06563 50.349808Q72.89375 50.521683 72.55 50.521683Q72.22188 50.521683 72.05 50.349808Q71.89375 50.162308 71.89375 49.896683ZM75.9875 44.115433L75.9875 51.193558Q75.9875 53.021683 74.33125 53.021683Q73.97188 53.021683 73.675 52.912308L73.675 52.052933Q73.8625 52.099808 74.15938 52.099808Q74.51875 52.099808 74.70625 51.896683Q74.90938 51.709183 74.90938 51.209183L74.90938 44.115433L75.9875 44.115433ZM74.8 42.443558Q74.8 42.177933 74.95625 41.990433Q75.1125 41.802933 75.425 41.802933Q75.7375 41.802933 75.89375 41.990433Q76.06563 42.177933 76.06563 42.443558Q76.06563 42.693558 75.89375 42.881058Q75.7375 43.052933 75.425 43.052933Q75.1125 43.052933 74.95625 42.881058Q74.8 42.693558 74.8 42.443558ZM81.56563 48.771683Q81.56563 48.334183 81.22188 48.099808Q80.89375 47.849808 80.06563 47.677933Q79.25313 47.506058 78.76875 47.256058Q78.28438 47.006058 78.05 46.677933Q77.83125 46.334183 77.83125 45.865433Q77.83125 45.084183 78.4875 44.552933Q79.14375 44.006058 80.175 44.006058Q81.25313 44.006058 81.90938 44.568558Q82.58125 45.115433 82.58125 45.974808L81.50313 45.974808Q81.50313 45.537308 81.1125 45.224808Q80.7375 44.896683 80.175 44.896683Q79.58125 44.896683 79.2375 45.162308Q78.90938 45.412308 78.90938 45.818558Q78.90938 46.209183 79.22188 46.412308Q79.53438 46.615433 80.34688 46.802933Q81.15938 46.974808 81.65938 47.224808Q82.15938 47.474808 82.39375 47.834183Q82.64375 48.193558 82.64375 48.693558Q82.64375 49.552933 81.95625 50.068558Q81.28438 50.584183 80.20625 50.584183Q79.44063 50.584183 78.84688 50.318558Q78.26875 50.037308 77.94063 49.552933Q77.6125 49.068558 77.6125 48.506058L78.69063 48.506058Q78.72188 49.052933 79.12813 49.381058Q79.53438 49.693558 80.20625 49.693558Q80.81563 49.693558 81.19063 49.443558Q81.56563 49.193558 81.56563 48.771683Z" fill-rule="nonzero"/><path fill="#757575" d="M29.6125 83.27487L30.753124 83.27487L30.753124 89.32175Q30.753124 90.5405 30.003124 91.24362Q29.26875 91.93112 28.05 91.93112Q26.784374 91.93112 26.065624 91.27487Q25.3625 90.61862 25.3625 89.44675L26.4875 89.44675Q26.4875 90.18112 26.878124 90.603Q27.284374 91.00925 28.05 91.00925Q28.753124 91.00925 29.175 90.57175Q29.6125 90.11862 29.6125 89.33737L29.6125 83.27487ZM36.784374 91.80612Q36.690624 91.61862 36.628124 91.13425Q35.878124 91.93112 34.83125 91.93112Q33.89375 91.93112 33.284374 91.39987Q32.690624 90.86862 32.690624 90.0405Q32.690624 89.05612 33.440624 88.50925Q34.190624 87.96237 35.565624 87.96237L36.6125 87.96237L36.6125 87.46237Q36.6125 86.89987 36.26875 86.57175Q35.940624 86.228 35.26875 86.228Q34.690624 86.228 34.3 86.52487Q33.909374 86.80612 33.909374 87.228L32.815624 87.228Q32.815624 86.74362 33.14375 86.30612Q33.4875 85.86862 34.065624 85.61862Q34.64375 85.353 35.33125 85.353Q36.440624 85.353 37.05 85.89987Q37.675 86.44675 37.70625 87.39987L37.70625 90.32175Q37.70625 91.19675 37.925 91.71237L37.925 91.80612L36.784374 91.80612ZM34.9875 90.978Q35.503124 90.978 35.95625 90.71237Q36.409374 90.44675 36.6125 90.02487L36.6125 88.728L35.76875 88.728Q33.76875 88.728 33.76875 89.89987Q33.76875 90.39987 34.1125 90.69675Q34.45625 90.978 34.9875 90.978ZM41.95625 90.33737L43.534374 85.46237L44.64375 85.46237L42.3625 91.80612L41.534374 91.80612L39.2375 85.46237L40.346874 85.46237L41.95625 90.33737ZM49.784374 91.80612Q49.690624 91.61862 49.628124 91.13425Q48.878124 91.93112 47.83125 91.93112Q46.89375 91.93112 46.284374 91.39987Q45.690624 90.86862 45.690624 90.0405Q45.690624 89.05612 46.440624 88.50925Q47.190624 87.96237 48.565624 87.96237L49.6125 87.96237L49.6125 87.46237Q49.6125 86.89987 49.26875 86.57175Q48.940624 86.228 48.26875 86.228Q47.690624 86.228 47.3 86.52487Q46.909374 86.80612 46.909374 87.228L45.815624 87.228Q45.815624 86.74362 46.14375 86.30612Q46.4875 85.86862 47.065624 85.61862Q47.64375 85.353 48.33125 85.353Q49.440624 85.353 50.05 85.89987Q50.675 86.44675 50.70625 87.39987L50.70625 90.32175Q50.70625 91.19675 50.925 91.71237L50.925 91.80612L49.784374 91.80612ZM47.9875 90.978Q48.503124 90.978 48.95625 90.71237Q49.409374 90.44675 49.6125 90.02487L49.6125 88.728L48.76875 88.728Q46.76875 88.728 46.76875 89.89987Q46.76875 90.39987 47.1125 90.69675Q47.45625 90.978 47.9875 90.978ZM55.55 88.00925Q54.1125 87.58737 53.440624 86.978Q52.784374 86.36862 52.784374 85.478Q52.784374 84.478 53.58125 83.82175Q54.39375 83.14987 55.690624 83.14987Q56.565624 83.14987 57.253124 83.49362Q57.940624 83.83737 58.315624 84.43112Q58.70625 85.02487 58.70625 85.74362L57.565624 85.74362Q57.565624 84.96237 57.065624 84.52487Q56.58125 84.08737 55.690624 84.08737Q54.8625 84.08737 54.39375 84.46237Q53.925 84.82175 53.925 85.46237Q53.925 85.99362 54.3625 86.353Q54.815624 86.71237 55.878124 87.00925Q56.940624 87.30612 57.534374 87.6655Q58.14375 88.02487 58.425 88.50925Q58.721874 88.99362 58.721874 89.63425Q58.721874 90.68112 57.909374 91.30612Q57.096874 91.93112 55.753124 91.93112Q54.8625 91.93112 54.096874 91.58737Q53.346874 91.24362 52.925 90.6655Q52.51875 90.07175 52.51875 89.33737L53.64375 89.33737Q53.64375 90.103 54.221874 90.55612Q54.8 91.00925 55.753124 91.00925Q56.64375 91.00925 57.1125 90.64987Q57.58125 90.27487 57.58125 89.64987Q57.58125 89.02487 57.14375 88.68112Q56.70625 88.33737 55.55 88.00925ZM62.409374 91.0405Q62.9875 91.0405 63.425 90.69675Q63.8625 90.33737 63.909374 89.80612L64.94063 89.80612Q64.90938 90.353 64.55 90.853Q64.20625 91.33737 63.628124 91.63425Q63.065624 91.93112 62.409374 91.93112Q61.1125 91.93112 60.346874 91.07175Q59.596874 90.19675 59.596874 88.69675L59.596874 88.50925Q59.596874 87.58737 59.925 86.86862Q60.26875 86.14987 60.89375 85.75925Q61.534374 85.353 62.409374 85.353Q63.471874 85.353 64.175 85.99362Q64.89375 86.61862 64.94063 87.64987L63.909374 87.64987Q63.8625 87.02487 63.440624 86.63425Q63.01875 86.24362 62.409374 86.24362Q61.58125 86.24362 61.128124 86.83737Q60.675 87.43112 60.675 88.55612L60.675 88.75925Q60.675 89.853 61.128124 90.44675Q61.58125 91.0405 62.409374 91.0405ZM68.94063 86.43112Q68.69063 86.39987 68.40938 86.39987Q67.33125 86.39987 66.95625 87.30612L66.95625 91.80612L65.87813 91.80612L65.87813 85.46237L66.925 85.46237L66.94063 86.19675Q67.47188 85.353 68.45625 85.353Q68.76875 85.353 68.94063 85.43112L68.94063 86.43112ZM71.05 91.80612L69.97188 91.80612L69.97188 85.46237L71.05 85.46237L71.05 91.80612ZM69.87813 83.7905Q69.87813 83.52487 70.03438 83.33737Q70.20625 83.14987 70.51875 83.14987Q70.83125 83.14987 70.9875 83.33737Q71.15938 83.52487 71.15938 83.7905Q71.15938 84.0405 70.9875 84.228Q70.83125 84.39987 70.51875 84.39987Q70.20625 84.39987 70.03438 84.228Q69.87813 84.0405 69.87813 83.7905ZM78.22188 88.71237Q78.22188 90.14987 77.56563 91.0405Q76.90938 91.93112 75.76875 91.93112Q74.6125 91.93112 73.95625 91.19675L73.95625 94.24362L72.87813 94.24362L72.87813 85.46237L73.8625 85.46237L73.90938 86.1655Q74.58125 85.353 75.75313 85.353Q76.89375 85.353 77.55 86.21237Q78.22188 87.07175 78.22188 88.603L78.22188 88.71237ZM77.14375 88.58737Q77.14375 87.50925 76.675 86.89987Q76.22188 86.27487 75.425 86.27487Q74.44063 86.27487 73.95625 87.13425L73.95625 90.1655Q74.44063 91.0405 75.44063 91.0405Q76.22188 91.0405 76.675 90.43112Q77.14375 89.80612 77.14375 88.58737ZM81.34688 83.93112L81.34688 85.46237L82.51875 85.46237L82.51875 86.30612L81.34688 86.30612L81.34688 90.228Q81.34688 90.61862 81.50313 90.80612Q81.65938 90.99362 82.03438 90.99362Q82.22188 90.99362 82.55 90.93112L82.55 91.80612Q82.12813 91.93112 81.72188 91.93112Q81.00313 91.93112 80.62813 91.49362Q80.25313 91.0405 80.25313 90.228L80.25313 86.30612L79.09688 86.30612L79.09688 85.46237L80.25313 85.46237L80.25313 83.93112L81.34688 83.93112Z" fill-rule="nonzero"/><path fill="#757575" d="M58.596874 133.15306L57.471874 133.15306L57.471874 129.21556L53.159374 129.21556L53.159374 133.15306L52.034374 133.15306L52.034374 124.62181L53.159374 124.62181L53.159374 128.29369L57.471874 128.29369L57.471874 124.62181L58.596874 124.62181L58.596874 133.15306ZM66.94063 125.543686L64.19063 125.543686L64.19063 133.15306L63.08125 133.15306L63.08125 125.543686L60.33125 125.543686L60.33125 124.62181L66.94063 124.62181L66.94063 125.543686ZM69.4875 124.62181L72.28438 131.57494L75.06563 124.62181L76.53438 124.62181L76.53438 133.15306L75.40938 133.15306L75.40938 129.82494L75.51875 126.24681L72.70625 133.15306L71.84688 133.15306L69.05 126.262436L69.15938 129.82494L69.15938 133.15306L68.03438 133.15306L68.03438 124.62181L69.4875 124.62181ZM79.175 132.23119L83.22188 132.23119L83.22188 133.15306L78.03438 133.15306L78.03438 124.62181L79.175 124.62181L79.175 132.23119Z" fill-rule="nonzero"/><path fill="#757575" d="M68.31563 171.79688Q68.15938 173.14062 67.31563 173.89062Q66.47188 174.625 65.08125 174.625Q63.565624 174.625 62.659374 173.54688Q61.753124 172.45312 61.753124 170.625L61.753124 169.8125Q61.753124 168.625 62.175 167.71875Q62.596874 166.8125 63.378124 166.32812Q64.15938 165.84375 65.175 165.84375Q66.53438 165.84375 67.34688 166.60938Q68.175 167.375 68.31563 168.70312L67.19063 168.70312Q67.03438 167.6875 66.55 167.23438Q66.06563 166.78125 65.175 166.78125Q64.09688 166.78125 63.4875 167.57812Q62.878124 168.375 62.878124 169.84375L62.878124 170.67188Q62.878124 172.0625 63.45625 172.89062Q64.03438 173.70312 65.08125 173.70312Q66.01875 173.70312 66.51875 173.28125Q67.01875 172.84375 67.19063 171.79688L68.31563 171.79688ZM72.55 170.70312Q71.1125 170.28125 70.44063 169.67188Q69.78438 169.0625 69.78438 168.17188Q69.78438 167.17188 70.58125 166.51562Q71.39375 165.84375 72.69063 165.84375Q73.56563 165.84375 74.25313 166.1875Q74.94063 166.53125 75.31563 167.125Q75.70625 167.71875 75.70625 168.4375L74.56563 168.4375Q74.56563 167.65625 74.06563 167.21875Q73.58125 166.78125 72.69063 166.78125Q71.8625 166.78125 71.39375 167.15625Q70.925 167.51562 70.925 168.15625Q70.925 168.6875 71.3625 169.04688Q71.81563 169.40625 72.87813 169.70312Q73.94063 170.0 74.53438 170.35938Q75.14375 170.71875 75.425 171.20312Q75.72188 171.6875 75.72188 172.32812Q75.72188 173.375 74.90938 174.0Q74.09688 174.625 72.75313 174.625Q71.8625 174.625 71.09688 174.28125Q70.34688 173.9375 69.925 173.35938Q69.51875 172.76562 69.51875 172.03125L70.64375 172.03125Q70.64375 172.79688 71.22188 173.25Q71.8 173.70312 72.75313 173.70312Q73.64375 173.70312 74.1125 173.34375Q74.58125 172.96875 74.58125 172.34375Q74.58125 171.71875 74.14375 171.375Q73.70625 171.03125 72.55 170.70312ZM79.55 170.70312Q78.1125 170.28125 77.44063 169.67188Q76.78438 169.0625 76.78438 168.17188Q76.78438 167.17188 77.58125 166.51562Q78.39375 165.84375 79.69063 165.84375Q80.56563 165.84375 81.25313 166.1875Q81.94063 166.53125 82.31563 167.125Q82.70625 167.71875 82.70625 168.4375L81.56563 168.4375Q81.56563 167.65625 81.06563 167.21875Q80.58125 166.78125 79.69063 166.78125Q78.8625 166.78125 78.39375 167.15625Q77.925 167.51562 77.925 168.15625Q77.925 168.6875 78.3625 169.04688Q78.81563 169.40625 79.87813 169.70312Q80.94063 170.0 81.53438 170.35938Q82.14375 170.71875 82.425 171.20312Q82.72188 171.6875 82.72188 172.32812Q82.72188 173.375 81.90938 174.0Q81.09688 174.625 79.75313 174.625Q78.8625 174.625 78.09688 174.28125Q77.34688 173.9375 76.925 173.35938Q76.51875 172.76562 76.51875 172.03125L77.64375 172.03125Q77.64375 172.79688 78.22188 173.25Q78.8 173.70312 79.75313 173.70312Q80.64375 173.70312 81.1125 173.34375Q81.58125 172.96875 81.58125 172.34375Q81.58125 171.71875 81.14375 171.375Q80.70625 171.03125 79.55 170.70312Z" fill-rule="nonzero"/><path fill="#757575" d="M25.346874 214.72194Q24.909374 215.34694 24.128124 215.65944Q23.346874 215.97194 22.315624 215.97194Q21.284374 215.97194 20.471874 215.48756Q19.659374 214.98756 19.221874 214.08131Q18.784374 213.17506 18.76875 211.98756L18.76875 211.25319Q18.76875 209.31569 19.659374 208.25319Q20.565624 207.19069 22.190624 207.19069Q23.534374 207.19069 24.346874 207.87819Q25.159374 208.56569 25.346874 209.81569L24.221874 209.81569Q23.89375 208.12819 22.20625 208.12819Q21.065624 208.12819 20.4875 208.92506Q19.909374 209.70631 19.89375 211.22194L19.89375 211.90944Q19.89375 213.34694 20.55 214.20631Q21.20625 215.05006 22.33125 215.05006Q22.95625 215.05006 23.425 214.90944Q23.909374 214.76881 24.221874 214.42506L24.221874 212.51881L22.253124 212.51881L22.253124 211.59694L25.346874 211.59694L25.346874 214.72194ZM26.58125 212.61256Q26.58125 211.69069 26.940624 210.94069Q27.315624 210.19069 27.971874 209.80006Q28.628124 209.39381 29.45625 209.39381Q30.753124 209.39381 31.55 210.28444Q32.3625 211.17506 32.3625 212.67506L32.3625 212.75319Q32.3625 213.67506 32.003124 214.40944Q31.64375 215.14381 30.9875 215.56569Q30.33125 215.97194 29.471874 215.97194Q28.190624 215.97194 27.378124 215.08131Q26.58125 214.17506 26.58125 212.69069L26.58125 212.61256ZM27.675 212.75319Q27.675 213.80006 28.159374 214.44069Q28.659374 215.08131 29.471874 215.08131Q30.3 215.08131 30.784374 214.44069Q31.26875 213.78444 31.26875 212.61256Q31.26875 211.58131 30.76875 210.94069Q30.284374 210.28444 29.45625 210.28444Q28.659374 210.28444 28.159374 210.92506Q27.675 211.55006 27.675 212.75319ZM35.05 215.84694L33.971874 215.84694L33.971874 206.84694L35.05 206.84694L35.05 215.84694ZM40.784374 215.84694Q40.690624 215.65944 40.628124 215.17506Q39.878124 215.97194 38.83125 215.97194Q37.89375 215.97194 37.284374 215.44069Q36.690624 214.90944 36.690624 214.08131Q36.690624 213.09694 37.440624 212.55006Q38.190624 212.00319 39.565624 212.00319L40.6125 212.00319L40.6125 211.50319Q40.6125 210.94069 40.26875 210.61256Q39.940624 210.26881 39.26875 210.26881Q38.690624 210.26881 38.3 210.56569Q37.909374 210.84694 37.909374 211.26881L36.815624 211.26881Q36.815624 210.78444 37.14375 210.34694Q37.4875 209.90944 38.065624 209.65944Q38.64375 209.39381 39.33125 209.39381Q40.440624 209.39381 41.05 209.94069Q41.675 210.48756 41.70625 211.44069L41.70625 214.36256Q41.70625 215.23756 41.925 215.75319L41.925 215.84694L40.784374 215.84694ZM38.9875 215.01881Q39.503124 215.01881 39.95625 214.75319Q40.409374 214.48756 40.6125 214.06569L40.6125 212.76881L39.76875 212.76881Q37.76875 212.76881 37.76875 213.94069Q37.76875 214.44069 38.1125 214.73756Q38.45625 215.01881 38.9875 215.01881ZM44.89375 209.50319L44.925 210.30006Q45.659374 209.39381 46.83125 209.39381Q48.846874 209.39381 48.8625 211.65944L48.8625 215.84694L47.76875 215.84694L47.76875 211.64381Q47.76875 210.97194 47.45625 210.64381Q47.159374 210.31569 46.503124 210.31569Q45.971874 210.31569 45.565624 210.59694Q45.175 210.87819 44.95625 211.33131L44.95625 215.84694L43.878124 215.84694L43.878124 209.50319L44.89375 209.50319ZM50.6125 212.62819Q50.6125 211.14381 51.3 210.26881Q51.9875 209.39381 53.1125 209.39381Q54.26875 209.39381 54.925 210.20631L54.971874 209.50319L55.971874 209.50319L55.971874 215.69069Q55.971874 216.92506 55.2375 217.62819Q54.503124 218.34694 53.284374 218.34694Q52.596874 218.34694 51.940624 218.05006Q51.284374 217.75319 50.940624 217.25319L51.503124 216.59694Q52.190624 217.45631 53.20625 217.45631Q53.9875 217.45631 54.425 217.00319Q54.878124 216.56569 54.878124 215.75319L54.878124 215.20631Q54.221874 215.97194 53.096874 215.97194Q51.9875 215.97194 51.3 215.08131Q50.6125 214.17506 50.6125 212.62819ZM51.70625 212.75319Q51.70625 213.81569 52.14375 214.44069Q52.58125 215.05006 53.378124 215.05006Q54.39375 215.05006 54.878124 214.11256L54.878124 211.22194Q54.378124 210.31569 53.378124 210.31569Q52.596874 210.31569 52.14375 210.92506Q51.70625 211.53444 51.70625 212.75319ZM60.83125 212.37819Q60.83125 211.06569 61.175 209.84694Q61.534374 208.62819 62.2375 207.62819Q62.940624 206.62819 63.70625 206.22194L63.925 206.94069Q63.065624 207.59694 62.51875 208.94069Q61.971874 210.28444 61.925 211.95631L61.909374 212.45631Q61.909374 214.72194 62.7375 216.37819Q63.2375 217.37819 63.925 217.94069L63.70625 218.59694Q62.925 218.17506 62.20625 217.14381Q60.83125 215.15944 60.83125 212.37819ZM71.34688 214.72194Q70.90938 215.34694 70.12813 215.65944Q69.34688 215.97194 68.31563 215.97194Q67.28438 215.97194 66.47188 215.48756Q65.65938 214.98756 65.22188 214.08131Q64.78438 213.17506 64.76875 211.98756L64.76875 211.25319Q64.76875 209.31569 65.65938 208.25319Q66.56563 207.19069 68.19063 207.19069Q69.53438 207.19069 70.34688 207.87819Q71.15938 208.56569 71.34688 209.81569L70.22188 209.81569Q69.89375 208.12819 68.20625 208.12819Q67.06563 208.12819 66.4875 208.92506Q65.90938 209.70631 65.89375 211.22194L65.89375 211.90944Q65.89375 213.34694 66.55 214.20631Q67.20625 215.05006 68.33125 215.05006Q68.95625 215.05006 69.425 214.90944Q69.90938 214.76881 70.22188 214.42506L70.22188 212.51881L68.25313 212.51881L68.25313 211.59694L71.34688 211.59694L71.34688 214.72194ZM72.58125 212.61256Q72.58125 211.69069 72.94063 210.94069Q73.31563 210.19069 73.97188 209.80006Q74.62813 209.39381 75.45625 209.39381Q76.75313 209.39381 77.55 210.28444Q78.3625 211.17506 78.3625 212.67506L78.3625 212.75319Q78.3625 213.67506 78.00313 214.40944Q77.64375 215.14381 76.9875 215.56569Q76.33125 215.97194 75.47188 215.97194Q74.19063 215.97194 73.37813 215.08131Q72.58125 214.17506 72.58125 212.69069L72.58125 212.61256ZM73.675 212.75319Q73.675 213.80006 74.15938 214.44069Q74.65938 215.08131 75.47188 215.08131Q76.3 215.08131 76.78438 214.44069Q77.26875 213.78444 77.26875 212.61256Q77.26875 211.58131 76.76875 210.94069Q76.28438 210.28444 75.45625 210.28444Q74.65938 210.28444 74.15938 210.92506Q73.675 211.55006 73.675 212.75319ZM82.37813 212.44069Q82.37813 213.75319 82.03438 214.95631Q81.69063 216.14381 80.97188 217.15944Q80.26875 218.17506 79.50313 218.59694L79.26875 217.94069Q80.175 217.25319 80.72188 215.80006Q81.26875 214.33131 81.28438 212.56569L81.28438 212.37819Q81.28438 211.14381 81.01875 210.08131Q80.76875 209.01881 80.3 208.19069Q79.84688 207.34694 79.26875 206.87819L79.50313 206.22194Q80.26875 206.64381 80.97188 207.64381Q81.675 208.64381 82.01875 209.86256Q82.37813 211.06569 82.37813 212.44069Z" fill-rule="nonzero"/><path fill="#757575" d="M65.55 253.397Q64.1125 252.97513 63.440624 252.36575Q62.784374 251.75638 62.784374 250.86575Q62.784374 249.86575 63.58125 249.2095Q64.39375 248.53763 65.69063 248.53763Q66.56563 248.53763 67.25313 248.88138Q67.94063 249.22513 68.31563 249.81888Q68.70625 250.41263 68.70625 251.13138L67.56563 251.13138Q67.56563 250.35013 67.06563 249.91263Q66.58125 249.47513 65.69063 249.47513Q64.8625 249.47513 64.39375 249.85013Q63.925 250.2095 63.925 250.85013Q63.925 251.38138 64.3625 251.74075Q64.81563 252.10013 65.87813 252.397Q66.94063 252.69388 67.53438 253.05325Q68.14375 253.41263 68.425 253.897Q68.72188 254.38138 68.72188 255.022Q68.72188 256.06888 67.90938 256.69388Q67.09688 257.31888 65.75313 257.31888Q64.8625 257.31888 64.09688 256.97513Q63.346874 256.63138 62.925 256.05325Q62.51875 255.4595 62.51875 254.72513L63.64375 254.72513Q63.64375 255.49075 64.22188 255.94388Q64.8 256.397 65.75313 256.397Q66.64375 256.397 67.1125 256.03763Q67.58125 255.66263 67.58125 255.03763Q67.58125 254.41263 67.14375 254.06888Q66.70625 253.72513 65.55 253.397ZM76.55 253.2095Q76.55 254.44388 76.15938 255.3345Q75.76875 256.22513 75.06563 256.72513L76.58125 257.92825L75.81563 258.63138L74.01875 257.2095Q73.59688 257.31888 73.12813 257.31888Q72.12813 257.31888 71.34688 256.81888Q70.56563 256.31888 70.12813 255.41263Q69.70625 254.49075 69.69063 253.272L69.69063 252.66263Q69.69063 251.42825 70.1125 250.49075Q70.55 249.55325 71.33125 249.05325Q72.1125 248.53763 73.1125 248.53763Q74.14375 248.53763 74.925 249.03763Q75.70625 249.53763 76.12813 250.47513Q76.55 251.41263 76.55 252.66263L76.55 253.2095ZM75.425 252.647Q75.425 251.147 74.83125 250.3345Q74.2375 249.50638 73.1125 249.50638Q72.05 249.50638 71.44063 250.31888Q70.83125 251.13138 70.81563 252.56888L70.81563 253.2095Q70.81563 254.66263 71.425 255.50638Q72.03438 256.35013 73.12813 256.35013Q74.22188 256.35013 74.81563 255.56888Q75.40938 254.772 75.425 253.28763L75.425 252.647ZM79.175 256.272L83.22188 256.272L83.22188 257.19388L78.03438 257.19388L78.03438 248.66263L79.175 248.66263L79.175 256.272Z" fill-rule="nonzero"/><path fill="#757575" d="M62.753124 296.30643L59.175 296.30643L58.378124 298.5408L57.221874 298.5408L60.471874 290.00955L61.45625 290.00955L64.72188 298.5408L63.565624 298.5408L62.753124 296.30643ZM59.51875 295.38455L62.425 295.38455L60.971874 291.40018L59.51875 295.38455ZM67.87813 295.8533L68.05 296.9783L68.28438 295.96268L69.97188 290.00955L70.925 290.00955L72.56563 295.96268L72.8 296.99393L72.9875 295.83768L74.31563 290.00955L75.44063 290.00955L73.37813 298.5408L72.34688 298.5408L70.58125 292.32205L70.45625 291.6658L70.31563 292.32205L68.50313 298.5408L67.47188 298.5408L65.40938 290.00955L66.53438 290.00955L67.87813 295.8533ZM79.55 294.74393Q78.1125 294.32205 77.44063 293.71268Q76.78438 293.1033 76.78438 292.21268Q76.78438 291.21268 77.58125 290.55643Q78.39375 289.88455 79.69063 289.88455Q80.56563 289.88455 81.25313 290.2283Q81.94063 290.57205 82.31563 291.1658Q82.70625 291.75955 82.70625 292.4783L81.56563 292.4783Q81.56563 291.69705 81.06563 291.25955Q80.58125 290.82205 79.69063 290.82205Q78.8625 290.82205 78.39375 291.19705Q77.925 291.55643 77.925 292.19705Q77.925 292.7283 78.3625 293.08768Q78.81563 293.44705 79.87813 293.74393Q80.94063 294.0408 81.53438 294.40018Q82.14375 294.75955 82.425 295.24393Q82.72188 295.7283 82.72188 296.36893Q82.72188 297.4158 81.90938 298.0408Q81.09688 298.6658 79.75313 298.6658Q78.8625 298.6658 78.09688 298.32205Q77.34688 297.9783 76.925 297.40018Q76.51875 296.80643 76.51875 296.07205L77.64375 296.07205Q77.64375 296.83768 78.22188 297.2908Q78.8 297.74393 79.75313 297.74393Q80.64375 297.74393 81.1125 297.38455Q81.58125 297.00955 81.58125 296.38455Q81.58125 295.75955 81.14375 295.4158Q80.70625 295.07205 79.55 294.74393Z" fill-rule="nonzero"/><path fill="#757575" d="M87.1125 336.3094Q87.1125 338.21564 86.45625 339.15314Q85.81563 340.075 84.425 340.075Q83.06563 340.075 82.40938 339.16876Q81.75313 338.2625 81.72188 336.45L81.72188 335.0125Q81.72188 333.1219 82.3625 332.21564Q83.01875 331.29376 84.40938 331.29376Q85.78438 331.29376 86.44063 332.1844Q87.09688 333.0594 87.1125 334.90314L87.1125 336.3094ZM86.01875 334.825Q86.01875 333.45 85.62813 332.825Q85.25313 332.1844 84.40938 332.1844Q83.58125 332.1844 83.19063 332.825Q82.81563 333.45 82.81563 334.7469L82.81563 336.48126Q82.81563 337.85626 83.20625 338.52814Q83.6125 339.1844 84.425 339.1844Q85.22188 339.1844 85.6125 338.5594Q86.00313 337.9344 86.01875 336.60626L86.01875 334.825ZM88.65938 333.0594Q88.65938 332.29376 89.14375 331.79376Q89.64375 331.29376 90.40938 331.29376Q91.19063 331.29376 91.675 331.79376Q92.15938 332.29376 92.15938 333.09064L92.15938 333.5125Q92.15938 334.27814 91.65938 334.77814Q91.175 335.2625 90.425 335.2625Q89.65938 335.2625 89.15938 334.77814Q88.65938 334.27814 88.65938 333.46564L88.65938 333.0594ZM89.47188 333.5125Q89.47188 333.96564 89.72188 334.2625Q89.9875 334.5594 90.425 334.5594Q90.84688 334.5594 91.09688 334.27814Q91.34688 333.98126 91.34688 333.48126L91.34688 333.0594Q91.34688 332.60626 91.09688 332.3094Q90.84688 331.9969 90.40938 331.9969Q89.97188 331.9969 89.72188 332.3094Q89.47188 332.60626 89.47188 333.075L89.47188 333.5125ZM92.81563 337.85626Q92.81563 337.09064 93.3 336.60626Q93.8 336.10626 94.56563 336.10626Q95.33125 336.10626 95.81563 336.60626Q96.31563 337.09064 96.31563 337.90314L96.31563 338.3094Q96.31563 339.075 95.83125 339.575Q95.34688 340.075 94.58125 340.075Q93.81563 340.075 93.31563 339.59064Q92.81563 339.09064 92.81563 338.27814L92.81563 337.85626ZM93.62813 338.3094Q93.62813 338.77814 93.87813 339.075Q94.14375 339.3719 94.58125 339.3719Q95.00313 339.3719 95.25313 339.09064Q95.50313 338.79376 95.50313 338.29376L95.50313 337.85626Q95.50313 337.3875 95.2375 337.10626Q94.9875 336.8094 94.56563 336.8094Q94.14375 336.8094 93.87813 337.10626Q93.62813 337.3875 93.62813 337.8875L93.62813 338.3094ZM90.675 339.3094L90.05 338.91876L94.22188 332.2469L94.83125 332.6375L90.675 339.3094Z" fill-rule="nonzero"/><path fill="#757575" d="M207.07187 339.95L201.47812 339.95L201.47812 339.16876L204.43124 335.8875Q205.0875 335.1375 205.3375 334.6844Q205.5875 334.21564 205.5875 333.71564Q205.5875 333.04376 205.18124 332.6219Q204.79062 332.1844 204.10312 332.1844Q203.30624 332.1844 202.85312 332.65314Q202.4 333.10626 202.4 333.9344L201.32187 333.9344Q201.32187 332.7469 202.07187 332.02814Q202.8375 331.29376 204.10312 331.29376Q205.30624 331.29376 205.99374 331.91876Q206.68124 332.54376 206.68124 333.59064Q206.68124 334.84064 205.07187 336.59064L202.79062 339.0594L207.07187 339.0594L207.07187 339.95ZM208.97812 335.66876L209.41562 331.41876L213.79062 331.41876L213.79062 332.41876L210.3375 332.41876L210.07187 334.7469Q210.7125 334.3719 211.50937 334.3719Q212.66562 334.3719 213.35312 335.15314Q214.04062 335.91876 214.04062 337.23126Q214.04062 338.54376 213.32187 339.3094Q212.61874 340.075 211.3375 340.075Q210.2125 340.075 209.49374 339.45Q208.775 338.8094 208.68124 337.7L209.69687 337.7Q209.80624 338.4344 210.22812 338.8094Q210.65 339.1844 211.3375 339.1844Q212.0875 339.1844 212.525 338.66876Q212.9625 338.15314 212.9625 337.2469Q212.9625 336.3875 212.49374 335.8719Q212.025 335.35626 211.24374 335.35626Q210.54062 335.35626 210.13437 335.65314L209.85312 335.8875L208.97812 335.66876ZM215.38437 333.0594Q215.38437 332.29376 215.86874 331.79376Q216.36874 331.29376 217.13437 331.29376Q217.91562 331.29376 218.4 331.79376Q218.88437 332.29376 218.88437 333.09064L218.88437 333.5125Q218.88437 334.27814 218.38437 334.77814Q217.9 335.2625 217.15 335.2625Q216.38437 335.2625 215.88437 334.77814Q215.38437 334.27814 215.38437 333.46564L215.38437 333.0594ZM216.19687 333.5125Q216.19687 333.96564 216.44687 334.2625Q216.7125 334.5594 217.15 334.5594Q217.57187 334.5594 217.82187 334.27814Q218.07187 333.98126 218.07187 333.48126L218.07187 333.0594Q218.07187 332.60626 217.82187 332.3094Q217.57187 331.9969 217.13437 331.9969Q216.69687 331.9969 216.44687 332.3094Q216.19687 332.60626 216.19687 333.075L216.19687 333.5125ZM219.54062 337.85626Q219.54062 337.09064 220.025 336.60626Q220.525 336.10626 221.29062 336.10626Q222.05624 336.10626 222.54062 336.60626Q223.04062 337.09064 223.04062 337.90314L223.04062 338.3094Q223.04062 339.075 222.55624 339.575Q222.07187 340.075 221.30624 340.075Q220.54062 340.075 220.04062 339.59064Q219.54062 339.09064 219.54062 338.27814L219.54062 337.85626ZM220.35312 338.3094Q220.35312 338.77814 220.60312 339.075Q220.86874 339.3719 221.30624 339.3719Q221.72812 339.3719 221.97812 339.09064Q222.22812 338.79376 222.22812 338.29376L222.22812 337.85626Q222.22812 337.3875 221.9625 337.10626Q221.7125 336.8094 221.29062 336.8094Q220.86874 336.8094 220.60312 337.10626Q220.35312 337.3875 220.35312 337.8875L220.35312 338.3094ZM217.4 339.3094L216.775 338.91876L220.94687 332.2469L221.55624 332.6375L217.4 339.3094Z" fill-rule="nonzero"/><path fill="#757575" d="M325.20312 335.66876L325.64062 331.41876L330.01562 331.41876L330.01562 332.41876L326.5625 332.41876L326.29688 334.7469Q326.9375 334.3719 327.73438 334.3719Q328.89062 334.3719 329.57812 335.15314Q330.26562 335.91876 330.26562 337.23126Q330.26562 338.54376 329.54688 339.3094Q328.84375 340.075 327.5625 340.075Q326.4375 340.075 325.71875 339.45Q325.0 338.8094 324.90625 337.7L325.92188 337.7Q326.03125 338.4344 326.45312 338.8094Q326.875 339.1844 327.5625 339.1844Q328.3125 339.1844 328.75 338.66876Q329.1875 338.15314 329.1875 337.2469Q329.1875 336.3875 328.71875 335.8719Q328.25 335.35626 327.46875 335.35626Q326.76562 335.35626 326.35938 335.65314L326.07812 335.8875L325.20312 335.66876ZM337.0625 336.3094Q337.0625 338.21564 336.40625 339.15314Q335.76562 340.075 334.375 340.075Q333.01562 340.075 332.35938 339.16876Q331.70312 338.2625 331.67188 336.45L331.67188 335.0125Q331.67188 333.1219 332.3125 332.21564Q332.96875 331.29376 334.35938 331.29376Q335.73438 331.29376 336.39062 332.1844Q337.04688 333.0594 337.0625 334.90314L337.0625 336.3094ZM335.96875 334.825Q335.96875 333.45 335.57812 332.825Q335.20312 332.1844 334.35938 332.1844Q333.53125 332.1844 333.14062 332.825Q332.76562 333.45 332.76562 334.7469L332.76562 336.48126Q332.76562 337.85626 333.15625 338.52814Q333.5625 339.1844 334.375 339.1844Q335.17188 339.1844 335.5625 338.5594Q335.95312 337.9344 335.96875 336.60626L335.96875 334.825ZM338.60938 333.0594Q338.60938 332.29376 339.09375 331.79376Q339.59375 331.29376 340.35938 331.29376Q341.14062 331.29376 341.625 331.79376Q342.10938 332.29376 342.10938 333.09064L342.10938 333.5125Q342.10938 334.27814 341.60938 334.77814Q341.125 335.2625 340.375 335.2625Q339.60938 335.2625 339.10938 334.77814Q338.60938 334.27814 338.60938 333.46564L338.60938 333.0594ZM339.42188 333.5125Q339.42188 333.96564 339.67188 334.2625Q339.9375 334.5594 340.375 334.5594Q340.79688 334.5594 341.04688 334.27814Q341.29688 333.98126 341.29688 333.48126L341.29688 333.0594Q341.29688 332.60626 341.04688 332.3094Q340.79688 331.9969 340.35938 331.9969Q339.92188 331.9969 339.67188 332.3094Q339.42188 332.60626 339.42188 333.075L339.42188 333.5125ZM342.76562 337.85626Q342.76562 337.09064 343.25 336.60626Q343.75 336.10626 344.51562 336.10626Q345.28125 336.10626 345.76562 336.60626Q346.26562 337.09064 346.26562 337.90314L346.26562 338.3094Q346.26562 339.075 345.78125 339.575Q345.29688 340.075 344.53125 340.075Q343.76562 340.075 343.26562 339.59064Q342.76562 339.09064 342.76562 338.27814L342.76562 337.85626ZM343.57812 338.3094Q343.57812 338.77814 343.82812 339.075Q344.09375 339.3719 344.53125 339.3719Q344.95312 339.3719 345.20312 339.09064Q345.45312 338.79376 345.45312 338.29376L345.45312 337.85626Q345.45312 337.3875 345.1875 337.10626Q344.9375 336.8094 344.51562 336.8094Q344.09375 336.8094 343.82812 337.10626Q343.57812 337.3875 343.57812 337.8875L343.57812 338.3094ZM340.625 339.3094L340.0 338.91876L344.17188 332.2469L344.78125 332.6375L340.625 339.3094Z" fill-rule="nonzero"/><path fill="#757575" d="M453.44376 332.02814L449.9125 339.95L448.77188 339.95L452.2875 332.3094L447.67813 332.3094L447.67813 331.41876L453.44376 331.41876L453.44376 332.02814ZM455.42813 335.66876L455.86563 331.41876L460.24063 331.41876L460.24063 332.41876L456.7875 332.41876L456.52188 334.7469Q457.1625 334.3719 457.95938 334.3719Q459.11563 334.3719 459.80313 335.15314Q460.49063 335.91876 460.49063 337.23126Q460.49063 338.54376 459.77188 339.3094Q459.06876 340.075 457.7875 340.075Q456.6625 340.075 455.94376 339.45Q455.225 338.8094 455.13126 337.7L456.14688 337.7Q456.25626 338.4344 456.67813 338.8094Q457.1 339.1844 457.7875 339.1844Q458.5375 339.1844 458.975 338.66876Q459.4125 338.15314 459.4125 337.2469Q459.4125 336.3875 458.94376 335.8719Q458.475 335.35626 457.69376 335.35626Q456.99063 335.35626 456.58438 335.65314L456.30313 335.8875L455.42813 335.66876ZM461.83438 333.0594Q461.83438 332.29376 462.31876 331.79376Q462.81876 331.29376 463.58438 331.29376Q464.36563 331.29376 464.85 331.79376Q465.33438 332.29376 465.33438 333.09064L465.33438 333.5125Q465.33438 334.27814 464.83438 334.77814Q464.35 335.2625 463.6 335.2625Q462.83438 335.2625 462.33438 334.77814Q461.83438 334.27814 461.83438 333.46564L461.83438 333.0594ZM462.64688 333.5125Q462.64688 333.96564 462.89688 334.2625Q463.1625 334.5594 463.6 334.5594Q464.02188 334.5594 464.27188 334.27814Q464.52188 333.98126 464.52188 333.48126L464.52188 333.0594Q464.52188 332.60626 464.27188 332.3094Q464.02188 331.9969 463.58438 331.9969Q463.14688 331.9969 462.89688 332.3094Q462.64688 332.60626 462.64688 333.075L462.64688 333.5125ZM465.99063 337.85626Q465.99063 337.09064 466.475 336.60626Q466.975 336.10626 467.74063 336.10626Q468.50626 336.10626 468.99063 336.60626Q469.49063 337.09064 469.49063 337.90314L469.49063 338.3094Q469.49063 339.075 469.00626 339.575Q468.52188 340.075 467.75626 340.075Q466.99063 340.075 466.49063 339.59064Q465.99063 339.09064 465.99063 338.27814L465.99063 337.85626ZM466.80313 338.3094Q466.80313 338.77814 467.05313 339.075Q467.31876 339.3719 467.75626 339.3719Q468.17813 339.3719 468.42813 339.09064Q468.67813 338.79376 468.67813 338.29376L468.67813 337.85626Q468.67813 337.3875 468.4125 337.10626Q468.1625 336.8094 467.74063 336.8094Q467.31876 336.8094 467.05313 337.10626Q466.80313 337.3875 466.80313 337.8875L466.80313 338.3094ZM463.85 339.3094L463.225 338.91876L467.39688 332.2469L468.00626 332.6375L463.85 339.3094Z" fill-rule="nonzero"/><path fill="#757575" d="M571.21564 339.95L570.1375 339.95L570.1375 332.73126L567.95 333.52814L567.95 332.54376L571.0594 331.3719L571.21564 331.3719L571.21564 339.95ZM580.0125 336.3094Q580.0125 338.21564 579.35626 339.15314Q578.71564 340.075 577.325 340.075Q575.96564 340.075 575.3094 339.16876Q574.65314 338.2625 574.6219 336.45L574.6219 335.0125Q574.6219 333.1219 575.2625 332.21564Q575.91876 331.29376 577.3094 331.29376Q578.6844 331.29376 579.34064 332.1844Q579.9969 333.0594 580.0125 334.90314L580.0125 336.3094ZM578.91876 334.825Q578.91876 333.45 578.52814 332.825Q578.15314 332.1844 577.3094 332.1844Q576.48126 332.1844 576.09064 332.825Q575.71564 333.45 575.71564 334.7469L575.71564 336.48126Q575.71564 337.85626 576.10626 338.52814Q576.5125 339.1844 577.325 339.1844Q578.1219 339.1844 578.5125 338.5594Q578.90314 337.9344 578.91876 336.60626L578.91876 334.825ZM587.0125 336.3094Q587.0125 338.21564 586.35626 339.15314Q585.71564 340.075 584.325 340.075Q582.96564 340.075 582.3094 339.16876Q581.65314 338.2625 581.6219 336.45L581.6219 335.0125Q581.6219 333.1219 582.2625 332.21564Q582.91876 331.29376 584.3094 331.29376Q585.6844 331.29376 586.34064 332.1844Q586.9969 333.0594 587.0125 334.90314L587.0125 336.3094ZM585.91876 334.825Q585.91876 333.45 585.52814 332.825Q585.15314 332.1844 584.3094 332.1844Q583.48126 332.1844 583.09064 332.825Q582.71564 333.45 582.71564 334.7469L582.71564 336.48126Q582.71564 337.85626 583.10626 338.52814Q583.5125 339.1844 584.325 339.1844Q585.1219 339.1844 585.5125 338.5594Q585.90314 337.9344 585.91876 336.60626L585.91876 334.825ZM588.5594 333.0594Q588.5594 332.29376 589.04376 331.79376Q589.54376 331.29376 590.3094 331.29376Q591.09064 331.29376 591.575 331.79376Q592.0594 332.29376 592.0594 333.09064L592.0594 333.5125Q592.0594 334.27814 591.5594 334.77814Q591.075 335.2625 590.325 335.2625Q589.5594 335.2625 589.0594 334.77814Q588.5594 334.27814 588.5594 333.46564L588.5594 333.0594ZM589.3719 333.5125Q589.3719 333.96564 589.6219 334.2625Q589.8875 334.5594 590.325 334.5594Q590.7469 334.5594 590.9969 334.27814Q591.2469 333.98126 591.2469 333.48126L591.2469 333.0594Q591.2469 332.60626 590.9969 332.3094Q590.7469 331.9969 590.3094 331.9969Q589.8719 331.9969 589.6219 332.3094Q589.3719 332.60626 589.3719 333.075L589.3719 333.5125ZM592.71564 337.85626Q592.71564 337.09064 593.2 336.60626Q593.7 336.10626 594.46564 336.10626Q595.23126 336.10626 595.71564 336.60626Q596.21564 337.09064 596.21564 337.90314L596.21564 338.3094Q596.21564 339.075 595.73126 339.575Q595.2469 340.075 594.48126 340.075Q593.71564 340.075 593.21564 339.59064Q592.71564 339.09064 592.71564 338.27814L592.71564 337.85626ZM593.52814 338.3094Q593.52814 338.77814 593.77814 339.075Q594.04376 339.3719 594.48126 339.3719Q594.90314 339.3719 595.15314 339.09064Q595.40314 338.79376 595.40314 338.29376L595.40314 337.85626Q595.40314 337.3875 595.1375 337.10626Q594.8875 336.8094 594.46564 336.8094Q594.04376 336.8094 593.77814 337.10626Q593.52814 337.3875 593.52814 337.8875L593.52814 338.3094ZM590.575 339.3094L589.95 338.91876L594.1219 332.2469L594.73126 332.6375L590.575 339.3094Z" fill-rule="nonzero"/></svg>