<svg version="1.1" viewBox="0.0 0.0 600.0 371.0" fill="none" stroke="none" stroke-linecap="square" stroke-miterlimit="10" width="600" height="371" xmlns:xlink="http://www.w3.org/1999/xlink" xmlns="http://www.w3.org/2000/svg"><path fill="#ffffff" d="M0 0L600.0 0L600.0 371.0L0 371.0L0 0Z" fill-rule="nonzero"/><path stroke="#333333" stroke-width="1.0" stroke-linecap="butt" d="M89.5 18.5L89.5 331.5" fill-rule="nonzero"/><path stroke="#cccccc" stroke-width="1.0" stroke-linecap="butt" d="M212.5 18.5L212.5 331.5" fill-rule="nonzero"/><path stroke="#cccccc" stroke-width="1.0" stroke-linecap="butt" d="M335.5 18.5L335.5 331.5" fill-rule="nonzero"/><path stroke="#cccccc" stroke-width="1.0" stroke-linecap="butt" d="M458.5 18.5L458.5 331.5" fill-rule="nonzero"/><path stroke="#cccccc" stroke-width="1.0" stroke-linecap="butt" d="M581.5 18.5L581.5 331.5" fill-rule="nonzero"/><clipPath id="id_0"><path d="M89.55 18.55L581.45 18.55L581.45 331.45L89.55 331.45L89.55 18.55Z" clip-rule="nonzero"/></clipPath><path stroke="#000000" stroke-width="0.0" stroke-linecap="butt" stroke-opacity="0.0" clip-path="url(#id_0)" d="M90.0 61.0L90.0 33.0L383.0 33.0C384.10458 33.0 385.0 33.89543 385.0 35.0L385.0 59.0C385.0 60.10457 384.10458 61.0 383.0 61.0Z" fill-rule="nonzero"/><path fill="#3d85c6" clip-path="url(#id_0)" d="M90.0 61.0L90.0 33.0L383.0 33.0C384.10458 33.0 385.0 33.89543 385.0 35.0L385.0 59.0C385.0 60.10457 384.10458 61.0 383.0 61.0Z" fill-rule="nonzero"/><path stroke="#000000" stroke-width="0.0" stroke-linecap="butt" stroke-opacity="0.0" clip-path="url(#id_0)" d="M90.0 104.0L90.0 76.0L383.0 76.0C384.10458 76.0 385.0 76.89543 385.0 78.0L385.0 102.0C385.0 103.10457 384.10458 104.0 383.0 104.0Z" fill-rule="nonzero"/><path fill="#6aa84f" clip-path="url(#id_0)" d="M90.0 104.0L90.0 76.0L383.0 76.0C384.10458 76.0 385.0 76.89543 385.0 78.0L385.0 102.0C385.0 103.10457 384.10458 104.0 383.0 104.0Z" fill-rule="nonzero"/><path stroke="#000000" stroke-width="0.0" stroke-linecap="butt" stroke-opacity="0.0" clip-path="url(#id_0)" d="M90.0 146.0L90.0 118.0L235.0 118.0C236.10457 118.0 237.0 118.89543 237.0 120.0L237.0 144.0C237.0 145.10457 236.10457 146.0 235.0 146.0Z" fill-rule="nonzero"/><path fill="#c27ba0" clip-path="url(#id_0)" d="M90.0 146.0L90.0 118.0L235.0 118.0C236.10457 118.0 237.0 118.89543 237.0 120.0L237.0 144.0C237.0 145.10457 236.10457 146.0 235.0 146.0Z" fill-rule="nonzero"/><path stroke="#000000" stroke-width="0.0" stroke-linecap="butt" stroke-opacity="0.0" clip-path="url(#id_0)" d="M90.0 189.0L90.0 161.0L432.0 161.0C433.10458 161.0 434.0 161.89543 434.0 163.0L434.0 187.0C434.0 188.10457 433.10458 189.0 432.0 189.0Z" fill-rule="nonzero"/><path fill="#bf9000" clip-path="url(#id_0)" d="M90.0 189.0L90.0 161.0L432.0 161.0C433.10458 161.0 434.0 161.89543 434.0 163.0L434.0 187.0C434.0 188.10457 433.10458 189.0 432.0 189.0Z" fill-rule="nonzero"/><path stroke="#000000" stroke-width="0.0" stroke-linecap="butt" stroke-opacity="0.0" clip-path="url(#id_0)" d="M90.0 232.0L90.0 204.0L481.0 204.0C482.10458 204.0 483.0 204.89543 483.0 206.0L483.0 230.0C483.0 231.10457 482.10458 232.0 481.0 232.0Z" fill-rule="nonzero"/><path fill="#cc0000" clip-path="url(#id_0)" d="M90.0 232.0L90.0 204.0L481.0 204.0C482.10458 204.0 483.0 204.89543 483.0 206.0L483.0 230.0C483.0 231.10457 482.10458 232.0 481.0 232.0Z" fill-rule="nonzero"/><path stroke="#000000" stroke-width="0.0" stroke-linecap="butt" stroke-opacity="0.0" clip-path="url(#id_0)" d="M90.0 274.0L90.0 246.0L530.0 246.0C531.10455 246.0 532.0 246.89543 532.0 248.0L532.0 272.0C532.0 273.10458 531.10455 274.0 530.0 274.0Z" fill-rule="nonzero"/><path fill="#0000ff" clip-path="url(#id_0)" d="M90.0 274.0L90.0 246.0L530.0 246.0C531.10455 246.0 532.0 246.89543 532.0 248.0L532.0 272.0C532.0 273.10458 531.10455 274.0 530.0 274.0Z" fill-rule="nonzero"/><path stroke="#000000" stroke-width="0.0" stroke-linecap="butt" stroke-opacity="0.0" clip-path="url(#id_0)" d="M90.0 317.0L90.0 289.0L137.0 289.0C138.10457 289.0 139.0 289.89542 139.0 291.0L139.0 315.0C139.0 316.10458 138.10457 317.0 137.0 317.0Z" fill-rule="nonzero"/><path fill="#4a86e8" clip-path="url(#id_0)" d="M90.0 317.0L90.0 289.0L137.0 289.0C138.10457 289.0 139.0 289.89542 139.0 291.0L139.0 315.0C139.0 316.10458 138.10457 317.0 137.0 317.0Z" fill-rule="nonzero"/><path stroke="#ffffff" stroke-width="3.0" stroke-linejoin="round" stroke-linecap="round" d="M401.65875 42.96875L401.65875 43.875L401.45563 43.875Q400.19 43.90625 399.44 44.640625Q398.69 45.359375 398.565 46.671875Q399.2525 45.90625 400.40875 45.90625Q401.51813 45.90625 402.19 46.6875Q402.86188 47.46875 402.86188 48.71875Q402.86188 50.03125 402.14313 50.828125Q401.42438 51.625 400.20563 51.625Q398.98688 51.625 398.22125 50.6875Q397.47125 49.734375 397.47125 48.25L397.47125 47.84375Q397.47125 45.484375 398.47125 44.234375Q399.47125 42.984375 401.45563 42.96875L401.65875 42.96875ZM400.23688 46.8125Q399.67438 46.8125 399.20563 47.140625Q398.73688 47.46875 398.54938 47.984375L398.54938 48.375Q398.54938 49.4375 399.01813 50.078125Q399.5025 50.71875 400.20563 50.71875Q400.94 50.71875 401.36188 50.1875Q401.78375 49.640625 401.78375 48.765625Q401.78375 47.890625 401.36188 47.359375Q400.94 46.8125 400.23688 46.8125ZM409.7525 47.859375Q409.7525 49.765625 409.09625 50.703125Q408.45563 51.625 407.065 51.625Q405.70563 51.625 405.04938 50.71875Q404.39313 49.8125 404.36188 48.0L404.36188 46.5625Q404.36188 44.671875 405.0025 43.765625Q405.65875 42.84375 407.04938 42.84375Q408.42438 42.84375 409.08063 43.734375Q409.73688 44.609375 409.7525 46.453125L409.7525 47.859375ZM408.65875 46.375Q408.65875 45.0 408.26813 44.375Q407.89313 43.734375 407.04938 43.734375Q406.22125 43.734375 405.83063 44.375Q405.45563 45.0 405.45563 46.296875L405.45563 48.03125Q405.45563 49.40625 405.84625 50.078125Q406.2525 50.734375 407.065 50.734375Q407.86188 50.734375 408.2525 50.109375Q408.64313 49.484375 408.65875 48.15625L408.65875 46.375ZM411.29938 44.609375Q411.29938 43.84375 411.78375 43.34375Q412.28375 42.84375 413.04938 42.84375Q413.83063 42.84375 414.315 43.34375Q414.79938 43.84375 414.79938 44.640625L414.79938 45.0625Q414.79938 45.828125 414.29938 46.328125Q413.815 46.8125 413.065 46.8125Q412.29938 46.8125 411.79938 46.328125Q411.29938 45.828125 411.29938 45.015625L411.29938 44.609375ZM412.11188 45.0625Q412.11188 45.515625 412.36188 45.8125Q412.6275 46.109375 413.065 46.109375Q413.48688 46.109375 413.73688 45.828125Q413.98688 45.53125 413.98688 45.03125L413.98688 44.609375Q413.98688 44.15625 413.73688 43.859375Q413.48688 43.546875 413.04938 43.546875Q412.61188 43.546875 412.36188 43.859375Q412.11188 44.15625 412.11188 44.625L412.11188 45.0625ZM415.45563 49.40625Q415.45563 48.640625 415.94 48.15625Q416.44 47.65625 417.20563 47.65625Q417.97125 47.65625 418.45563 48.15625Q418.95563 48.640625 418.95563 49.453125L418.95563 49.859375Q418.95563 50.625 418.47125 51.125Q417.98688 51.625 417.22125 51.625Q416.45563 51.625 415.95563 51.140625Q415.45563 50.640625 415.45563 49.828125L415.45563 49.40625ZM416.26813 49.859375Q416.26813 50.328125 416.51813 50.625Q416.78375 50.921875 417.22125 50.921875Q417.64313 50.921875 417.89313 50.640625Q418.14313 50.34375 418.14313 49.84375L418.14313 49.40625Q418.14313 48.9375 417.8775 48.65625Q417.6275 48.359375 417.20563 48.359375Q416.78375 48.359375 416.51813 48.65625Q416.26813 48.9375 416.26813 49.4375L416.26813 49.859375ZM413.315 50.859375L412.69 50.46875L416.86188 43.796875L417.47125 44.1875L413.315 50.859375Z" fill-rule="nonzero"/><path fill="#3d85c6" d="M401.65875 42.96875L401.65875 43.875L401.45563 43.875Q400.19 43.90625 399.44 44.640625Q398.69 45.359375 398.565 46.671875Q399.2525 45.90625 400.40875 45.90625Q401.51813 45.90625 402.19 46.6875Q402.86188 47.46875 402.86188 48.71875Q402.86188 50.03125 402.14313 50.828125Q401.42438 51.625 400.20563 51.625Q398.98688 51.625 398.22125 50.6875Q397.47125 49.734375 397.47125 48.25L397.47125 47.84375Q397.47125 45.484375 398.47125 44.234375Q399.47125 42.984375 401.45563 42.96875L401.65875 42.96875ZM400.23688 46.8125Q399.67438 46.8125 399.20563 47.140625Q398.73688 47.46875 398.54938 47.984375L398.54938 48.375Q398.54938 49.4375 399.01813 50.078125Q399.5025 50.71875 400.20563 50.71875Q400.94 50.71875 401.36188 50.1875Q401.78375 49.640625 401.78375 48.765625Q401.78375 47.890625 401.36188 47.359375Q400.94 46.8125 400.23688 46.8125ZM409.7525 47.859375Q409.7525 49.765625 409.09625 50.703125Q408.45563 51.625 407.065 51.625Q405.70563 51.625 405.04938 50.71875Q404.39313 49.8125 404.36188 48.0L404.36188 46.5625Q404.36188 44.671875 405.0025 43.765625Q405.65875 42.84375 407.04938 42.84375Q408.42438 42.84375 409.08063 43.734375Q409.73688 44.609375 409.7525 46.453125L409.7525 47.859375ZM408.65875 46.375Q408.65875 45.0 408.26813 44.375Q407.89313 43.734375 407.04938 43.734375Q406.22125 43.734375 405.83063 44.375Q405.45563 45.0 405.45563 46.296875L405.45563 48.03125Q405.45563 49.40625 405.84625 50.078125Q406.2525 50.734375 407.065 50.734375Q407.86188 50.734375 408.2525 50.109375Q408.64313 49.484375 408.65875 48.15625L408.65875 46.375ZM411.29938 44.609375Q411.29938 43.84375 411.78375 43.34375Q412.28375 42.84375 413.04938 42.84375Q413.83063 42.84375 414.315 43.34375Q414.79938 43.84375 414.79938 44.640625L414.79938 45.0625Q414.79938 45.828125 414.29938 46.328125Q413.815 46.8125 413.065 46.8125Q412.29938 46.8125 411.79938 46.328125Q411.29938 45.828125 411.29938 45.015625L411.29938 44.609375ZM412.11188 45.0625Q412.11188 45.515625 412.36188 45.8125Q412.6275 46.109375 413.065 46.109375Q413.48688 46.109375 413.73688 45.828125Q413.98688 45.53125 413.98688 45.03125L413.98688 44.609375Q413.98688 44.15625 413.73688 43.859375Q413.48688 43.546875 413.04938 43.546875Q412.61188 43.546875 412.36188 43.859375Q412.11188 44.15625 412.11188 44.625L412.11188 45.0625ZM415.45563 49.40625Q415.45563 48.640625 415.94 48.15625Q416.44 47.65625 417.20563 47.65625Q417.97125 47.65625 418.45563 48.15625Q418.95563 48.640625 418.95563 49.453125L418.95563 49.859375Q418.95563 50.625 418.47125 51.125Q417.98688 51.625 417.22125 51.625Q416.45563 51.625 415.95563 51.140625Q415.45563 50.640625 415.45563 49.828125L415.45563 49.40625ZM416.26813 49.859375Q416.26813 50.328125 416.51813 50.625Q416.78375 50.921875 417.22125 50.921875Q417.64313 50.921875 417.89313 50.640625Q418.14313 50.34375 418.14313 49.84375L418.14313 49.40625Q418.14313 48.9375 417.8775 48.65625Q417.6275 48.359375 417.20563 48.359375Q416.78375 48.359375 416.51813 48.65625Q416.26813 48.9375 416.26813 49.4375L416.26813 49.859375ZM413.315 50.859375L412.69 50.46875L416.86188 43.796875L417.47125 44.1875L413.315 50.859375Z" fill-rule="nonzero"/><path stroke="#ffffff" stroke-width="3.0" stroke-linejoin="round" stroke-linecap="round" d="M401.65875 85.96875L401.65875 86.875L401.45563 86.875Q400.19 86.90625 399.44 87.640625Q398.69 88.359375 398.565 89.671875Q399.2525 88.90625 400.40875 88.90625Q401.51813 88.90625 402.19 89.6875Q402.86188 90.46875 402.86188 91.71875Q402.86188 93.03125 402.14313 93.828125Q401.42438 94.625 400.20563 94.625Q398.98688 94.625 398.22125 93.6875Q397.47125 92.734375 397.47125 91.25L397.47125 90.84375Q397.47125 88.484375 398.47125 87.234375Q399.47125 85.984375 401.45563 85.96875L401.65875 85.96875ZM400.23688 89.8125Q399.67438 89.8125 399.20563 90.140625Q398.73688 90.46875 398.54938 90.984375L398.54938 91.375Q398.54938 92.4375 399.01813 93.078125Q399.5025 93.71875 400.20563 93.71875Q400.94 93.71875 401.36188 93.1875Q401.78375 92.640625 401.78375 91.765625Q401.78375 90.890625 401.36188 90.359375Q400.94 89.8125 400.23688 89.8125ZM409.7525 90.859375Q409.7525 92.765625 409.09625 93.703125Q408.45563 94.625 407.065 94.625Q405.70563 94.625 405.04938 93.71875Q404.39313 92.8125 404.36188 91.0L404.36188 89.5625Q404.36188 87.671875 405.0025 86.765625Q405.65875 85.84375 407.04938 85.84375Q408.42438 85.84375 409.08063 86.734375Q409.73688 87.609375 409.7525 89.453125L409.7525 90.859375ZM408.65875 89.375Q408.65875 88.0 408.26813 87.375Q407.89313 86.734375 407.04938 86.734375Q406.22125 86.734375 405.83063 87.375Q405.45563 88.0 405.45563 89.296875L405.45563 91.03125Q405.45563 92.40625 405.84625 93.078125Q406.2525 93.734375 407.065 93.734375Q407.86188 93.734375 408.2525 93.109375Q408.64313 92.484375 408.65875 91.15625L408.65875 89.375ZM411.29938 87.609375Q411.29938 86.84375 411.78375 86.34375Q412.28375 85.84375 413.04938 85.84375Q413.83063 85.84375 414.315 86.34375Q414.79938 86.84375 414.79938 87.640625L414.79938 88.0625Q414.79938 88.828125 414.29938 89.328125Q413.815 89.8125 413.065 89.8125Q412.29938 89.8125 411.79938 89.328125Q411.29938 88.828125 411.29938 88.015625L411.29938 87.609375ZM412.11188 88.0625Q412.11188 88.515625 412.36188 88.8125Q412.6275 89.109375 413.065 89.109375Q413.48688 89.109375 413.73688 88.828125Q413.98688 88.53125 413.98688 88.03125L413.98688 87.609375Q413.98688 87.15625 413.73688 86.859375Q413.48688 86.546875 413.04938 86.546875Q412.61188 86.546875 412.36188 86.859375Q412.11188 87.15625 412.11188 87.625L412.11188 88.0625ZM415.45563 92.40625Q415.45563 91.640625 415.94 91.15625Q416.44 90.65625 417.20563 90.65625Q417.97125 90.65625 418.45563 91.15625Q418.95563 91.640625 418.95563 92.453125L418.95563 92.859375Q418.95563 93.625 418.47125 94.125Q417.98688 94.625 417.22125 94.625Q416.45563 94.625 415.95563 94.140625Q415.45563 93.640625 415.45563 92.828125L415.45563 92.40625ZM416.26813 92.859375Q416.26813 93.328125 416.51813 93.625Q416.78375 93.921875 417.22125 93.921875Q417.64313 93.921875 417.89313 93.640625Q418.14313 93.34375 418.14313 92.84375L418.14313 92.40625Q418.14313 91.9375 417.8775 91.65625Q417.6275 91.359375 417.20563 91.359375Q416.78375 91.359375 416.51813 91.65625Q416.26813 91.9375 416.26813 92.4375L416.26813 92.859375ZM413.315 93.859375L412.69 93.46875L416.86188 86.796875L417.47125 87.1875L413.315 93.859375Z" fill-rule="nonzero"/><path fill="#6aa84f" d="M401.65875 85.96875L401.65875 86.875L401.45563 86.875Q400.19 86.90625 399.44 87.640625Q398.69 88.359375 398.565 89.671875Q399.2525 88.90625 400.40875 88.90625Q401.51813 88.90625 402.19 89.6875Q402.86188 90.46875 402.86188 91.71875Q402.86188 93.03125 402.14313 93.828125Q401.42438 94.625 400.20563 94.625Q398.98688 94.625 398.22125 93.6875Q397.47125 92.734375 397.47125 91.25L397.47125 90.84375Q397.47125 88.484375 398.47125 87.234375Q399.47125 85.984375 401.45563 85.96875L401.65875 85.96875ZM400.23688 89.8125Q399.67438 89.8125 399.20563 90.140625Q398.73688 90.46875 398.54938 90.984375L398.54938 91.375Q398.54938 92.4375 399.01813 93.078125Q399.5025 93.71875 400.20563 93.71875Q400.94 93.71875 401.36188 93.1875Q401.78375 92.640625 401.78375 91.765625Q401.78375 90.890625 401.36188 90.359375Q400.94 89.8125 400.23688 89.8125ZM409.7525 90.859375Q409.7525 92.765625 409.09625 93.703125Q408.45563 94.625 407.065 94.625Q405.70563 94.625 405.04938 93.71875Q404.39313 92.8125 404.36188 91.0L404.36188 89.5625Q404.36188 87.671875 405.0025 86.765625Q405.65875 85.84375 407.04938 85.84375Q408.42438 85.84375 409.08063 86.734375Q409.73688 87.609375 409.7525 89.453125L409.7525 90.859375ZM408.65875 89.375Q408.65875 88.0 408.26813 87.375Q407.89313 86.734375 407.04938 86.734375Q406.22125 86.734375 405.83063 87.375Q405.45563 88.0 405.45563 89.296875L405.45563 91.03125Q405.45563 92.40625 405.84625 93.078125Q406.2525 93.734375 407.065 93.734375Q407.86188 93.734375 408.2525 93.109375Q408.64313 92.484375 408.65875 91.15625L408.65875 89.375ZM411.29938 87.609375Q411.29938 86.84375 411.78375 86.34375Q412.28375 85.84375 413.04938 85.84375Q413.83063 85.84375 414.315 86.34375Q414.79938 86.84375 414.79938 87.640625L414.79938 88.0625Q414.79938 88.828125 414.29938 89.328125Q413.815 89.8125 413.065 89.8125Q412.29938 89.8125 411.79938 89.328125Q411.29938 88.828125 411.29938 88.015625L411.29938 87.609375ZM412.11188 88.0625Q412.11188 88.515625 412.36188 88.8125Q412.6275 89.109375 413.065 89.109375Q413.48688 89.109375 413.73688 88.828125Q413.98688 88.53125 413.98688 88.03125L413.98688 87.609375Q413.98688 87.15625 413.73688 86.859375Q413.48688 86.546875 413.04938 86.546875Q412.61188 86.546875 412.36188 86.859375Q412.11188 87.15625 412.11188 87.625L412.11188 88.0625ZM415.45563 92.40625Q415.45563 91.640625 415.94 91.15625Q416.44 90.65625 417.20563 90.65625Q417.97125 90.65625 418.45563 91.15625Q418.95563 91.640625 418.95563 92.453125L418.95563 92.859375Q418.95563 93.625 418.47125 94.125Q417.98688 94.625 417.22125 94.625Q416.45563 94.625 415.95563 94.140625Q415.45563 93.640625 415.45563 92.828125L415.45563 92.40625ZM416.26813 92.859375Q416.26813 93.328125 416.51813 93.625Q416.78375 93.921875 417.22125 93.921875Q417.64313 93.921875 417.89313 93.640625Q418.14313 93.34375 418.14313 92.84375L418.14313 92.40625Q418.14313 91.9375 417.8775 91.65625Q417.6275 91.359375 417.20563 91.359375Q416.78375 91.359375 416.51813 91.65625Q416.26813 91.9375 416.26813 92.4375L416.26813 92.859375ZM413.315 93.859375L412.69 93.46875L416.86188 86.796875L417.47125 87.1875L413.315 93.859375Z" fill-rule="nonzero"/><path stroke="#ffffff" stroke-width="3.0" stroke-linejoin="round" stroke-linecap="round" d="M251.40125 131.70312L252.21375 131.70312Q252.995 131.6875 253.4325 131.29688Q253.87 130.90625 253.87 130.23438Q253.87 128.73438 252.37 128.73438Q251.66687 128.73438 251.245 129.14062Q250.83875 129.54688 250.83875 130.20312L249.745 130.20312Q249.745 129.1875 250.47937 128.51562Q251.22937 127.84375 252.37 127.84375Q253.57312 127.84375 254.26062 128.48438Q254.94812 129.125 254.94812 130.26562Q254.94812 130.82812 254.58875 131.34375Q254.22937 131.85938 253.60437 132.125Q254.3075 132.34375 254.6825 132.85938Q255.07312 133.375 255.07312 134.125Q255.07312 135.26562 254.32312 135.95312Q253.57312 136.625 252.37 136.625Q251.1825 136.625 250.41687 135.96875Q249.66687 135.3125 249.66687 134.25L250.76062 134.25Q250.76062 134.92188 251.19812 135.32812Q251.63562 135.73438 252.38562 135.73438Q253.16687 135.73438 253.57312 135.32812Q253.995 134.90625 253.995 134.14062Q253.995 133.40625 253.54187 133.01562Q253.08875 132.60938 252.21375 132.59375L251.40125 132.59375L251.40125 131.70312ZM262.1825 132.85938Q262.1825 134.76562 261.52625 135.70312Q260.88562 136.625 259.495 136.625Q258.13562 136.625 257.47937 135.71875Q256.82312 134.8125 256.79187 133.0L256.79187 131.5625Q256.79187 129.67188 257.4325 128.76562Q258.08875 127.84375 259.47937 127.84375Q260.85437 127.84375 261.51062 128.73438Q262.16687 129.60938 262.1825 131.45312L262.1825 132.85938ZM261.08875 131.375Q261.08875 130.0 260.69812 129.375Q260.32312 128.73438 259.47937 128.73438Q258.65125 128.73438 258.26062 129.375Q257.88562 130.0 257.88562 131.29688L257.88562 133.03125Q257.88562 134.40625 258.27625 135.07812Q258.6825 135.73438 259.495 135.73438Q260.29187 135.73438 260.6825 135.10938Q261.07312 134.48438 261.08875 133.15625L261.08875 131.375ZM263.72937 129.60938Q263.72937 128.84375 264.21375 128.34375Q264.71375 127.84375 265.47937 127.84375Q266.26062 127.84375 266.745 128.34375Q267.22937 128.84375 267.22937 129.64062L267.22937 130.0625Q267.22937 130.82812 266.72937 131.32812Q266.245 131.8125 265.495 131.8125Q264.72937 131.8125 264.22937 131.32812Q263.72937 130.82812 263.72937 130.01562L263.72937 129.60938ZM264.54187 130.0625Q264.54187 130.51562 264.79187 130.8125Q265.0575 131.10938 265.495 131.10938Q265.91687 131.10938 266.16687 130.82812Q266.41687 130.53125 266.41687 130.03125L266.41687 129.60938Q266.41687 129.15625 266.16687 128.85938Q265.91687 128.54688 265.47937 128.54688Q265.04187 128.54688 264.79187 128.85938Q264.54187 129.15625 264.54187 129.625L264.54187 130.0625ZM267.88562 134.40625Q267.88562 133.64062 268.37 133.15625Q268.87 132.65625 269.63562 132.65625Q270.40125 132.65625 270.88562 133.15625Q271.38562 133.64062 271.38562 134.45312L271.38562 134.85938Q271.38562 135.625 270.90125 136.125Q270.41687 136.625 269.65125 136.625Q268.88562 136.625 268.38562 136.14062Q267.88562 135.64062 267.88562 134.82812L267.88562 134.40625ZM268.69812 134.85938Q268.69812 135.32812 268.94812 135.625Q269.21375 135.92188 269.65125 135.92188Q270.07312 135.92188 270.32312 135.64062Q270.57312 135.34375 270.57312 134.84375L270.57312 134.40625Q270.57312 133.9375 270.3075 133.65625Q270.0575 133.35938 269.63562 133.35938Q269.21375 133.35938 268.94812 133.65625Q268.69812 133.9375 268.69812 134.4375L268.69812 134.85938ZM265.745 135.85938L265.12 135.46875L269.29187 128.79688L269.90125 129.1875L265.745 135.85938Z" fill-rule="nonzero"/><path fill="#c27ba0" d="M251.40125 131.70312L252.21375 131.70312Q252.995 131.6875 253.4325 131.29688Q253.87 130.90625 253.87 130.23438Q253.87 128.73438 252.37 128.73438Q251.66687 128.73438 251.245 129.14062Q250.83875 129.54688 250.83875 130.20312L249.745 130.20312Q249.745 129.1875 250.47937 128.51562Q251.22937 127.84375 252.37 127.84375Q253.57312 127.84375 254.26062 128.48438Q254.94812 129.125 254.94812 130.26562Q254.94812 130.82812 254.58875 131.34375Q254.22937 131.85938 253.60437 132.125Q254.3075 132.34375 254.6825 132.85938Q255.07312 133.375 255.07312 134.125Q255.07312 135.26562 254.32312 135.95312Q253.57312 136.625 252.37 136.625Q251.1825 136.625 250.41687 135.96875Q249.66687 135.3125 249.66687 134.25L250.76062 134.25Q250.76062 134.92188 251.19812 135.32812Q251.63562 135.73438 252.38562 135.73438Q253.16687 135.73438 253.57312 135.32812Q253.995 134.90625 253.995 134.14062Q253.995 133.40625 253.54187 133.01562Q253.08875 132.60938 252.21375 132.59375L251.40125 132.59375L251.40125 131.70312ZM262.1825 132.85938Q262.1825 134.76562 261.52625 135.70312Q260.88562 136.625 259.495 136.625Q258.13562 136.625 257.47937 135.71875Q256.82312 134.8125 256.79187 133.0L256.79187 131.5625Q256.79187 129.67188 257.4325 128.76562Q258.08875 127.84375 259.47937 127.84375Q260.85437 127.84375 261.51062 128.73438Q262.16687 129.60938 262.1825 131.45312L262.1825 132.85938ZM261.08875 131.375Q261.08875 130.0 260.69812 129.375Q260.32312 128.73438 259.47937 128.73438Q258.65125 128.73438 258.26062 129.375Q257.88562 130.0 257.88562 131.29688L257.88562 133.03125Q257.88562 134.40625 258.27625 135.07812Q258.6825 135.73438 259.495 135.73438Q260.29187 135.73438 260.6825 135.10938Q261.07312 134.48438 261.08875 133.15625L261.08875 131.375ZM263.72937 129.60938Q263.72937 128.84375 264.21375 128.34375Q264.71375 127.84375 265.47937 127.84375Q266.26062 127.84375 266.745 128.34375Q267.22937 128.84375 267.22937 129.64062L267.22937 130.0625Q267.22937 130.82812 266.72937 131.32812Q266.245 131.8125 265.495 131.8125Q264.72937 131.8125 264.22937 131.32812Q263.72937 130.82812 263.72937 130.01562L263.72937 129.60938ZM264.54187 130.0625Q264.54187 130.51562 264.79187 130.8125Q265.0575 131.10938 265.495 131.10938Q265.91687 131.10938 266.16687 130.82812Q266.41687 130.53125 266.41687 130.03125L266.41687 129.60938Q266.41687 129.15625 266.16687 128.85938Q265.91687 128.54688 265.47937 128.54688Q265.04187 128.54688 264.79187 128.85938Q264.54187 129.15625 264.54187 129.625L264.54187 130.0625ZM267.88562 134.40625Q267.88562 133.64062 268.37 133.15625Q268.87 132.65625 269.63562 132.65625Q270.40125 132.65625 270.88562 133.15625Q271.38562 133.64062 271.38562 134.45312L271.38562 134.85938Q271.38562 135.625 270.90125 136.125Q270.41687 136.625 269.65125 136.625Q268.88562 136.625 268.38562 136.14062Q267.88562 135.64062 267.88562 134.82812L267.88562 134.40625ZM268.69812 134.85938Q268.69812 135.32812 268.94812 135.625Q269.21375 135.92188 269.65125 135.92188Q270.07312 135.92188 270.32312 135.64062Q270.57312 135.34375 270.57312 134.84375L270.57312 134.40625Q270.57312 133.9375 270.3075 133.65625Q270.0575 133.35938 269.63562 133.35938Q269.21375 133.35938 268.94812 133.65625Q268.69812 133.9375 268.69812 134.4375L268.69812 134.85938ZM265.745 135.85938L265.12 135.46875L269.29187 128.79688L269.90125 129.1875L265.745 135.85938Z" fill-rule="nonzero"/><path stroke="#ffffff" stroke-width="3.0" stroke-linejoin="round" stroke-linecap="round" d="M452.09875 171.57812L448.5675 179.5L447.42688 179.5L450.9425 171.85938L446.33313 171.85938L446.33313 170.96875L452.09875 170.96875L452.09875 171.57812ZM458.9425 175.85938Q458.9425 177.76562 458.28625 178.70312Q457.64563 179.625 456.255 179.625Q454.89563 179.625 454.23938 178.71875Q453.58313 177.8125 453.55188 176.0L453.55188 174.5625Q453.55188 172.67188 454.1925 171.76562Q454.84875 170.84375 456.23938 170.84375Q457.61438 170.84375 458.27063 171.73438Q458.92688 172.60938 458.9425 174.45312L458.9425 175.85938ZM457.84875 174.375Q457.84875 173.0 457.45813 172.375Q457.08313 171.73438 456.23938 171.73438Q455.41125 171.73438 455.02063 172.375Q454.64563 173.0 454.64563 174.29688L454.64563 176.03125Q454.64563 177.40625 455.03625 178.07812Q455.4425 178.73438 456.255 178.73438Q457.05188 178.73438 457.4425 178.10938Q457.83313 177.48438 457.84875 176.15625L457.84875 174.375ZM460.48938 172.60938Q460.48938 171.84375 460.97375 171.34375Q461.47375 170.84375 462.23938 170.84375Q463.02063 170.84375 463.505 171.34375Q463.98938 171.84375 463.98938 172.64062L463.98938 173.0625Q463.98938 173.82812 463.48938 174.32812Q463.005 174.8125 462.255 174.8125Q461.48938 174.8125 460.98938 174.32812Q460.48938 173.82812 460.48938 173.01562L460.48938 172.60938ZM461.30188 173.0625Q461.30188 173.51562 461.55188 173.8125Q461.8175 174.10938 462.255 174.10938Q462.67688 174.10938 462.92688 173.82812Q463.17688 173.53125 463.17688 173.03125L463.17688 172.60938Q463.17688 172.15625 462.92688 171.85938Q462.67688 171.54688 462.23938 171.54688Q461.80188 171.54688 461.55188 171.85938Q461.30188 172.15625 461.30188 172.625L461.30188 173.0625ZM464.64563 177.40625Q464.64563 176.64062 465.13 176.15625Q465.63 175.65625 466.39563 175.65625Q467.16125 175.65625 467.64563 176.15625Q468.14563 176.64062 468.14563 177.45312L468.14563 177.85938Q468.14563 178.625 467.66125 179.125Q467.17688 179.625 466.41125 179.625Q465.64563 179.625 465.14563 179.14062Q464.64563 178.64062 464.64563 177.82812L464.64563 177.40625ZM465.45813 177.85938Q465.45813 178.32812 465.70813 178.625Q465.97375 178.92188 466.41125 178.92188Q466.83313 178.92188 467.08313 178.64062Q467.33313 178.34375 467.33313 177.84375L467.33313 177.40625Q467.33313 176.9375 467.0675 176.65625Q466.8175 176.35938 466.39563 176.35938Q465.97375 176.35938 465.70813 176.65625Q465.45813 176.9375 465.45813 177.4375L465.45813 177.85938ZM462.505 178.85938L461.88 178.46875L466.05188 171.79688L466.66125 172.1875L462.505 178.85938Z" fill-rule="nonzero"/><path fill="#bf9000" d="M452.09875 171.57812L448.5675 179.5L447.42688 179.5L450.9425 171.85938L446.33313 171.85938L446.33313 170.96875L452.09875 170.96875L452.09875 171.57812ZM458.9425 175.85938Q458.9425 177.76562 458.28625 178.70312Q457.64563 179.625 456.255 179.625Q454.89563 179.625 454.23938 178.71875Q453.58313 177.8125 453.55188 176.0L453.55188 174.5625Q453.55188 172.67188 454.1925 171.76562Q454.84875 170.84375 456.23938 170.84375Q457.61438 170.84375 458.27063 171.73438Q458.92688 172.60938 458.9425 174.45312L458.9425 175.85938ZM457.84875 174.375Q457.84875 173.0 457.45813 172.375Q457.08313 171.73438 456.23938 171.73438Q455.41125 171.73438 455.02063 172.375Q454.64563 173.0 454.64563 174.29688L454.64563 176.03125Q454.64563 177.40625 455.03625 178.07812Q455.4425 178.73438 456.255 178.73438Q457.05188 178.73438 457.4425 178.10938Q457.83313 177.48438 457.84875 176.15625L457.84875 174.375ZM460.48938 172.60938Q460.48938 171.84375 460.97375 171.34375Q461.47375 170.84375 462.23938 170.84375Q463.02063 170.84375 463.505 171.34375Q463.98938 171.84375 463.98938 172.64062L463.98938 173.0625Q463.98938 173.82812 463.48938 174.32812Q463.005 174.8125 462.255 174.8125Q461.48938 174.8125 460.98938 174.32812Q460.48938 173.82812 460.48938 173.01562L460.48938 172.60938ZM461.30188 173.0625Q461.30188 173.51562 461.55188 173.8125Q461.8175 174.10938 462.255 174.10938Q462.67688 174.10938 462.92688 173.82812Q463.17688 173.53125 463.17688 173.03125L463.17688 172.60938Q463.17688 172.15625 462.92688 171.85938Q462.67688 171.54688 462.23938 171.54688Q461.80188 171.54688 461.55188 171.85938Q461.30188 172.15625 461.30188 172.625L461.30188 173.0625ZM464.64563 177.40625Q464.64563 176.64062 465.13 176.15625Q465.63 175.65625 466.39563 175.65625Q467.16125 175.65625 467.64563 176.15625Q468.14563 176.64062 468.14563 177.45312L468.14563 177.85938Q468.14563 178.625 467.66125 179.125Q467.17688 179.625 466.41125 179.625Q465.64563 179.625 465.14563 179.14062Q464.64563 178.64062 464.64563 177.82812L464.64563 177.40625ZM465.45813 177.85938Q465.45813 178.32812 465.70813 178.625Q465.97375 178.92188 466.41125 178.92188Q466.83313 178.92188 467.08313 178.64062Q467.33313 178.34375 467.33313 177.84375L467.33313 177.40625Q467.33313 176.9375 467.0675 176.65625Q466.8175 176.35938 466.39563 176.35938Q465.97375 176.35938 465.70813 176.65625Q465.45813 176.9375 465.45813 177.4375L465.45813 177.85938ZM462.505 178.85938L461.88 178.46875L466.05188 171.79688L466.66125 172.1875L462.505 178.85938Z" fill-rule="nonzero"/><path stroke="#ffffff" stroke-width="3.0" stroke-linejoin="round" stroke-linecap="round" d="M500.96063 216.1875Q500.96063 216.82812 500.61688 217.32812Q500.27313 217.82812 499.71063 218.10938Q500.36688 218.39062 500.7575 218.95312Q501.14813 219.5 501.14813 220.20312Q501.14813 221.29688 500.39813 221.96875Q499.66376 222.625 498.445 222.625Q497.21063 222.625 496.46063 221.96875Q495.72626 221.29688 495.72626 220.20312Q495.72626 219.5 496.10126 218.95312Q496.47626 218.39062 497.14813 218.10938Q496.58563 217.82812 496.2575 217.32812Q495.92938 216.82812 495.92938 216.1875Q495.92938 215.10938 496.61688 214.48438Q497.30438 213.84375 498.445 213.84375Q499.57 213.84375 500.2575 214.48438Q500.96063 215.10938 500.96063 216.1875ZM500.07 220.17188Q500.07 219.45312 499.61688 219.01562Q499.16376 218.5625 498.42938 218.5625Q497.695 218.5625 497.24188 219.01562Q496.80438 219.45312 496.80438 220.1875Q496.80438 220.90625 497.24188 221.32812Q497.67938 221.73438 498.445 221.73438Q499.195 221.73438 499.6325 221.3125Q500.07 220.89062 500.07 220.17188ZM498.445 214.73438Q497.80438 214.73438 497.39813 215.14062Q497.0075 215.53125 497.0075 216.21875Q497.0075 216.85938 497.39813 217.26562Q497.78876 217.67188 498.42938 217.67188Q499.08563 217.67188 499.47626 217.26562Q499.86688 216.85938 499.86688 216.21875Q499.86688 215.5625 499.46063 215.15625Q499.05438 214.73438 498.445 214.73438ZM508.1325 218.85938Q508.1325 220.76562 507.47626 221.70312Q506.83563 222.625 505.445 222.625Q504.08563 222.625 503.42938 221.71875Q502.77313 220.8125 502.74188 219.0L502.74188 217.5625Q502.74188 215.67188 503.3825 214.76562Q504.03876 213.84375 505.42938 213.84375Q506.80438 213.84375 507.46063 214.73438Q508.11688 215.60938 508.1325 217.45312L508.1325 218.85938ZM507.03876 217.375Q507.03876 216.0 506.64813 215.375Q506.27313 214.73438 505.42938 214.73438Q504.60126 214.73438 504.21063 215.375Q503.83563 216.0 503.83563 217.29688L503.83563 219.03125Q503.83563 220.40625 504.22626 221.07812Q504.6325 221.73438 505.445 221.73438Q506.24188 221.73438 506.6325 221.10938Q507.02313 220.48438 507.03876 219.15625L507.03876 217.375ZM509.67938 215.60938Q509.67938 214.84375 510.16376 214.34375Q510.66376 213.84375 511.42938 213.84375Q512.21063 213.84375 512.695 214.34375Q513.1794 214.84375 513.1794 215.64062L513.1794 216.0625Q513.1794 216.82812 512.6794 217.32812Q512.195 217.8125 511.445 217.8125Q510.67938 217.8125 510.17938 217.32812Q509.67938 216.82812 509.67938 216.01562L509.67938 215.60938ZM510.49188 216.0625Q510.49188 216.51562 510.74188 216.8125Q511.0075 217.10938 511.445 217.10938Q511.86688 217.10938 512.1169 216.82812Q512.3669 216.53125 512.3669 216.03125L512.3669 215.60938Q512.3669 215.15625 512.1169 214.85938Q511.86688 214.54688 511.42938 214.54688Q510.99188 214.54688 510.74188 214.85938Q510.49188 215.15625 510.49188 215.625L510.49188 216.0625ZM513.83563 220.40625Q513.83563 219.64062 514.32 219.15625Q514.82 218.65625 515.58563 218.65625Q516.35126 218.65625 516.83563 219.15625Q517.33563 219.64062 517.33563 220.45312L517.33563 220.85938Q517.33563 221.625 516.85126 222.125Q516.3669 222.625 515.60126 222.625Q514.83563 222.625 514.33563 222.14062Q513.83563 221.64062 513.83563 220.82812L513.83563 220.40625ZM514.64813 220.85938Q514.64813 221.32812 514.89813 221.625Q515.16376 221.92188 515.60126 221.92188Q516.02313 221.92188 516.27313 221.64062Q516.52313 221.34375 516.52313 220.84375L516.52313 220.40625Q516.52313 219.9375 516.2575 219.65625Q516.0075 219.35938 515.58563 219.35938Q515.16376 219.35938 514.89813 219.65625Q514.64813 219.9375 514.64813 220.4375L514.64813 220.85938ZM511.695 221.85938L511.07 221.46875L515.2419 214.79688L515.85126 215.1875L511.695 221.85938Z" fill-rule="nonzero"/><path fill="#cc0000" d="M500.96063 216.1875Q500.96063 216.82812 500.61688 217.32812Q500.27313 217.82812 499.71063 218.10938Q500.36688 218.39062 500.7575 218.95312Q501.14813 219.5 501.14813 220.20312Q501.14813 221.29688 500.39813 221.96875Q499.66376 222.625 498.445 222.625Q497.21063 222.625 496.46063 221.96875Q495.72626 221.29688 495.72626 220.20312Q495.72626 219.5 496.10126 218.95312Q496.47626 218.39062 497.14813 218.10938Q496.58563 217.82812 496.2575 217.32812Q495.92938 216.82812 495.92938 216.1875Q495.92938 215.10938 496.61688 214.48438Q497.30438 213.84375 498.445 213.84375Q499.57 213.84375 500.2575 214.48438Q500.96063 215.10938 500.96063 216.1875ZM500.07 220.17188Q500.07 219.45312 499.61688 219.01562Q499.16376 218.5625 498.42938 218.5625Q497.695 218.5625 497.24188 219.01562Q496.80438 219.45312 496.80438 220.1875Q496.80438 220.90625 497.24188 221.32812Q497.67938 221.73438 498.445 221.73438Q499.195 221.73438 499.6325 221.3125Q500.07 220.89062 500.07 220.17188ZM498.445 214.73438Q497.80438 214.73438 497.39813 215.14062Q497.0075 215.53125 497.0075 216.21875Q497.0075 216.85938 497.39813 217.26562Q497.78876 217.67188 498.42938 217.67188Q499.08563 217.67188 499.47626 217.26562Q499.86688 216.85938 499.86688 216.21875Q499.86688 215.5625 499.46063 215.15625Q499.05438 214.73438 498.445 214.73438ZM508.1325 218.85938Q508.1325 220.76562 507.47626 221.70312Q506.83563 222.625 505.445 222.625Q504.08563 222.625 503.42938 221.71875Q502.77313 220.8125 502.74188 219.0L502.74188 217.5625Q502.74188 215.67188 503.3825 214.76562Q504.03876 213.84375 505.42938 213.84375Q506.80438 213.84375 507.46063 214.73438Q508.11688 215.60938 508.1325 217.45312L508.1325 218.85938ZM507.03876 217.375Q507.03876 216.0 506.64813 215.375Q506.27313 214.73438 505.42938 214.73438Q504.60126 214.73438 504.21063 215.375Q503.83563 216.0 503.83563 217.29688L503.83563 219.03125Q503.83563 220.40625 504.22626 221.07812Q504.6325 221.73438 505.445 221.73438Q506.24188 221.73438 506.6325 221.10938Q507.02313 220.48438 507.03876 219.15625L507.03876 217.375ZM509.67938 215.60938Q509.67938 214.84375 510.16376 214.34375Q510.66376 213.84375 511.42938 213.84375Q512.21063 213.84375 512.695 214.34375Q513.1794 214.84375 513.1794 215.64062L513.1794 216.0625Q513.1794 216.82812 512.6794 217.32812Q512.195 217.8125 511.445 217.8125Q510.67938 217.8125 510.17938 217.32812Q509.67938 216.82812 509.67938 216.01562L509.67938 215.60938ZM510.49188 216.0625Q510.49188 216.51562 510.74188 216.8125Q511.0075 217.10938 511.445 217.10938Q511.86688 217.10938 512.1169 216.82812Q512.3669 216.53125 512.3669 216.03125L512.3669 215.60938Q512.3669 215.15625 512.1169 214.85938Q511.86688 214.54688 511.42938 214.54688Q510.99188 214.54688 510.74188 214.85938Q510.49188 215.15625 510.49188 215.625L510.49188 216.0625ZM513.83563 220.40625Q513.83563 219.64062 514.32 219.15625Q514.82 218.65625 515.58563 218.65625Q516.35126 218.65625 516.83563 219.15625Q517.33563 219.64062 517.33563 220.45312L517.33563 220.85938Q517.33563 221.625 516.85126 222.125Q516.3669 222.625 515.60126 222.625Q514.83563 222.625 514.33563 222.14062Q513.83563 221.64062 513.83563 220.82812L513.83563 220.40625ZM514.64813 220.85938Q514.64813 221.32812 514.89813 221.625Q515.16376 221.92188 515.60126 221.92188Q516.02313 221.92188 516.27313 221.64062Q516.52313 221.34375 516.52313 220.84375L516.52313 220.40625Q516.52313 219.9375 516.2575 219.65625Q516.0075 219.35938 515.58563 219.35938Q515.16376 219.35938 514.89813 219.65625Q514.64813 219.9375 514.64813 220.4375L514.64813 220.85938ZM511.695 221.85938L511.07 221.46875L515.2419 214.79688L515.85126 215.1875L511.695 221.85938Z" fill-rule="nonzero"/><path stroke="#ffffff" stroke-width="3.0" stroke-linejoin="round" stroke-linecap="round" d="M549.1194 260.75Q548.79126 261.15625 548.3069 261.40625Q547.83813 261.64062 547.27563 261.64062Q546.54126 261.64062 545.9944 261.28125Q545.4475 260.92188 545.15063 260.26562Q544.85376 259.59375 544.85376 258.79688Q544.85376 257.95312 545.16626 257.26562Q545.4944 256.57812 546.08813 256.21875Q546.6975 255.84375 547.4944 255.84375Q548.76 255.84375 549.47876 256.79688Q550.21313 257.75 550.21313 259.375L550.21313 259.6875Q550.21313 262.1875 549.22876 263.32812Q548.2444 264.46875 546.26 264.5L546.04126 264.5L546.04126 263.59375L546.27563 263.59375Q547.6194 263.5625 548.33813 262.89062Q549.0569 262.21875 549.1194 260.75ZM547.4475 260.75Q547.9944 260.75 548.4475 260.42188Q548.91626 260.07812 549.135 259.59375L549.135 259.15625Q549.135 258.09375 548.66626 257.42188Q548.1975 256.75 547.4944 256.75Q546.77563 256.75 546.33813 257.29688Q545.91626 257.84375 545.91626 258.75Q545.91626 259.625 546.3225 260.1875Q546.7444 260.75 547.4475 260.75ZM557.3225 260.85938Q557.3225 262.76562 556.66626 263.70312Q556.02563 264.625 554.635 264.625Q553.27563 264.625 552.6194 263.71875Q551.96313 262.8125 551.9319 261.0L551.9319 259.5625Q551.9319 257.67188 552.5725 256.76562Q553.22876 255.84375 554.6194 255.84375Q555.9944 255.84375 556.65063 256.73438Q557.3069 257.60938 557.3225 259.45312L557.3225 260.85938ZM556.22876 259.375Q556.22876 258.0 555.83813 257.375Q555.46313 256.73438 554.6194 256.73438Q553.79126 256.73438 553.40063 257.375Q553.02563 258.0 553.02563 259.29688L553.02563 261.03125Q553.02563 262.40625 553.41626 263.07812Q553.8225 263.73438 554.635 263.73438Q555.4319 263.73438 555.8225 263.10938Q556.21313 262.48438 556.22876 261.15625L556.22876 259.375ZM558.8694 257.60938Q558.8694 256.84375 559.35376 256.34375Q559.85376 255.84375 560.6194 255.84375Q561.40063 255.84375 561.885 256.34375Q562.3694 256.84375 562.3694 257.64062L562.3694 258.0625Q562.3694 258.82812 561.8694 259.32812Q561.385 259.8125 560.635 259.8125Q559.8694 259.8125 559.3694 259.32812Q558.8694 258.82812 558.8694 258.01562L558.8694 257.60938ZM559.6819 258.0625Q559.6819 258.51562 559.9319 258.8125Q560.1975 259.10938 560.635 259.10938Q561.0569 259.10938 561.3069 258.82812Q561.5569 258.53125 561.5569 258.03125L561.5569 257.60938Q561.5569 257.15625 561.3069 256.85938Q561.0569 256.54688 560.6194 256.54688Q560.1819 256.54688 559.9319 256.85938Q559.6819 257.15625 559.6819 257.625L559.6819 258.0625ZM563.02563 262.40625Q563.02563 261.64062 563.51 261.15625Q564.01 260.65625 564.77563 260.65625Q565.54126 260.65625 566.02563 261.15625Q566.52563 261.64062 566.52563 262.45312L566.52563 262.85938Q566.52563 263.625 566.04126 264.125Q565.5569 264.625 564.79126 264.625Q564.02563 264.625 563.52563 264.14062Q563.02563 263.64062 563.02563 262.82812L563.02563 262.40625ZM563.83813 262.85938Q563.83813 263.32812 564.08813 263.625Q564.35376 263.92188 564.79126 263.92188Q565.21313 263.92188 565.46313 263.64062Q565.71313 263.34375 565.71313 262.84375L565.71313 262.40625Q565.71313 261.9375 565.4475 261.65625Q565.1975 261.35938 564.77563 261.35938Q564.35376 261.35938 564.08813 261.65625Q563.83813 261.9375 563.83813 262.4375L563.83813 262.85938ZM560.885 263.85938L560.26 263.46875L564.4319 256.79688L565.04126 257.1875L560.885 263.85938Z" fill-rule="nonzero"/><path fill="#0000ff" d="M549.1194 260.75Q548.79126 261.15625 548.3069 261.40625Q547.83813 261.64062 547.27563 261.64062Q546.54126 261.64062 545.9944 261.28125Q545.4475 260.92188 545.15063 260.26562Q544.85376 259.59375 544.85376 258.79688Q544.85376 257.95312 545.16626 257.26562Q545.4944 256.57812 546.08813 256.21875Q546.6975 255.84375 547.4944 255.84375Q548.76 255.84375 549.47876 256.79688Q550.21313 257.75 550.21313 259.375L550.21313 259.6875Q550.21313 262.1875 549.22876 263.32812Q548.2444 264.46875 546.26 264.5L546.04126 264.5L546.04126 263.59375L546.27563 263.59375Q547.6194 263.5625 548.33813 262.89062Q549.0569 262.21875 549.1194 260.75ZM547.4475 260.75Q547.9944 260.75 548.4475 260.42188Q548.91626 260.07812 549.135 259.59375L549.135 259.15625Q549.135 258.09375 548.66626 257.42188Q548.1975 256.75 547.4944 256.75Q546.77563 256.75 546.33813 257.29688Q545.91626 257.84375 545.91626 258.75Q545.91626 259.625 546.3225 260.1875Q546.7444 260.75 547.4475 260.75ZM557.3225 260.85938Q557.3225 262.76562 556.66626 263.70312Q556.02563 264.625 554.635 264.625Q553.27563 264.625 552.6194 263.71875Q551.96313 262.8125 551.9319 261.0L551.9319 259.5625Q551.9319 257.67188 552.5725 256.76562Q553.22876 255.84375 554.6194 255.84375Q555.9944 255.84375 556.65063 256.73438Q557.3069 257.60938 557.3225 259.45312L557.3225 260.85938ZM556.22876 259.375Q556.22876 258.0 555.83813 257.375Q555.46313 256.73438 554.6194 256.73438Q553.79126 256.73438 553.40063 257.375Q553.02563 258.0 553.02563 259.29688L553.02563 261.03125Q553.02563 262.40625 553.41626 263.07812Q553.8225 263.73438 554.635 263.73438Q555.4319 263.73438 555.8225 263.10938Q556.21313 262.48438 556.22876 261.15625L556.22876 259.375ZM558.8694 257.60938Q558.8694 256.84375 559.35376 256.34375Q559.85376 255.84375 560.6194 255.84375Q561.40063 255.84375 561.885 256.34375Q562.3694 256.84375 562.3694 257.64062L562.3694 258.0625Q562.3694 258.82812 561.8694 259.32812Q561.385 259.8125 560.635 259.8125Q559.8694 259.8125 559.3694 259.32812Q558.8694 258.82812 558.8694 258.01562L558.8694 257.60938ZM559.6819 258.0625Q559.6819 258.51562 559.9319 258.8125Q560.1975 259.10938 560.635 259.10938Q561.0569 259.10938 561.3069 258.82812Q561.5569 258.53125 561.5569 258.03125L561.5569 257.60938Q561.5569 257.15625 561.3069 256.85938Q561.0569 256.54688 560.6194 256.54688Q560.1819 256.54688 559.9319 256.85938Q559.6819 257.15625 559.6819 257.625L559.6819 258.0625ZM563.02563 262.40625Q563.02563 261.64062 563.51 261.15625Q564.01 260.65625 564.77563 260.65625Q565.54126 260.65625 566.02563 261.15625Q566.52563 261.64062 566.52563 262.45312L566.52563 262.85938Q566.52563 263.625 566.04126 264.125Q565.5569 264.625 564.79126 264.625Q564.02563 264.625 563.52563 264.14062Q563.02563 263.64062 563.02563 262.82812L563.02563 262.40625ZM563.83813 262.85938Q563.83813 263.32812 564.08813 263.625Q564.35376 263.92188 564.79126 263.92188Q565.21313 263.92188 565.46313 263.64062Q565.71313 263.34375 565.71313 262.84375L565.71313 262.40625Q565.71313 261.9375 565.4475 261.65625Q565.1975 261.35938 564.77563 261.35938Q564.35376 261.35938 564.08813 261.65625Q563.83813 261.9375 563.83813 262.4375L563.83813 262.85938ZM560.885 263.85938L560.26 263.46875L564.4319 256.79688L565.04126 257.1875L560.885 263.85938Z" fill-rule="nonzero"/><path stroke="#ffffff" stroke-width="3.0" stroke-linejoin="round" stroke-linecap="round" d="M155.00563 307.5L153.9275 307.5L153.9275 300.28125L151.74 301.07812L151.74 300.09375L154.84938 298.92188L155.00563 298.92188L155.00563 307.5ZM163.8025 303.85938Q163.8025 305.76562 163.14626 306.70312Q162.50563 307.625 161.115 307.625Q159.75563 307.625 159.09938 306.71875Q158.44313 305.8125 158.41188 304.0L158.41188 302.5625Q158.41188 300.67188 159.0525 299.76562Q159.70876 298.84375 161.09938 298.84375Q162.47438 298.84375 163.13063 299.73438Q163.78688 300.60938 163.8025 302.45312L163.8025 303.85938ZM162.70876 302.375Q162.70876 301.0 162.31813 300.375Q161.94313 299.73438 161.09938 299.73438Q160.27126 299.73438 159.88063 300.375Q159.50563 301.0 159.50563 302.29688L159.50563 304.03125Q159.50563 305.40625 159.89626 306.07812Q160.3025 306.73438 161.115 306.73438Q161.91188 306.73438 162.3025 306.10938Q162.69313 305.48438 162.70876 304.15625L162.70876 302.375ZM165.34938 300.60938Q165.34938 299.84375 165.83376 299.34375Q166.33376 298.84375 167.09938 298.84375Q167.88063 298.84375 168.365 299.34375Q168.84938 299.84375 168.84938 300.64062L168.84938 301.0625Q168.84938 301.82812 168.34938 302.32812Q167.865 302.8125 167.115 302.8125Q166.34938 302.8125 165.84938 302.32812Q165.34938 301.82812 165.34938 301.01562L165.34938 300.60938ZM166.16188 301.0625Q166.16188 301.51562 166.41188 301.8125Q166.6775 302.10938 167.115 302.10938Q167.53688 302.10938 167.78688 301.82812Q168.03688 301.53125 168.03688 301.03125L168.03688 300.60938Q168.03688 300.15625 167.78688 299.85938Q167.53688 299.54688 167.09938 299.54688Q166.66188 299.54688 166.41188 299.85938Q166.16188 300.15625 166.16188 300.625L166.16188 301.0625ZM169.50563 305.40625Q169.50563 304.64062 169.99 304.15625Q170.49 303.65625 171.25563 303.65625Q172.02126 303.65625 172.50563 304.15625Q173.00563 304.64062 173.00563 305.45312L173.00563 305.85938Q173.00563 306.625 172.52126 307.125Q172.03688 307.625 171.27126 307.625Q170.50563 307.625 170.00563 307.14062Q169.50563 306.64062 169.50563 305.82812L169.50563 305.40625ZM170.31813 305.85938Q170.31813 306.32812 170.56813 306.625Q170.83376 306.92188 171.27126 306.92188Q171.69313 306.92188 171.94313 306.64062Q172.19313 306.34375 172.19313 305.84375L172.19313 305.40625Q172.19313 304.9375 171.9275 304.65625Q171.6775 304.35938 171.25563 304.35938Q170.83376 304.35938 170.56813 304.65625Q170.31813 304.9375 170.31813 305.4375L170.31813 305.85938ZM167.365 306.85938L166.74 306.46875L170.91188 299.79688L171.52126 300.1875L167.365 306.85938Z" fill-rule="nonzero"/><path fill="#4a86e8" d="M155.00563 307.5L153.9275 307.5L153.9275 300.28125L151.74 301.07812L151.74 300.09375L154.84938 298.92188L155.00563 298.92188L155.00563 307.5ZM163.8025 303.85938Q163.8025 305.76562 163.14626 306.70312Q162.50563 307.625 161.115 307.625Q159.75563 307.625 159.09938 306.71875Q158.44313 305.8125 158.41188 304.0L158.41188 302.5625Q158.41188 300.67188 159.0525 299.76562Q159.70876 298.84375 161.09938 298.84375Q162.47438 298.84375 163.13063 299.73438Q163.78688 300.60938 163.8025 302.45312L163.8025 303.85938ZM162.70876 302.375Q162.70876 301.0 162.31813 300.375Q161.94313 299.73438 161.09938 299.73438Q160.27126 299.73438 159.88063 300.375Q159.50563 301.0 159.50563 302.29688L159.50563 304.03125Q159.50563 305.40625 159.89626 306.07812Q160.3025 306.73438 161.115 306.73438Q161.91188 306.73438 162.3025 306.10938Q162.69313 305.48438 162.70876 304.15625L162.70876 302.375ZM165.34938 300.60938Q165.34938 299.84375 165.83376 299.34375Q166.33376 298.84375 167.09938 298.84375Q167.88063 298.84375 168.365 299.34375Q168.84938 299.84375 168.84938 300.64062L168.84938 301.0625Q168.84938 301.82812 168.34938 302.32812Q167.865 302.8125 167.115 302.8125Q166.34938 302.8125 165.84938 302.32812Q165.34938 301.82812 165.34938 301.01562L165.34938 300.60938ZM166.16188 301.0625Q166.16188 301.51562 166.41188 301.8125Q166.6775 302.10938 167.115 302.10938Q167.53688 302.10938 167.78688 301.82812Q168.03688 301.53125 168.03688 301.03125L168.03688 300.60938Q168.03688 300.15625 167.78688 299.85938Q167.53688 299.54688 167.09938 299.54688Q166.66188 299.54688 166.41188 299.85938Q166.16188 300.15625 166.16188 300.625L166.16188 301.0625ZM169.50563 305.40625Q169.50563 304.64062 169.99 304.15625Q170.49 303.65625 171.25563 303.65625Q172.02126 303.65625 172.50563 304.15625Q173.00563 304.64062 173.00563 305.45312L173.00563 305.85938Q173.00563 306.625 172.52126 307.125Q172.03688 307.625 171.27126 307.625Q170.50563 307.625 170.00563 307.14062Q169.50563 306.64062 169.50563 305.82812L169.50563 305.40625ZM170.31813 305.85938Q170.31813 306.32812 170.56813 306.625Q170.83376 306.92188 171.27126 306.92188Q171.69313 306.92188 171.94313 306.64062Q172.19313 306.34375 172.19313 305.84375L172.19313 305.40625Q172.19313 304.9375 171.9275 304.65625Q171.6775 304.35938 171.25563 304.35938Q170.83376 304.35938 170.56813 304.65625Q170.31813 304.9375 170.31813 305.4375L170.31813 305.85938ZM167.365 306.85938L166.74 306.46875L170.91188 299.79688L171.52126 300.1875L167.365 306.85938Z" fill-rule="nonzero"/><path fill="#757575" d="M45.675 48.33259L43.659374 48.33259L43.659374 51.785713L42.534374 51.785713L42.534374 43.254463L45.3625 43.254463Q46.8 43.254463 47.565624 43.910713Q48.346874 44.566963 48.346874 45.816963Q48.346874 46.61384 47.909374 47.20759Q47.4875 47.80134 46.721874 48.098213L48.721874 51.70759L48.721874 51.785713L47.51875 51.785713L45.675 48.33259ZM43.659374 47.410713L45.39375 47.410713Q46.2375 47.410713 46.721874 46.98884Q47.221874 46.55134 47.221874 45.816963Q47.221874 45.035713 46.753124 44.61384Q46.284374 44.191963 45.39375 44.17634L43.659374 44.17634L43.659374 47.410713ZM52.003124 51.910713Q50.70625 51.910713 49.89375 51.066963Q49.096874 50.20759 49.096874 48.785713L49.096874 48.598213Q49.096874 47.64509 49.45625 46.910713Q49.815624 46.160713 50.45625 45.754463Q51.1125 45.33259 51.8625 45.33259Q53.096874 45.33259 53.784374 46.14509Q54.471874 46.95759 54.471874 48.473213L54.471874 48.92634L50.175 48.92634Q50.20625 49.86384 50.721874 50.441963Q51.253124 51.02009 52.065624 51.02009Q52.628124 51.02009 53.01875 50.785713Q53.425 50.55134 53.7375 50.160713L54.39375 50.67634Q53.596874 51.910713 52.003124 51.910713ZM51.8625 46.223213Q51.20625 46.223213 50.753124 46.70759Q50.315624 47.17634 50.221874 48.035713L53.39375 48.035713L53.39375 47.95759Q53.346874 47.129463 52.940624 46.67634Q52.55 46.223213 51.8625 46.223213ZM59.284374 51.785713Q59.190624 51.598213 59.128124 51.11384Q58.378124 51.910713 57.33125 51.910713Q56.39375 51.910713 55.784374 51.379463Q55.190624 50.848213 55.190624 50.02009Q55.190624 49.035713 55.940624 48.48884Q56.690624 47.941963 58.065624 47.941963L59.1125 47.941963L59.1125 47.441963Q59.1125 46.879463 58.76875 46.55134Q58.440624 46.20759 57.76875 46.20759Q57.190624 46.20759 56.8 46.504463Q56.409374 46.785713 56.409374 47.20759L55.315624 47.20759Q55.315624 46.723213 55.64375 46.285713Q55.9875 45.848213 56.565624 45.598213Q57.14375 45.33259 57.83125 45.33259Q58.940624 45.33259 59.55 45.879463Q60.175 46.42634 60.20625 47.379463L60.20625 50.30134Q60.20625 51.17634 60.425 51.691963L60.425 51.785713L59.284374 51.785713ZM57.4875 50.95759Q58.003124 50.95759 58.45625 50.691963Q58.909374 50.42634 59.1125 50.004463L59.1125 48.70759L58.26875 48.70759Q56.26875 48.70759 56.26875 49.879463Q56.26875 50.379463 56.6125 50.67634Q56.95625 50.95759 57.4875 50.95759ZM64.90938 51.02009Q65.4875 51.02009 65.925 50.67634Q66.3625 50.316963 66.40938 49.785713L67.44063 49.785713Q67.40938 50.33259 67.05 50.83259Q66.70625 51.316963 66.12813 51.61384Q65.56563 51.910713 64.90938 51.910713Q63.6125 51.910713 62.846874 51.05134Q62.096874 50.17634 62.096874 48.67634L62.096874 48.48884Q62.096874 47.566963 62.425 46.848213Q62.76875 46.129463 63.39375 45.73884Q64.03438 45.33259 64.90938 45.33259Q65.97188 45.33259 66.675 45.973213Q67.39375 46.598213 67.44063 47.629463L66.40938 47.629463Q66.3625 47.004463 65.94063 46.61384Q65.51875 46.223213 64.90938 46.223213Q64.08125 46.223213 63.628124 46.816963Q63.175 47.410713 63.175 48.535713L63.175 48.73884Q63.175 49.83259 63.628124 50.42634Q64.08125 51.02009 64.90938 51.02009ZM69.84688 43.910713L69.84688 45.441963L71.01875 45.441963L71.01875 46.285713L69.84688 46.285713L69.84688 50.20759Q69.84688 50.598213 70.00313 50.785713Q70.15938 50.973213 70.53438 50.973213Q70.72188 50.973213 71.05 50.910713L71.05 51.785713Q70.62813 51.910713 70.22188 51.910713Q69.50313 51.910713 69.12813 51.473213Q68.75313 51.02009 68.75313 50.20759L68.75313 46.285713L67.59688 46.285713L67.59688 45.441963L68.75313 45.441963L68.75313 43.910713L69.84688 43.910713ZM72.39375 51.223213Q72.39375 50.941963 72.55 50.754463Q72.72188 50.566963 73.05 50.566963Q73.39375 50.566963 73.56563 50.754463Q73.7375 50.941963 73.7375 51.223213Q73.7375 51.48884 73.56563 51.67634Q73.39375 51.848213 73.05 51.848213Q72.72188 51.848213 72.55 51.67634Q72.39375 51.48884 72.39375 51.223213ZM76.4875 45.441963L76.4875 52.52009Q76.4875 54.348213 74.83125 54.348213Q74.47188 54.348213 74.175 54.23884L74.175 53.379463Q74.3625 53.42634 74.65938 53.42634Q75.01875 53.42634 75.20625 53.223213Q75.40938 53.035713 75.40938 52.535713L75.40938 45.441963L76.4875 45.441963ZM75.3 43.77009Q75.3 43.504463 75.45625 43.316963Q75.6125 43.129463 75.925 43.129463Q76.2375 43.129463 76.39375 43.316963Q76.56563 43.504463 76.56563 43.77009Q76.56563 44.02009 76.39375 44.20759Q76.2375 44.379463 75.925 44.379463Q75.6125 44.379463 75.45625 44.20759Q75.3 44.02009 75.3 43.77009ZM82.06563 50.098213Q82.06563 49.660713 81.72188 49.42634Q81.39375 49.17634 80.56563 49.004463Q79.75313 48.83259 79.26875 48.58259Q78.78438 48.33259 78.55 48.004463Q78.33125 47.660713 78.33125 47.191963Q78.33125 46.410713 78.9875 45.879463Q79.64375 45.33259 80.675 45.33259Q81.75313 45.33259 82.40938 45.89509Q83.08125 46.441963 83.08125 47.30134L82.00313 47.30134Q82.00313 46.86384 81.6125 46.55134Q81.2375 46.223213 80.675 46.223213Q80.08125 46.223213 79.7375 46.48884Q79.40938 46.73884 79.40938 47.14509Q79.40938 47.535713 79.72188 47.73884Q80.03438 47.941963 80.84688 48.129463Q81.65938 48.30134 82.15938 48.55134Q82.65938 48.80134 82.89375 49.160713Q83.14375 49.52009 83.14375 50.02009Q83.14375 50.879463 82.45625 51.39509Q81.78438 51.910713 80.70625 51.910713Q79.94063 51.910713 79.34688 51.64509Q78.76875 51.36384 78.44063 50.879463Q78.1125 50.39509 78.1125 49.83259L79.19063 49.83259Q79.22188 50.379463 79.62813 50.70759Q80.03438 51.02009 80.70625 51.02009Q81.31563 51.02009 81.69063 50.77009Q82.06563 50.52009 82.06563 50.098213Z" fill-rule="nonzero"/><path fill="#757575" d="M50.096874 94.35714L48.971874 94.35714L44.675 87.779015L44.675 94.35714L43.534374 94.35714L43.534374 85.82589L44.675 85.82589L48.971874 92.435265L48.971874 85.82589L50.096874 85.82589L50.096874 94.35714ZM52.08125 91.122765Q52.08125 90.20089 52.440624 89.45089Q52.815624 88.70089 53.471874 88.310265Q54.128124 87.904015 54.95625 87.904015Q56.253124 87.904015 57.05 88.79464Q57.8625 89.685265 57.8625 91.185265L57.8625 91.26339Q57.8625 92.185265 57.503124 92.91964Q57.14375 93.654015 56.4875 94.07589Q55.83125 94.48214 54.971874 94.48214Q53.690624 94.48214 52.878124 93.591515Q52.08125 92.685265 52.08125 91.20089L52.08125 91.122765ZM53.175 91.26339Q53.175 92.310265 53.659374 92.95089Q54.159374 93.591515 54.971874 93.591515Q55.8 93.591515 56.284374 92.95089Q56.76875 92.29464 56.76875 91.122765Q56.76875 90.091515 56.26875 89.45089Q55.784374 88.79464 54.95625 88.79464Q54.159374 88.79464 53.659374 89.435265Q53.175 90.060265 53.175 91.26339ZM59.1125 91.13839Q59.1125 89.66964 59.8 88.79464Q60.4875 87.904015 61.6125 87.904015Q62.721874 87.904015 63.378124 88.654015L63.378124 85.35714L64.45625 85.35714L64.45625 94.35714L63.45625 94.35714L63.409374 93.66964Q62.753124 94.48214 61.596874 94.48214Q60.503124 94.48214 59.8 93.57589Q59.1125 92.66964 59.1125 91.216515L59.1125 91.13839ZM60.190624 91.26339Q60.190624 92.341515 60.628124 92.95089Q61.08125 93.560265 61.8625 93.560265Q62.89375 93.560265 63.378124 92.622765L63.378124 89.716515Q62.89375 88.82589 61.878124 88.82589Q61.08125 88.82589 60.628124 89.435265Q60.190624 90.04464 60.190624 91.26339ZM69.00313 94.48214Q67.70625 94.48214 66.89375 93.63839Q66.09688 92.779015 66.09688 91.35714L66.09688 91.16964Q66.09688 90.216515 66.45625 89.48214Q66.81563 88.73214 67.45625 88.32589Q68.1125 87.904015 68.8625 87.904015Q70.09688 87.904015 70.78438 88.716515Q71.47188 89.529015 71.47188 91.04464L71.47188 91.497765L67.175 91.497765Q67.20625 92.435265 67.72188 93.01339Q68.25313 93.591515 69.06563 93.591515Q69.62813 93.591515 70.01875 93.35714Q70.425 93.122765 70.7375 92.73214L71.39375 93.247765Q70.59688 94.48214 69.00313 94.48214ZM68.8625 88.79464Q68.20625 88.79464 67.75313 89.279015Q67.31563 89.747765 67.22188 90.60714L70.39375 90.60714L70.39375 90.529015Q70.34688 89.70089 69.94063 89.247765Q69.55 88.79464 68.8625 88.79464ZM72.39375 93.79464Q72.39375 93.51339 72.55 93.32589Q72.72188 93.13839 73.05 93.13839Q73.39375 93.13839 73.56563 93.32589Q73.7375 93.51339 73.7375 93.79464Q73.7375 94.060265 73.56563 94.247765Q73.39375 94.41964 73.05 94.41964Q72.72188 94.41964 72.55 94.247765Q72.39375 94.060265 72.39375 93.79464ZM76.4875 88.01339L76.4875 95.091515Q76.4875 96.91964 74.83125 96.91964Q74.47188 96.91964 74.175 96.810265L74.175 95.95089Q74.3625 95.997765 74.65938 95.997765Q75.01875 95.997765 75.20625 95.79464Q75.40938 95.60714 75.40938 95.10714L75.40938 88.01339L76.4875 88.01339ZM75.3 86.341515Q75.3 86.07589 75.45625 85.88839Q75.6125 85.70089 75.925 85.70089Q76.2375 85.70089 76.39375 85.88839Q76.56563 86.07589 76.56563 86.341515Q76.56563 86.591515 76.39375 86.779015Q76.2375 86.95089 75.925 86.95089Q75.6125 86.95089 75.45625 86.779015Q75.3 86.591515 75.3 86.341515ZM82.06563 92.66964Q82.06563 92.23214 81.72188 91.997765Q81.39375 91.747765 80.56563 91.57589Q79.75313 91.404015 79.26875 91.154015Q78.78438 90.904015 78.55 90.57589Q78.33125 90.23214 78.33125 89.76339Q78.33125 88.98214 78.9875 88.45089Q79.64375 87.904015 80.675 87.904015Q81.75313 87.904015 82.40938 88.466515Q83.08125 89.01339 83.08125 89.872765L82.00313 89.872765Q82.00313 89.435265 81.6125 89.122765Q81.2375 88.79464 80.675 88.79464Q80.08125 88.79464 79.7375 89.060265Q79.40938 89.310265 79.40938 89.716515Q79.40938 90.10714 79.72188 90.310265Q80.03438 90.51339 80.84688 90.70089Q81.65938 90.872765 82.15938 91.122765Q82.65938 91.372765 82.89375 91.73214Q83.14375 92.091515 83.14375 92.591515Q83.14375 93.45089 82.45625 93.966515Q81.78438 94.48214 80.70625 94.48214Q79.94063 94.48214 79.34688 94.216515Q78.76875 93.935265 78.44063 93.45089Q78.1125 92.966515 78.1125 92.404015L79.19063 92.404015Q79.22188 92.95089 79.62813 93.279015Q80.03438 93.591515 80.70625 93.591515Q81.31563 93.591515 81.69063 93.341515Q82.06563 93.091515 82.06563 92.66964Z" fill-rule="nonzero"/><path fill="#757575" d="M43.846874 135.80357Q43.409374 136.42857 42.628124 136.74107Q41.846874 137.05357 40.815624 137.05357Q39.784374 137.05357 38.971874 136.5692Q38.159374 136.0692 37.721874 135.16295Q37.284374 134.2567 37.26875 133.0692L37.26875 132.33482Q37.26875 130.39732 38.159374 129.33482Q39.065624 128.27232 40.690624 128.27232Q42.034374 128.27232 42.846874 128.95982Q43.659374 129.64732 43.846874 130.89732L42.721874 130.89732Q42.39375 129.20982 40.70625 129.20982Q39.565624 129.20982 38.9875 130.0067Q38.409374 130.78795 38.39375 132.30357L38.39375 132.99107Q38.39375 134.42857 39.05 135.28795Q39.70625 136.1317 40.83125 136.1317Q41.45625 136.1317 41.925 135.99107Q42.409374 135.85045 42.721874 135.5067L42.721874 133.60045L40.753124 133.60045L40.753124 132.67857L43.846874 132.67857L43.846874 135.80357ZM48.440624 131.55357Q48.190624 131.52232 47.909374 131.52232Q46.83125 131.52232 46.45625 132.42857L46.45625 136.92857L45.378124 136.92857L45.378124 130.58482L46.425 130.58482L46.440624 131.3192Q46.971874 130.47545 47.95625 130.47545Q48.26875 130.47545 48.440624 130.55357L48.440624 131.55357ZM53.284374 136.92857Q53.190624 136.74107 53.128124 136.2567Q52.378124 137.05357 51.33125 137.05357Q50.39375 137.05357 49.784374 136.52232Q49.190624 135.99107 49.190624 135.16295Q49.190624 134.17857 49.940624 133.6317Q50.690624 133.08482 52.065624 133.08482L53.1125 133.08482L53.1125 132.58482Q53.1125 132.02232 52.76875 131.6942Q52.440624 131.35045 51.76875 131.35045Q51.190624 131.35045 50.8 131.64732Q50.409374 131.92857 50.409374 132.35045L49.315624 132.35045Q49.315624 131.86607 49.64375 131.42857Q49.9875 130.99107 50.565624 130.74107Q51.14375 130.47545 51.83125 130.47545Q52.940624 130.47545 53.55 131.02232Q54.175 131.5692 54.20625 132.52232L54.20625 135.4442Q54.20625 136.3192 54.425 136.83482L54.425 136.92857L53.284374 136.92857ZM51.4875 136.10045Q52.003124 136.10045 52.45625 135.83482Q52.909374 135.5692 53.1125 135.14732L53.1125 133.85045L52.26875 133.85045Q50.26875 133.85045 50.26875 135.02232Q50.26875 135.52232 50.6125 135.8192Q50.95625 136.10045 51.4875 136.10045ZM61.721874 133.83482Q61.721874 135.27232 61.065624 136.16295Q60.409374 137.05357 59.26875 137.05357Q58.1125 137.05357 57.45625 136.3192L57.45625 139.36607L56.378124 139.36607L56.378124 130.58482L57.3625 130.58482L57.409374 131.28795Q58.08125 130.47545 59.253124 130.47545Q60.39375 130.47545 61.05 131.33482Q61.721874 132.1942 61.721874 133.72545L61.721874 133.83482ZM60.64375 133.70982Q60.64375 132.6317 60.175 132.02232Q59.721874 131.39732 58.925 131.39732Q57.940624 131.39732 57.45625 132.2567L57.45625 135.28795Q57.940624 136.16295 58.940624 136.16295Q59.721874 136.16295 60.175 135.55357Q60.64375 134.92857 60.64375 133.70982ZM64.45625 131.35045Q65.175 130.47545 66.33125 130.47545Q68.34688 130.47545 68.3625 132.74107L68.3625 136.92857L67.26875 136.92857L67.26875 132.72545Q67.26875 132.05357 66.95625 131.72545Q66.65938 131.39732 66.00313 131.39732Q65.47188 131.39732 65.06563 131.67857Q64.675 131.95982 64.45625 132.41295L64.45625 136.92857L63.378124 136.92857L63.378124 127.92857L64.45625 127.92857L64.45625 131.35045ZM77.05 132.9442Q77.05 134.17857 76.65938 135.0692Q76.26875 135.95982 75.56563 136.45982L77.08125 137.66295L76.31563 138.36607L74.51875 136.9442Q74.09688 137.05357 73.62813 137.05357Q72.62813 137.05357 71.84688 136.55357Q71.06563 136.05357 70.62813 135.14732Q70.20625 134.22545 70.19063 133.0067L70.19063 132.39732Q70.19063 131.16295 70.6125 130.22545Q71.05 129.28795 71.83125 128.78795Q72.6125 128.27232 73.6125 128.27232Q74.64375 128.27232 75.425 128.77232Q76.20625 129.27232 76.62813 130.20982Q77.05 131.14732 77.05 132.39732L77.05 132.9442ZM75.925 132.3817Q75.925 130.8817 75.33125 130.0692Q74.7375 129.24107 73.6125 129.24107Q72.55 129.24107 71.94063 130.05357Q71.33125 130.86607 71.31563 132.30357L71.31563 132.9442Q71.31563 134.39732 71.925 135.24107Q72.53438 136.08482 73.62813 136.08482Q74.72188 136.08482 75.31563 135.30357Q75.90938 134.5067 75.925 133.02232L75.925 132.3817ZM79.675 136.0067L83.72188 136.0067L83.72188 136.92857L78.53438 136.92857L78.53438 128.39732L79.675 128.39732L79.675 136.0067Z" fill-rule="nonzero"/><path fill="#757575" d="M30.1125 170.96875L31.253124 170.96875L31.253124 177.01562Q31.253124 178.23438 30.503124 178.9375Q29.76875 179.625 28.55 179.625Q27.284374 179.625 26.565624 178.96875Q25.8625 178.3125 25.8625 177.14062L26.9875 177.14062Q26.9875 177.875 27.378124 178.29688Q27.784374 178.70312 28.55 178.70312Q29.253124 178.70312 29.675 178.26562Q30.1125 177.8125 30.1125 177.03125L30.1125 170.96875ZM37.284374 179.5Q37.190624 179.3125 37.128124 178.82812Q36.378124 179.625 35.33125 179.625Q34.39375 179.625 33.784374 179.09375Q33.190624 178.5625 33.190624 177.73438Q33.190624 176.75 33.940624 176.20312Q34.690624 175.65625 36.065624 175.65625L37.1125 175.65625L37.1125 175.15625Q37.1125 174.59375 36.76875 174.26562Q36.440624 173.92188 35.76875 173.92188Q35.190624 173.92188 34.8 174.21875Q34.409374 174.5 34.409374 174.92188L33.315624 174.92188Q33.315624 174.4375 33.64375 174.0Q33.9875 173.5625 34.565624 173.3125Q35.14375 173.04688 35.83125 173.04688Q36.940624 173.04688 37.55 173.59375Q38.175 174.14062 38.20625 175.09375L38.20625 178.01562Q38.20625 178.89062 38.425 179.40625L38.425 179.5L37.284374 179.5ZM35.4875 178.67188Q36.003124 178.67188 36.45625 178.40625Q36.909374 178.14062 37.1125 177.71875L37.1125 176.42188L36.26875 176.42188Q34.26875 176.42188 34.26875 177.59375Q34.26875 178.09375 34.6125 178.39062Q34.95625 178.67188 35.4875 178.67188ZM42.45625 178.03125L44.034374 173.15625L45.14375 173.15625L42.8625 179.5L42.034374 179.5L39.7375 173.15625L40.846874 173.15625L42.45625 178.03125ZM50.284374 179.5Q50.190624 179.3125 50.128124 178.82812Q49.378124 179.625 48.33125 179.625Q47.39375 179.625 46.784374 179.09375Q46.190624 178.5625 46.190624 177.73438Q46.190624 176.75 46.940624 176.20312Q47.690624 175.65625 49.065624 175.65625L50.1125 175.65625L50.1125 175.15625Q50.1125 174.59375 49.76875 174.26562Q49.440624 173.92188 48.76875 173.92188Q48.190624 173.92188 47.8 174.21875Q47.409374 174.5 47.409374 174.92188L46.315624 174.92188Q46.315624 174.4375 46.64375 174.0Q46.9875 173.5625 47.565624 173.3125Q48.14375 173.04688 48.83125 173.04688Q49.940624 173.04688 50.55 173.59375Q51.175 174.14062 51.20625 175.09375L51.20625 178.01562Q51.20625 178.89062 51.425 179.40625L51.425 179.5L50.284374 179.5ZM48.4875 178.67188Q49.003124 178.67188 49.45625 178.40625Q49.909374 178.14062 50.1125 177.71875L50.1125 176.42188L49.26875 176.42188Q47.26875 176.42188 47.26875 177.59375Q47.26875 178.09375 47.6125 178.39062Q47.95625 178.67188 48.4875 178.67188ZM56.05 175.70312Q54.6125 175.28125 53.940624 174.67188Q53.284374 174.0625 53.284374 173.17188Q53.284374 172.17188 54.08125 171.51562Q54.89375 170.84375 56.190624 170.84375Q57.065624 170.84375 57.753124 171.1875Q58.440624 171.53125 58.815624 172.125Q59.20625 172.71875 59.20625 173.4375L58.065624 173.4375Q58.065624 172.65625 57.565624 172.21875Q57.08125 171.78125 56.190624 171.78125Q55.3625 171.78125 54.89375 172.15625Q54.425 172.51562 54.425 173.15625Q54.425 173.6875 54.8625 174.04688Q55.315624 174.40625 56.378124 174.70312Q57.440624 175.0 58.034374 175.35938Q58.64375 175.71875 58.925 176.20312Q59.221874 176.6875 59.221874 177.32812Q59.221874 178.375 58.409374 179.0Q57.596874 179.625 56.253124 179.625Q55.3625 179.625 54.596874 179.28125Q53.846874 178.9375 53.425 178.35938Q53.01875 177.76562 53.01875 177.03125L54.14375 177.03125Q54.14375 177.79688 54.721874 178.25Q55.3 178.70312 56.253124 178.70312Q57.14375 178.70312 57.6125 178.34375Q58.08125 177.96875 58.08125 177.34375Q58.08125 176.71875 57.64375 176.375Q57.20625 176.03125 56.05 175.70312ZM62.909374 178.73438Q63.4875 178.73438 63.925 178.39062Q64.3625 178.03125 64.40938 177.5L65.44063 177.5Q65.40938 178.04688 65.05 178.54688Q64.70625 179.03125 64.12813 179.32812Q63.565624 179.625 62.909374 179.625Q61.6125 179.625 60.846874 178.76562Q60.096874 177.89062 60.096874 176.39062L60.096874 176.20312Q60.096874 175.28125 60.425 174.5625Q60.76875 173.84375 61.39375 173.45312Q62.034374 173.04688 62.909374 173.04688Q63.971874 173.04688 64.675 173.6875Q65.39375 174.3125 65.44063 175.34375L64.40938 175.34375Q64.3625 174.71875 63.940624 174.32812Q63.51875 173.9375 62.909374 173.9375Q62.08125 173.9375 61.628124 174.53125Q61.175 175.125 61.175 176.25L61.175 176.45312Q61.175 177.54688 61.628124 178.14062Q62.08125 178.73438 62.909374 178.73438ZM69.44063 174.125Q69.19063 174.09375 68.90938 174.09375Q67.83125 174.09375 67.45625 175.0L67.45625 179.5L66.37813 179.5L66.37813 173.15625L67.425 173.15625L67.44063 173.89062Q67.97188 173.04688 68.95625 173.04688Q69.26875 173.04688 69.44063 173.125L69.44063 174.125ZM71.55 179.5L70.47188 179.5L70.47188 173.15625L71.55 173.15625L71.55 179.5ZM70.37813 171.48438Q70.37813 171.21875 70.53438 171.03125Q70.70625 170.84375 71.01875 170.84375Q71.33125 170.84375 71.4875 171.03125Q71.65938 171.21875 71.65938 171.48438Q71.65938 171.73438 71.4875 171.92188Q71.33125 172.09375 71.01875 172.09375Q70.70625 172.09375 70.53438 171.92188Q70.37813 171.73438 70.37813 171.48438ZM78.72188 176.40625Q78.72188 177.84375 78.06563 178.73438Q77.40938 179.625 76.26875 179.625Q75.1125 179.625 74.45625 178.89062L74.45625 181.9375L73.37813 181.9375L73.37813 173.15625L74.3625 173.15625L74.40938 173.85938Q75.08125 173.04688 76.25313 173.04688Q77.39375 173.04688 78.05 173.90625Q78.72188 174.76562 78.72188 176.29688L78.72188 176.40625ZM77.64375 176.28125Q77.64375 175.20312 77.175 174.59375Q76.72188 173.96875 75.925 173.96875Q74.94063 173.96875 74.45625 174.82812L74.45625 177.85938Q74.94063 178.73438 75.94063 178.73438Q76.72188 178.73438 77.175 178.125Q77.64375 177.5 77.64375 176.28125ZM81.84688 171.625L81.84688 173.15625L83.01875 173.15625L83.01875 174.0L81.84688 174.0L81.84688 177.92188Q81.84688 178.3125 82.00313 178.5Q82.15938 178.6875 82.53438 178.6875Q82.72188 178.6875 83.05 178.625L83.05 179.5Q82.62813 179.625 82.22188 179.625Q81.50313 179.625 81.12813 179.1875Q80.75313 178.73438 80.75313 177.92188L80.75313 174.0L79.59688 174.0L79.59688 173.15625L80.75313 173.15625L80.75313 171.625L81.84688 171.625Z" fill-rule="nonzero"/><path fill="#757575" d="M59.096874 222.07143L57.971874 222.07143L57.971874 218.13393L53.659374 218.13393L53.659374 222.07143L52.534374 222.07143L52.534374 213.54018L53.659374 213.54018L53.659374 217.21205L57.971874 217.21205L57.971874 213.54018L59.096874 213.54018L59.096874 222.07143ZM67.44063 214.46205L64.69063 214.46205L64.69063 222.07143L63.58125 222.07143L63.58125 214.46205L60.83125 214.46205L60.83125 213.54018L67.44063 213.54018L67.44063 214.46205ZM69.9875 213.54018L72.78438 220.4933L75.56563 213.54018L77.03438 213.54018L77.03438 222.07143L75.90938 222.07143L75.90938 218.7433L76.01875 215.16518L73.20625 222.07143L72.34688 222.07143L69.55 215.1808L69.65938 218.7433L69.65938 222.07143L68.53438 222.07143L68.53438 213.54018L69.9875 213.54018ZM79.675 221.14955L83.72188 221.14955L83.72188 222.07143L78.53438 222.07143L78.53438 213.54018L79.675 213.54018L79.675 221.14955Z" fill-rule="nonzero"/><path fill="#757575" d="M68.81563 261.93973Q68.65938 263.28348 67.81563 264.03348Q66.97188 264.76785 65.58125 264.76785Q64.06563 264.76785 63.159374 263.68973Q62.253124 262.59598 62.253124 260.76785L62.253124 259.95535Q62.253124 258.76785 62.675 257.8616Q63.096874 256.95535 63.878124 256.47098Q64.65938 255.9866 65.675 255.9866Q67.03438 255.9866 67.84688 256.75223Q68.675 257.51785 68.81563 258.84598L67.69063 258.84598Q67.53438 257.83035 67.05 257.37723Q66.56563 256.9241 65.675 256.9241Q64.59688 256.9241 63.9875 257.72098Q63.378124 258.51785 63.378124 259.9866L63.378124 260.81473Q63.378124 262.20535 63.95625 263.03348Q64.53438 263.84598 65.58125 263.84598Q66.51875 263.84598 67.01875 263.4241Q67.51875 262.9866 67.69063 261.93973L68.81563 261.93973ZM73.05 260.84598Q71.6125 260.4241 70.94063 259.81473Q70.28438 259.20535 70.28438 258.31473Q70.28438 257.31473 71.08125 256.65848Q71.89375 255.9866 73.19063 255.9866Q74.06563 255.9866 74.75313 256.33035Q75.44063 256.6741 75.81563 257.26785Q76.20625 257.8616 76.20625 258.58035L75.06563 258.58035Q75.06563 257.7991 74.56563 257.3616Q74.08125 256.9241 73.19063 256.9241Q72.3625 256.9241 71.89375 257.2991Q71.425 257.65848 71.425 258.2991Q71.425 258.83035 71.8625 259.18973Q72.31563 259.5491 73.37813 259.84598Q74.44063 260.14285 75.03438 260.50223Q75.64375 260.8616 75.925 261.34598Q76.22188 261.83035 76.22188 262.47098Q76.22188 263.51785 75.40938 264.14285Q74.59688 264.76785 73.25313 264.76785Q72.3625 264.76785 71.59688 264.4241Q70.84688 264.08035 70.425 263.50223Q70.01875 262.90848 70.01875 262.1741L71.14375 262.1741Q71.14375 262.93973 71.72188 263.39285Q72.3 263.84598 73.25313 263.84598Q74.14375 263.84598 74.6125 263.4866Q75.08125 263.1116 75.08125 262.4866Q75.08125 261.8616 74.64375 261.51785Q74.20625 261.1741 73.05 260.84598ZM80.05 260.84598Q78.6125 260.4241 77.94063 259.81473Q77.28438 259.20535 77.28438 258.31473Q77.28438 257.31473 78.08125 256.65848Q78.89375 255.9866 80.19063 255.9866Q81.06563 255.9866 81.75313 256.33035Q82.44063 256.6741 82.81563 257.26785Q83.20625 257.8616 83.20625 258.58035L82.06563 258.58035Q82.06563 257.7991 81.56563 257.3616Q81.08125 256.9241 80.19063 256.9241Q79.3625 256.9241 78.89375 257.2991Q78.425 257.65848 78.425 258.2991Q78.425 258.83035 78.8625 259.18973Q79.31563 259.5491 80.37813 259.84598Q81.44063 260.14285 82.03438 260.50223Q82.64375 260.8616 82.925 261.34598Q83.22188 261.83035 83.22188 262.47098Q83.22188 263.51785 82.40938 264.14285Q81.59688 264.76785 80.25313 264.76785Q79.3625 264.76785 78.59688 264.4241Q77.84688 264.08035 77.425 263.50223Q77.01875 262.90848 77.01875 262.1741L78.14375 262.1741Q78.14375 262.93973 78.72188 263.39285Q79.3 263.84598 80.25313 263.84598Q81.14375 263.84598 81.6125 263.4866Q82.08125 263.1116 82.08125 262.4866Q82.08125 261.8616 81.64375 261.51785Q81.20625 261.1741 80.05 260.84598Z" fill-rule="nonzero"/><path fill="#757575" d="M25.846874 306.0893Q25.409374 306.7143 24.628124 307.0268Q23.846874 307.3393 22.815624 307.3393Q21.784374 307.3393 20.971874 306.85492Q20.159374 306.35492 19.721874 305.44867Q19.284374 304.54242 19.26875 303.35492L19.26875 302.62054Q19.26875 300.68304 20.159374 299.62054Q21.065624 298.55804 22.690624 298.55804Q24.034374 298.55804 24.846874 299.24554Q25.659374 299.93304 25.846874 301.18304L24.721874 301.18304Q24.39375 299.49554 22.70625 299.49554Q21.565624 299.49554 20.9875 300.29242Q20.409374 301.07367 20.39375 302.5893L20.39375 303.2768Q20.39375 304.7143 21.05 305.57367Q21.70625 306.41742 22.83125 306.41742Q23.45625 306.41742 23.925 306.2768Q24.409374 306.13617 24.721874 305.79242L24.721874 303.88617L22.753124 303.88617L22.753124 302.9643L25.846874 302.9643L25.846874 306.0893ZM27.08125 303.97992Q27.08125 303.05804 27.440624 302.30804Q27.815624 301.55804 28.471874 301.16742Q29.128124 300.76117 29.95625 300.76117Q31.253124 300.76117 32.05 301.6518Q32.8625 302.54242 32.8625 304.04242L32.8625 304.12054Q32.8625 305.04242 32.503124 305.7768Q32.14375 306.51117 31.4875 306.93304Q30.83125 307.3393 29.971874 307.3393Q28.690624 307.3393 27.878124 306.44867Q27.08125 305.54242 27.08125 304.05804L27.08125 303.97992ZM28.175 304.12054Q28.175 305.16742 28.659374 305.80804Q29.159374 306.44867 29.971874 306.44867Q30.8 306.44867 31.284374 305.80804Q31.76875 305.1518 31.76875 303.97992Q31.76875 302.94867 31.26875 302.30804Q30.784374 301.6518 29.95625 301.6518Q29.159374 301.6518 28.659374 302.29242Q28.175 302.91742 28.175 304.12054ZM35.55 307.2143L34.471874 307.2143L34.471874 298.2143L35.55 298.2143L35.55 307.2143ZM41.284374 307.2143Q41.190624 307.0268 41.128124 306.54242Q40.378124 307.3393 39.33125 307.3393Q38.39375 307.3393 37.784374 306.80804Q37.190624 306.2768 37.190624 305.44867Q37.190624 304.4643 37.940624 303.91742Q38.690624 303.37054 40.065624 303.37054L41.1125 303.37054L41.1125 302.87054Q41.1125 302.30804 40.76875 301.97992Q40.440624 301.63617 39.76875 301.63617Q39.190624 301.63617 38.8 301.93304Q38.409374 302.2143 38.409374 302.63617L37.315624 302.63617Q37.315624 302.1518 37.64375 301.7143Q37.9875 301.2768 38.565624 301.0268Q39.14375 300.76117 39.83125 300.76117Q40.940624 300.76117 41.55 301.30804Q42.175 301.85492 42.20625 302.80804L42.20625 305.72992Q42.20625 306.60492 42.425 307.12054L42.425 307.2143L41.284374 307.2143ZM39.4875 306.38617Q40.003124 306.38617 40.45625 306.12054Q40.909374 305.85492 41.1125 305.43304L41.1125 304.13617L40.26875 304.13617Q38.26875 304.13617 38.26875 305.30804Q38.26875 305.80804 38.6125 306.10492Q38.95625 306.38617 39.4875 306.38617ZM45.39375 300.87054L45.425 301.66742Q46.159374 300.76117 47.33125 300.76117Q49.346874 300.76117 49.3625 303.0268L49.3625 307.2143L48.26875 307.2143L48.26875 303.01117Q48.26875 302.3393 47.95625 302.01117Q47.659374 301.68304 47.003124 301.68304Q46.471874 301.68304 46.065624 301.9643Q45.675 302.24554 45.45625 302.69867L45.45625 307.2143L44.378124 307.2143L44.378124 300.87054L45.39375 300.87054ZM51.1125 303.99554Q51.1125 302.51117 51.8 301.63617Q52.4875 300.76117 53.6125 300.76117Q54.76875 300.76117 55.425 301.57367L55.471874 300.87054L56.471874 300.87054L56.471874 307.05804Q56.471874 308.29242 55.7375 308.99554Q55.003124 309.7143 53.784374 309.7143Q53.096874 309.7143 52.440624 309.41742Q51.784374 309.12054 51.440624 308.62054L52.003124 307.9643Q52.690624 308.82367 53.70625 308.82367Q54.4875 308.82367 54.925 308.37054Q55.378124 307.93304 55.378124 307.12054L55.378124 306.57367Q54.721874 307.3393 53.596874 307.3393Q52.4875 307.3393 51.8 306.44867Q51.1125 305.54242 51.1125 303.99554ZM52.20625 304.12054Q52.20625 305.18304 52.64375 305.80804Q53.08125 306.41742 53.878124 306.41742Q54.89375 306.41742 55.378124 305.47992L55.378124 302.5893Q54.878124 301.68304 53.878124 301.68304Q53.096874 301.68304 52.64375 302.29242Q52.20625 302.9018 52.20625 304.12054ZM61.33125 303.74554Q61.33125 302.43304 61.675 301.2143Q62.034374 299.99554 62.7375 298.99554Q63.440624 297.99554 64.20625 297.5893L64.425 298.30804Q63.565624 298.9643 63.01875 300.30804Q62.471874 301.6518 62.425 303.32367L62.409374 303.82367Q62.409374 306.0893 63.2375 307.74554Q63.7375 308.74554 64.425 309.30804L64.20625 309.9643Q63.425 309.54242 62.70625 308.51117Q61.33125 306.5268 61.33125 303.74554ZM71.84688 306.0893Q71.40938 306.7143 70.62813 307.0268Q69.84688 307.3393 68.81563 307.3393Q67.78438 307.3393 66.97188 306.85492Q66.15938 306.35492 65.72188 305.44867Q65.28438 304.54242 65.26875 303.35492L65.26875 302.62054Q65.26875 300.68304 66.15938 299.62054Q67.06563 298.55804 68.69063 298.55804Q70.03438 298.55804 70.84688 299.24554Q71.65938 299.93304 71.84688 301.18304L70.72188 301.18304Q70.39375 299.49554 68.70625 299.49554Q67.56563 299.49554 66.9875 300.29242Q66.40938 301.07367 66.39375 302.5893L66.39375 303.2768Q66.39375 304.7143 67.05 305.57367Q67.70625 306.41742 68.83125 306.41742Q69.45625 306.41742 69.925 306.2768Q70.40938 306.13617 70.72188 305.79242L70.72188 303.88617L68.75313 303.88617L68.75313 302.9643L71.84688 302.9643L71.84688 306.0893ZM73.08125 303.97992Q73.08125 303.05804 73.44063 302.30804Q73.81563 301.55804 74.47188 301.16742Q75.12813 300.76117 75.95625 300.76117Q77.25313 300.76117 78.05 301.6518Q78.8625 302.54242 78.8625 304.04242L78.8625 304.12054Q78.8625 305.04242 78.50313 305.7768Q78.14375 306.51117 77.4875 306.93304Q76.83125 307.3393 75.97188 307.3393Q74.69063 307.3393 73.87813 306.44867Q73.08125 305.54242 73.08125 304.05804L73.08125 303.97992ZM74.175 304.12054Q74.175 305.16742 74.65938 305.80804Q75.15938 306.44867 75.97188 306.44867Q76.8 306.44867 77.28438 305.80804Q77.76875 305.1518 77.76875 303.97992Q77.76875 302.94867 77.26875 302.30804Q76.78438 301.6518 75.95625 301.6518Q75.15938 301.6518 74.65938 302.29242Q74.175 302.91742 74.175 304.12054ZM82.87813 303.80804Q82.87813 305.12054 82.53438 306.32367Q82.19063 307.51117 81.47188 308.5268Q80.76875 309.54242 80.00313 309.9643L79.76875 309.30804Q80.675 308.62054 81.22188 307.16742Q81.76875 305.69867 81.78438 303.93304L81.78438 303.74554Q81.78438 302.51117 81.51875 301.44867Q81.26875 300.38617 80.8 299.55804Q80.34688 298.7143 79.76875 298.24554L80.00313 297.5893Q80.76875 298.01117 81.47188 299.01117Q82.175 300.01117 82.51875 301.22992Q82.87813 302.43304 82.87813 303.80804Z" fill-rule="nonzero"/><path fill="#757575" d="M87.6125 345.8094Q87.6125 347.71564 86.95625 348.65314Q86.31563 349.575 84.925 349.575Q83.56563 349.575 82.90938 348.66876Q82.25313 347.7625 82.22188 345.95L82.22188 344.5125Q82.22188 342.6219 82.8625 341.71564Q83.51875 340.79376 84.90938 340.79376Q86.28438 340.79376 86.94063 341.6844Q87.59688 342.5594 87.6125 344.40314L87.6125 345.8094ZM86.51875 344.325Q86.51875 342.95 86.12813 342.325Q85.75313 341.6844 84.90938 341.6844Q84.08125 341.6844 83.69063 342.325Q83.31563 342.95 83.31563 344.2469L83.31563 345.98126Q83.31563 347.35626 83.70625 348.02814Q84.1125 348.6844 84.925 348.6844Q85.72188 348.6844 86.1125 348.0594Q86.50313 347.4344 86.51875 346.10626L86.51875 344.325ZM89.15938 342.5594Q89.15938 341.79376 89.64375 341.29376Q90.14375 340.79376 90.90938 340.79376Q91.69063 340.79376 92.175 341.29376Q92.65938 341.79376 92.65938 342.59064L92.65938 343.0125Q92.65938 343.77814 92.15938 344.27814Q91.675 344.7625 90.925 344.7625Q90.15938 344.7625 89.65938 344.27814Q89.15938 343.77814 89.15938 342.96564L89.15938 342.5594ZM89.97188 343.0125Q89.97188 343.46564 90.22188 343.7625Q90.4875 344.0594 90.925 344.0594Q91.34688 344.0594 91.59688 343.77814Q91.84688 343.48126 91.84688 342.98126L91.84688 342.5594Q91.84688 342.10626 91.59688 341.8094Q91.34688 341.4969 90.90938 341.4969Q90.47188 341.4969 90.22188 341.8094Q89.97188 342.10626 89.97188 342.575L89.97188 343.0125ZM93.31563 347.35626Q93.31563 346.59064 93.8 346.10626Q94.3 345.60626 95.06563 345.60626Q95.83125 345.60626 96.31563 346.10626Q96.81563 346.59064 96.81563 347.40314L96.81563 347.8094Q96.81563 348.575 96.33125 349.075Q95.84688 349.575 95.08125 349.575Q94.31563 349.575 93.81563 349.09064Q93.31563 348.59064 93.31563 347.77814L93.31563 347.35626ZM94.12813 347.8094Q94.12813 348.27814 94.37813 348.575Q94.64375 348.8719 95.08125 348.8719Q95.50313 348.8719 95.75313 348.59064Q96.00313 348.29376 96.00313 347.79376L96.00313 347.35626Q96.00313 346.8875 95.7375 346.60626Q95.4875 346.3094 95.06563 346.3094Q94.64375 346.3094 94.37813 346.60626Q94.12813 346.8875 94.12813 347.3875L94.12813 347.8094ZM91.175 348.8094L90.55 348.41876L94.72188 341.7469L95.33125 342.1375L91.175 348.8094Z" fill-rule="nonzero"/><path fill="#757575" d="M207.32187 349.45L201.72812 349.45L201.72812 348.66876L204.68124 345.3875Q205.3375 344.6375 205.5875 344.1844Q205.8375 343.71564 205.8375 343.21564Q205.8375 342.54376 205.43124 342.1219Q205.04062 341.6844 204.35312 341.6844Q203.55624 341.6844 203.10312 342.15314Q202.65 342.60626 202.65 343.4344L201.57187 343.4344Q201.57187 342.2469 202.32187 341.52814Q203.0875 340.79376 204.35312 340.79376Q205.55624 340.79376 206.24374 341.41876Q206.93124 342.04376 206.93124 343.09064Q206.93124 344.34064 205.32187 346.09064L203.04062 348.5594L207.32187 348.5594L207.32187 349.45ZM209.22812 345.16876L209.66562 340.91876L214.04062 340.91876L214.04062 341.91876L210.5875 341.91876L210.32187 344.2469Q210.9625 343.8719 211.75937 343.8719Q212.91562 343.8719 213.60312 344.65314Q214.29062 345.41876 214.29062 346.73126Q214.29062 348.04376 213.57187 348.8094Q212.86874 349.575 211.5875 349.575Q210.4625 349.575 209.74374 348.95Q209.025 348.3094 208.93124 347.2L209.94687 347.2Q210.05624 347.9344 210.47812 348.3094Q210.9 348.6844 211.5875 348.6844Q212.3375 348.6844 212.775 348.16876Q213.2125 347.65314 213.2125 346.7469Q213.2125 345.8875 212.74374 345.3719Q212.275 344.85626 211.49374 344.85626Q210.79062 344.85626 210.38437 345.15314L210.10312 345.3875L209.22812 345.16876ZM215.63437 342.5594Q215.63437 341.79376 216.11874 341.29376Q216.61874 340.79376 217.38437 340.79376Q218.16562 340.79376 218.65 341.29376Q219.13437 341.79376 219.13437 342.59064L219.13437 343.0125Q219.13437 343.77814 218.63437 344.27814Q218.15 344.7625 217.4 344.7625Q216.63437 344.7625 216.13437 344.27814Q215.63437 343.77814 215.63437 342.96564L215.63437 342.5594ZM216.44687 343.0125Q216.44687 343.46564 216.69687 343.7625Q216.9625 344.0594 217.4 344.0594Q217.82187 344.0594 218.07187 343.77814Q218.32187 343.48126 218.32187 342.98126L218.32187 342.5594Q218.32187 342.10626 218.07187 341.8094Q217.82187 341.4969 217.38437 341.4969Q216.94687 341.4969 216.69687 341.8094Q216.44687 342.10626 216.44687 342.575L216.44687 343.0125ZM219.79062 347.35626Q219.79062 346.59064 220.275 346.10626Q220.775 345.60626 221.54062 345.60626Q222.30624 345.60626 222.79062 346.10626Q223.29062 346.59064 223.29062 347.40314L223.29062 347.8094Q223.29062 348.575 222.80624 349.075Q222.32187 349.575 221.55624 349.575Q220.79062 349.575 220.29062 349.09064Q219.79062 348.59064 219.79062 347.77814L219.79062 347.35626ZM220.60312 347.8094Q220.60312 348.27814 220.85312 348.575Q221.11874 348.8719 221.55624 348.8719Q221.97812 348.8719 222.22812 348.59064Q222.47812 348.29376 222.47812 347.79376L222.47812 347.35626Q222.47812 346.8875 222.2125 346.60626Q221.9625 346.3094 221.54062 346.3094Q221.11874 346.3094 220.85312 346.60626Q220.60312 346.8875 220.60312 347.3875L220.60312 347.8094ZM217.65 348.8094L217.025 348.41876L221.19687 341.7469L221.80624 342.1375L217.65 348.8094Z" fill-rule="nonzero"/><path fill="#757575" d="M325.20312 345.16876L325.64062 340.91876L330.01562 340.91876L330.01562 341.91876L326.5625 341.91876L326.29688 344.2469Q326.9375 343.8719 327.73438 343.8719Q328.89062 343.8719 329.57812 344.65314Q330.26562 345.41876 330.26562 346.73126Q330.26562 348.04376 329.54688 348.8094Q328.84375 349.575 327.5625 349.575Q326.4375 349.575 325.71875 348.95Q325.0 348.3094 324.90625 347.2L325.92188 347.2Q326.03125 347.9344 326.45312 348.3094Q326.875 348.6844 327.5625 348.6844Q328.3125 348.6844 328.75 348.16876Q329.1875 347.65314 329.1875 346.7469Q329.1875 345.8875 328.71875 345.3719Q328.25 344.85626 327.46875 344.85626Q326.76562 344.85626 326.35938 345.15314L326.07812 345.3875L325.20312 345.16876ZM337.0625 345.8094Q337.0625 347.71564 336.40625 348.65314Q335.76562 349.575 334.375 349.575Q333.01562 349.575 332.35938 348.66876Q331.70312 347.7625 331.67188 345.95L331.67188 344.5125Q331.67188 342.6219 332.3125 341.71564Q332.96875 340.79376 334.35938 340.79376Q335.73438 340.79376 336.39062 341.6844Q337.04688 342.5594 337.0625 344.40314L337.0625 345.8094ZM335.96875 344.325Q335.96875 342.95 335.57812 342.325Q335.20312 341.6844 334.35938 341.6844Q333.53125 341.6844 333.14062 342.325Q332.76562 342.95 332.76562 344.2469L332.76562 345.98126Q332.76562 347.35626 333.15625 348.02814Q333.5625 348.6844 334.375 348.6844Q335.17188 348.6844 335.5625 348.0594Q335.95312 347.4344 335.96875 346.10626L335.96875 344.325ZM338.60938 342.5594Q338.60938 341.79376 339.09375 341.29376Q339.59375 340.79376 340.35938 340.79376Q341.14062 340.79376 341.625 341.29376Q342.10938 341.79376 342.10938 342.59064L342.10938 343.0125Q342.10938 343.77814 341.60938 344.27814Q341.125 344.7625 340.375 344.7625Q339.60938 344.7625 339.10938 344.27814Q338.60938 343.77814 338.60938 342.96564L338.60938 342.5594ZM339.42188 343.0125Q339.42188 343.46564 339.67188 343.7625Q339.9375 344.0594 340.375 344.0594Q340.79688 344.0594 341.04688 343.77814Q341.29688 343.48126 341.29688 342.98126L341.29688 342.5594Q341.29688 342.10626 341.04688 341.8094Q340.79688 341.4969 340.35938 341.4969Q339.92188 341.4969 339.67188 341.8094Q339.42188 342.10626 339.42188 342.575L339.42188 343.0125ZM342.76562 347.35626Q342.76562 346.59064 343.25 346.10626Q343.75 345.60626 344.51562 345.60626Q345.28125 345.60626 345.76562 346.10626Q346.26562 346.59064 346.26562 347.40314L346.26562 347.8094Q346.26562 348.575 345.78125 349.075Q345.29688 349.575 344.53125 349.575Q343.76562 349.575 343.26562 349.09064Q342.76562 348.59064 342.76562 347.77814L342.76562 347.35626ZM343.57812 347.8094Q343.57812 348.27814 343.82812 348.575Q344.09375 348.8719 344.53125 348.8719Q344.95312 348.8719 345.20312 348.59064Q345.45312 348.29376 345.45312 347.79376L345.45312 347.35626Q345.45312 346.8875 345.1875 346.60626Q344.9375 346.3094 344.51562 346.3094Q344.09375 346.3094 343.82812 346.60626Q343.57812 346.8875 343.57812 347.3875L343.57812 347.8094ZM340.625 348.8094L340.0 348.41876L344.17188 341.7469L344.78125 342.1375L340.625 348.8094Z" fill-rule="nonzero"/><path fill="#757575" d="M453.19376 341.52814L449.6625 349.45L448.52188 349.45L452.0375 341.8094L447.42813 341.8094L447.42813 340.91876L453.19376 340.91876L453.19376 341.52814ZM455.17813 345.16876L455.61563 340.91876L459.99063 340.91876L459.99063 341.91876L456.5375 341.91876L456.27188 344.2469Q456.9125 343.8719 457.70938 343.8719Q458.86563 343.8719 459.55313 344.65314Q460.24063 345.41876 460.24063 346.73126Q460.24063 348.04376 459.52188 348.8094Q458.81876 349.575 457.5375 349.575Q456.4125 349.575 455.69376 348.95Q454.975 348.3094 454.88126 347.2L455.89688 347.2Q456.00626 347.9344 456.42813 348.3094Q456.85 348.6844 457.5375 348.6844Q458.2875 348.6844 458.725 348.16876Q459.1625 347.65314 459.1625 346.7469Q459.1625 345.8875 458.69376 345.3719Q458.225 344.85626 457.44376 344.85626Q456.74063 344.85626 456.33438 345.15314L456.05313 345.3875L455.17813 345.16876ZM461.58438 342.5594Q461.58438 341.79376 462.06876 341.29376Q462.56876 340.79376 463.33438 340.79376Q464.11563 340.79376 464.6 341.29376Q465.08438 341.79376 465.08438 342.59064L465.08438 343.0125Q465.08438 343.77814 464.58438 344.27814Q464.1 344.7625 463.35 344.7625Q462.58438 344.7625 462.08438 344.27814Q461.58438 343.77814 461.58438 342.96564L461.58438 342.5594ZM462.39688 343.0125Q462.39688 343.46564 462.64688 343.7625Q462.9125 344.0594 463.35 344.0594Q463.77188 344.0594 464.02188 343.77814Q464.27188 343.48126 464.27188 342.98126L464.27188 342.5594Q464.27188 342.10626 464.02188 341.8094Q463.77188 341.4969 463.33438 341.4969Q462.89688 341.4969 462.64688 341.8094Q462.39688 342.10626 462.39688 342.575L462.39688 343.0125ZM465.74063 347.35626Q465.74063 346.59064 466.225 346.10626Q466.725 345.60626 467.49063 345.60626Q468.25626 345.60626 468.74063 346.10626Q469.24063 346.59064 469.24063 347.40314L469.24063 347.8094Q469.24063 348.575 468.75626 349.075Q468.27188 349.575 467.50626 349.575Q466.74063 349.575 466.24063 349.09064Q465.74063 348.59064 465.74063 347.77814L465.74063 347.35626ZM466.55313 347.8094Q466.55313 348.27814 466.80313 348.575Q467.06876 348.8719 467.50626 348.8719Q467.92813 348.8719 468.17813 348.59064Q468.42813 348.29376 468.42813 347.79376L468.42813 347.35626Q468.42813 346.8875 468.1625 346.60626Q467.9125 346.3094 467.49063 346.3094Q467.06876 346.3094 466.80313 346.60626Q466.55313 346.8875 466.55313 347.3875L466.55313 347.8094ZM463.6 348.8094L462.975 348.41876L467.14688 341.7469L467.75626 342.1375L463.6 348.8094Z" fill-rule="nonzero"/><path fill="#757575" d="M570.71564 349.45L569.6375 349.45L569.6375 342.23126L567.45 343.02814L567.45 342.04376L570.5594 340.8719L570.71564 340.8719L570.71564 349.45ZM579.5125 345.8094Q579.5125 347.71564 578.85626 348.65314Q578.21564 349.575 576.825 349.575Q575.46564 349.575 574.8094 348.66876Q574.15314 347.7625 574.1219 345.95L574.1219 344.5125Q574.1219 342.6219 574.7625 341.71564Q575.41876 340.79376 576.8094 340.79376Q578.1844 340.79376 578.84064 341.6844Q579.4969 342.5594 579.5125 344.40314L579.5125 345.8094ZM578.41876 344.325Q578.41876 342.95 578.02814 342.325Q577.65314 341.6844 576.8094 341.6844Q575.98126 341.6844 575.59064 342.325Q575.21564 342.95 575.21564 344.2469L575.21564 345.98126Q575.21564 347.35626 575.60626 348.02814Q576.0125 348.6844 576.825 348.6844Q577.6219 348.6844 578.0125 348.0594Q578.40314 347.4344 578.41876 346.10626L578.41876 344.325ZM586.5125 345.8094Q586.5125 347.71564 585.85626 348.65314Q585.21564 349.575 583.825 349.575Q582.46564 349.575 581.8094 348.66876Q581.15314 347.7625 581.1219 345.95L581.1219 344.5125Q581.1219 342.6219 581.7625 341.71564Q582.41876 340.79376 583.8094 340.79376Q585.1844 340.79376 585.84064 341.6844Q586.4969 342.5594 586.5125 344.40314L586.5125 345.8094ZM585.41876 344.325Q585.41876 342.95 585.02814 342.325Q584.65314 341.6844 583.8094 341.6844Q582.98126 341.6844 582.59064 342.325Q582.21564 342.95 582.21564 344.2469L582.21564 345.98126Q582.21564 347.35626 582.60626 348.02814Q583.0125 348.6844 583.825 348.6844Q584.6219 348.6844 585.0125 348.0594Q585.40314 347.4344 585.41876 346.10626L585.41876 344.325ZM588.0594 342.5594Q588.0594 341.79376 588.54376 341.29376Q589.04376 340.79376 589.8094 340.79376Q590.59064 340.79376 591.075 341.29376Q591.5594 341.79376 591.5594 342.59064L591.5594 343.0125Q591.5594 343.77814 591.0594 344.27814Q590.575 344.7625 589.825 344.7625Q589.0594 344.7625 588.5594 344.27814Q588.0594 343.77814 588.0594 342.96564L588.0594 342.5594ZM588.8719 343.0125Q588.8719 343.46564 589.1219 343.7625Q589.3875 344.0594 589.825 344.0594Q590.2469 344.0594 590.4969 343.77814Q590.7469 343.48126 590.7469 342.98126L590.7469 342.5594Q590.7469 342.10626 590.4969 341.8094Q590.2469 341.4969 589.8094 341.4969Q589.3719 341.4969 589.1219 341.8094Q588.8719 342.10626 588.8719 342.575L588.8719 343.0125ZM592.21564 347.35626Q592.21564 346.59064 592.7 346.10626Q593.2 345.60626 593.96564 345.60626Q594.73126 345.60626 595.21564 346.10626Q595.71564 346.59064 595.71564 347.40314L595.71564 347.8094Q595.71564 348.575 595.23126 349.075Q594.7469 349.575 593.98126 349.575Q593.21564 349.575 592.71564 349.09064Q592.21564 348.59064 592.21564 347.77814L592.21564 347.35626ZM593.02814 347.8094Q593.02814 348.27814 593.27814 348.575Q593.54376 348.8719 593.98126 348.8719Q594.40314 348.8719 594.65314 348.59064Q594.90314 348.29376 594.90314 347.79376L594.90314 347.35626Q594.90314 346.8875 594.6375 346.60626Q594.3875 346.3094 593.96564 346.3094Q593.54376 346.3094 593.27814 346.60626Q593.02814 346.8875 593.02814 347.3875L593.02814 347.8094ZM590.075 348.8094L589.45 348.41876L593.6219 341.7469L594.23126 342.1375L590.075 348.8094Z" fill-rule="nonzero"/></svg>